<svg width="42" height="42" viewBox="0 0 42 42" fill="none" xmlns="http://www.w3.org/2000/svg">
<path d="M18.7782 20.5564V9.44363H1V25C1 31.1384 5.97439 36.1128 12.1128 36.1128C16.8858 36.1128 20.9561 33.1004 22.5301 28.8763C20.2314 26.8412 18.7819 23.869 18.7819 20.5564H18.7782Z" fill="#FFDD33"/>
<path d="M23.2218 5C20.7658 5 18.7782 6.9912 18.7782 9.44363C21.2343 9.44363 23.2218 11.4349 23.2218 13.8873V25.0001C23.2218 26.3617 22.9766 27.6684 22.5264 28.8764C24.4883 30.6114 27.0652 31.6692 29.8873 31.6692C36.0257 31.6692 41.0001 26.6948 41.0001 20.5564V5H23.2218Z" fill="#1C88F4"/>
<path d="M23.2218 13.8909C23.2218 11.4349 21.2306 9.4473 18.7782 9.4473V20.5601C18.7782 23.8727 20.2277 26.8449 22.5264 28.88C22.9766 27.6721 23.2218 26.369 23.2218 25.0037V13.8909Z" fill="#33DDBC"/>
</svg>
