<svg width="335" height="309" viewBox="0 0 335 309" fill="none" xmlns="http://www.w3.org/2000/svg">
<rect width="335" height="309" fill="#1E1E1E"/>
<g clip-path="url(#clip0_4_13)">
<rect width="375" height="812" transform="translate(-16 -76)" fill="white"/>
<rect x="103.5" y="138" width="140" height="36" rx="8" fill="#CFDAE5"/>
<rect x="103.5" y="138" width="130" height="32" rx="8" fill="#EAEFF4"/>
<rect x="217.5" y="146" width="8" height="16" rx="4" fill="#33DDBC"/>
<rect x="205.5" y="146" width="8" height="16" rx="4" fill="#1C88F4"/>
<rect x="111.5" y="146" width="40" height="8" rx="4" fill="#CEDAE5"/>
<rect x="103.5" y="102" width="140" height="36" rx="8" fill="#CFDAE5"/>
<rect x="103.5" y="102" width="130" height="32" rx="8" fill="#EAEFF4"/>
<rect x="217.5" y="110" width="8" height="16" rx="4" fill="#33DDBC"/>
<rect x="205.5" y="110" width="8" height="16" rx="4" fill="#FFDD33"/>
<rect x="111.5" y="110" width="40" height="8" rx="4" fill="#CEDAE5"/>
<rect x="103.5" y="66" width="140" height="36" rx="8" fill="#CFDAE5"/>
<rect x="103.5" y="66" width="130" height="32" rx="8" fill="#EAEFF4"/>
<rect x="217.5" y="74" width="8" height="16" rx="4" fill="#FF6D90"/>
<rect x="205.5" y="74" width="8" height="16" rx="4" fill="#FFDD33"/>
<rect x="111.5" y="74" width="40" height="8" rx="4" fill="#CEDAE5"/>
<g filter="url(#filter0_bdii_4_13)">
<path d="M158 93.5571L235.942 228.557H80.0577L158 93.5571Z" fill="url(#paint0_linear_4_13)" shape-rendering="crispEdges"/>
</g>
<path fill-rule="evenodd" clip-rule="evenodd" d="M146 156.557C146 149.93 151.373 144.557 158 144.557C164.627 144.557 170 149.93 170 156.557C170 163.185 164.627 168.557 158 168.557C155.791 168.557 154 170.348 154 172.557V182.56C154 184.769 155.791 186.56 158 186.56C160.209 186.56 162 184.769 162 182.56V176.157C171.129 174.304 178 166.233 178 156.557C178 145.511 169.046 136.557 158 136.557C146.954 136.557 138 145.511 138 156.557C138 158.766 139.791 160.557 142 160.557C144.209 160.557 146 158.766 146 156.557ZM158 194.557C153.582 194.557 150 198.139 150 202.557C150 206.975 153.582 210.557 158 210.557C162.418 210.557 166 206.975 166 202.557C166 198.139 162.418 194.557 158 194.557Z" fill="#FF6D90"/>
</g>
<defs>
<filter id="filter0_bdii_4_13" x="0.0576172" y="53.5571" width="275.885" height="255" filterUnits="userSpaceOnUse" color-interpolation-filters="sRGB">
<feFlood flood-opacity="0" result="BackgroundImageFix"/>
<feGaussianBlur in="BackgroundImageFix" stdDeviation="6"/>
<feComposite in2="SourceAlpha" operator="in" result="effect1_backgroundBlur_4_13"/>
<feColorMatrix in="SourceAlpha" type="matrix" values="0 0 0 0 0 0 0 0 0 0 0 0 0 0 0 0 0 0 127 0" result="hardAlpha"/>
<feOffset dx="-20" dy="20"/>
<feGaussianBlur stdDeviation="30"/>
<feComposite in2="hardAlpha" operator="out"/>
<feColorMatrix type="matrix" values="0 0 0 0 0.164706 0 0 0 0 0.313726 0 0 0 0 0.47451 0 0 0 0.12 0"/>
<feBlend mode="normal" in2="effect1_backgroundBlur_4_13" result="effect2_dropShadow_4_13"/>
<feBlend mode="normal" in="SourceGraphic" in2="effect2_dropShadow_4_13" result="shape"/>
<feColorMatrix in="SourceAlpha" type="matrix" values="0 0 0 0 0 0 0 0 0 0 0 0 0 0 0 0 0 0 127 0" result="hardAlpha"/>
<feOffset dx="2" dy="2"/>
<feGaussianBlur stdDeviation="1"/>
<feComposite in2="hardAlpha" operator="arithmetic" k2="-1" k3="1"/>
<feColorMatrix type="matrix" values="0 0 0 0 1 0 0 0 0 1 0 0 0 0 1 0 0 0 0.9 0"/>
<feBlend mode="normal" in2="shape" result="effect3_innerShadow_4_13"/>
<feColorMatrix in="SourceAlpha" type="matrix" values="0 0 0 0 0 0 0 0 0 0 0 0 0 0 0 0 0 0 127 0" result="hardAlpha"/>
<feOffset dx="-2" dy="-2"/>
<feGaussianBlur stdDeviation="1"/>
<feComposite in2="hardAlpha" operator="arithmetic" k2="-1" k3="1"/>
<feColorMatrix type="matrix" values="0 0 0 0 0 0 0 0 0 0 0 0 0 0 0 0 0 0 0.05 0"/>
<feBlend mode="normal" in2="effect3_innerShadow_4_13" result="effect4_innerShadow_4_13"/>
</filter>
<linearGradient id="paint0_linear_4_13" x1="60.3729" y1="90.2844" x2="262.771" y2="230.486" gradientUnits="userSpaceOnUse">
<stop stop-color="white" stop-opacity="0.7"/>
<stop offset="1" stop-color="white" stop-opacity="0.2"/>
</linearGradient>
<clipPath id="clip0_4_13">
<rect width="375" height="812" fill="white" transform="translate(-16 -76)"/>
</clipPath>
</defs>
</svg>
