<svg width="304" height="307" viewBox="0 0 304 307" fill="none" xmlns="http://www.w3.org/2000/svg">
<path d="M198.049 167.838C196.544 171.484 193.761 173.758 190.198 175.185H185.142C184.386 174.839 183.63 174.493 182.881 174.147C182.648 173.9 182.574 173.622 182.764 173.325C187.445 166.107 190.984 158.272 194.854 150.622C196.021 148.317 197.557 146.135 197.631 143.391C197.643 143.002 197.963 142.718 198.337 142.551C201.243 142.718 202.515 144.973 203.952 147.019C205.943 150.931 205.795 154.787 203.614 158.575C202.06 160.917 201.151 163.605 199.615 165.959C199.167 166.651 198.866 167.467 198.049 167.844V167.838Z" fill="#CBA292"/>
<path d="M249.966 124.803C254.229 130.068 254.856 134.067 252.141 138.819C252.067 138.948 251.926 139.035 251.821 139.14C247.625 137.101 243.644 134.672 239.596 132.361C230.283 127.053 221.025 121.639 211.699 116.362C211.368 116.171 211.024 115.997 210.68 115.837C207.983 114.607 205.685 115.176 204.493 117.369C203.24 119.668 204.02 122.066 206.625 123.574C210.004 125.539 213.401 127.454 216.78 129.419C222.407 132.688 228.108 135.828 233.729 139.115C234.417 139.517 235.357 139.764 235.234 140.895C238.011 145.048 238.552 149.361 236.174 153.884C236.07 154.082 235.879 154.224 235.726 154.391C226.124 148.508 216.215 143.15 206.453 137.546C205.323 136.897 204.235 136.168 203.05 135.63C199.493 134.005 196.292 136.211 196.483 140.141C196.513 140.827 196.734 141.525 196.151 142.1C195.463 142.533 194.683 142.52 193.927 142.495C191.617 142.434 189.565 143.113 187.747 144.547C187.268 144.924 186.782 145.326 186.107 145.227C185.29 144.436 185.462 143.385 185.492 142.427C185.64 137.879 183.195 135.068 179.447 133.084C176.308 132.015 173.31 132.176 170.38 133.875C168.205 135.136 167.787 134.87 167.536 132.423C167.486 131.965 167.486 131.502 167.327 131.057C166.399 127.133 164.433 124.136 160.317 123.024C157.669 122.362 155.077 122.393 152.546 123.555C151.895 123.852 151.17 124.334 150.463 123.605C150.101 122.974 150.156 122.288 150.212 121.596C150.605 116.597 148.608 113.087 144.13 110.887C138.281 109.008 133.907 110.757 130.817 116.121C130.252 117.104 130.154 118.556 128.636 118.772C127.187 116.603 126.671 114.063 126.419 111.585C125.841 105.838 122.819 102.563 117.474 100.66C112.455 98.8739 107.651 96.4577 102.81 94.196C99.3945 92.6017 98.0799 88.9001 99.671 85.4766C104.844 74.3596 110.072 63.2673 115.275 52.1626C118.162 50.8155 121.086 51.143 123.992 52.0391C126.935 52.9413 129.601 54.4491 132.261 55.9816C139.363 60.0663 146.9 62.5999 155.181 62.1179C160.373 61.8151 165.428 60.468 170.564 59.677C174.348 59.0961 178.163 59.1208 181.972 59.4792C182.814 59.5596 183.631 59.782 184.251 60.4185C184.86 61.8646 183.674 62.5505 182.906 63.2797C177.223 68.6621 171.117 73.513 164.513 77.7151C162.965 78.6977 161.454 79.7482 159.838 80.6319C158.284 81.4785 157.964 82.4919 159.181 83.9318C159.875 84.7536 160.551 85.5817 161.343 86.3047C167.941 92.6449 175.675 93.9797 184.276 91.6253C189.676 90.1484 194.775 87.8743 199.978 85.8721C204.186 84.2593 208.413 82.7206 212.977 82.3498C214.697 82.2077 216.313 82.4796 217.972 82.6897C222.923 83.8082 226.941 86.8423 231.247 89.2647C237.907 92.9972 244.517 96.8161 251.133 100.623C253.259 101.939 255.396 103.237 257.614 104.38C260.127 105.678 262.062 107.482 263.321 110.022C262.793 111.709 263.966 113.198 263.819 114.91C263.635 117.017 263.241 118.945 261.933 120.626C257.246 118.525 252.951 115.695 248.473 113.204C241.912 109.552 235.523 105.597 228.876 102.093C227.107 101.16 225.239 100.734 223.476 102.112C220.847 104.176 221.222 107.779 224.361 109.558C229.288 112.358 234.208 115.188 239.148 117.969C242.348 119.773 245.524 121.633 248.786 123.333C249.339 123.623 250.156 123.821 249.966 124.779V124.803Z" fill="#FEE6DB"/>
<path d="M250.888 101.179C242.33 96.2662 233.76 91.3843 225.234 86.416C222.985 85.1059 220.608 84.1481 218.23 83.1655C210.422 78.296 202.141 76.8686 193.258 79.6432C188.583 81.1016 184.117 83.1284 179.522 84.8093C175.111 86.4283 170.602 87.5098 165.877 87.4727C164.114 87.4603 162.37 87.2811 160.778 86.3913C159.39 85.7115 158.794 84.2964 157.916 83.1717C157.031 82.0409 157.762 81.2684 158.825 80.6195C164.102 77.4185 169.311 74.1001 174.085 70.1699C177.605 67.2717 181.328 64.5651 184.233 60.9686C186.838 57.2732 190.18 54.48 194.327 52.6756C199.764 48.8134 205.79 46.4528 212.437 46.2921C218.236 46.1562 223.679 48.0657 229.024 50.2223C233.465 52.0082 237.778 54.1463 242.797 54.1649C246.323 54.1772 249.112 52.5767 252.012 51.0627C254.586 49.7156 257.099 48.2387 259.666 46.873C264.587 44.259 268.132 45.6494 270.128 50.8897C273.821 60.5731 277.543 70.2379 281.26 79.9089C281.506 80.5516 281.788 81.1819 282.046 81.8122C282.212 86.3356 280.246 89.376 276.008 91.0568C268.107 94.1899 260.25 97.4341 252.424 100.746C251.926 100.956 251.373 100.956 250.875 101.167L250.888 101.179Z" fill="#EEAC95"/>
<path d="M194.338 52.6818C190.695 55.1041 187.458 58.0209 184.245 60.9747C181.775 59.3371 178.943 59.9613 176.308 59.918C168.604 59.7944 161.25 62.7544 153.541 62.8224C145.603 62.8904 138.44 60.3197 131.677 56.3957C128.028 54.2823 124.317 52.4099 120.066 51.8166C118.407 51.5818 116.921 52.9351 115.268 52.1689C116.644 49.1779 117.897 46.1252 119.427 43.2209C121.018 40.1991 124.551 39.198 127.757 40.6625C133.243 43.1714 138.858 45.4393 144.148 48.3252C149.904 51.4644 155.678 51.6251 161.809 50.1049C166.595 48.9184 171.387 47.701 176.375 47.5465C182.131 47.3673 187.347 49.0605 192.262 51.8908C192.925 52.2739 193.509 52.7806 194.344 52.6879L194.338 52.6818Z" fill="#FECBBE"/>
<path d="M235.222 140.889C232.968 138.899 230.191 137.762 227.641 136.266C220.46 132.058 213.174 128.023 205.943 123.895C203.388 122.437 202.583 119.557 203.947 117.011C205.206 114.663 207.922 113.736 210.471 115.126C216.903 118.642 223.261 122.294 229.638 125.922C236.009 129.549 242.361 133.208 248.713 136.866C249.825 137.508 251.06 137.997 251.815 139.134C247.933 143.978 243.571 144.949 238.122 142.193C237.176 141.717 236.187 141.321 235.222 140.883V140.889Z" fill="#FECBBE"/>
<path d="M250.887 101.179C253.485 99.0717 256.735 98.3796 259.708 97.1004C264.887 94.8758 270.127 92.8057 275.368 90.7231C278.697 89.4007 281.136 87.3924 281.517 83.524C281.572 82.9678 281.486 82.2633 282.058 81.8246C283.428 85.3222 284.81 88.8137 286.161 92.3175C288.017 97.1375 286.843 100.085 282.125 102.118C275.877 104.813 269.587 107.402 263.315 110.034C263.167 109.997 262.946 110.003 262.885 109.904C260.04 105.387 255.003 103.923 250.887 101.173V101.179Z" fill="#E08E6C"/>
<path d="M150.625 123.388C152.91 123.296 154.808 121.547 157.259 121.948C158.433 122.14 159.649 122.109 160.804 122.511C162.063 124.111 161.891 125.743 161.025 127.467C156.424 136.674 151.724 145.832 146.896 154.916C145.9 156.789 144.445 158.025 142.393 158.538C137.337 154.663 136.17 149.658 138.989 144.04C139.432 143.163 140.095 142.372 140.132 141.321C139.972 140.104 140.937 139.381 141.428 138.479C144.008 133.776 146.847 129.228 149.316 124.463C149.586 123.944 149.82 123.302 150.619 123.382L150.625 123.388Z" fill="#D5B3A7"/>
<path d="M249.966 124.803C245.26 122.121 240.561 119.439 235.855 116.77C231.936 114.545 228.004 112.345 224.072 110.139C221.492 108.693 220.386 105.641 221.603 103.317C222.893 100.851 225.835 99.8503 228.477 101.296C235.247 104.998 241.937 108.835 248.651 112.642C252.638 114.904 256.595 117.209 260.576 119.483C261.11 119.786 261.687 120.014 261.933 120.651C259.064 124.735 255.243 126.064 249.972 124.81L249.966 124.803Z" fill="#FECBBE"/>
<path d="M196.162 141.865C196.279 140.784 195.542 139.832 195.757 138.707C196.42 135.16 200.069 133.313 203.338 135.117C209.806 138.689 216.202 142.403 222.621 146.061C226.528 148.286 230.423 150.529 234.337 152.747C235.018 153.13 235.719 153.446 235.719 154.385C232.119 158.803 227.339 159.885 222.333 157.345C220.17 156.245 218.063 155.034 215.931 153.872C213.474 153.6 211.748 151.845 209.708 150.733C207.583 149.571 205.389 148.514 203.485 146.982C201.998 145.363 200.8 143.404 198.484 142.792C197.674 142.588 196.672 142.854 196.168 141.865H196.162Z" fill="#FECBBE"/>
<path d="M142.39 158.538C146.525 156.06 148.018 151.672 150.063 147.705C153.344 141.352 156.52 134.944 159.831 128.61C160.863 126.639 161.619 124.723 160.802 122.505C164.715 123.901 167.056 126.614 167.682 130.779C168.143 133.517 168.02 136.032 166.595 138.646C163.929 143.54 161.471 148.558 158.879 153.501C158.529 154.169 158.277 154.923 157.552 155.324C152.828 160.818 147.588 161.93 142.384 158.538H142.39Z" fill="#CBA292"/>
<path d="M157.558 155.324C158.578 152.068 160.525 149.274 162.055 146.277C163.8 142.854 165.557 139.437 167.277 136.001C168.118 134.326 167.486 132.516 167.682 130.779C168.61 131.743 167.811 133.022 168.395 134.345C171.86 131.928 175.564 130.779 179.643 132.614C180.423 134.029 180.221 135.426 179.557 136.816C175.595 145.06 171.258 153.118 167.111 161.263C166.159 163.141 164.807 164.717 162.669 165.366C159.051 163.005 157.558 159.551 157.558 155.324Z" fill="#D5B3A7"/>
<path d="M196.162 141.865C196.967 142.094 197.827 142.187 198.478 142.792C195.511 153.186 189.116 161.943 184.828 171.7C184.367 172.745 183.107 173.004 182.874 174.141C178.998 171.966 177.001 168.641 176.866 164.18C176.854 163.797 176.835 163.42 176.43 163.222C176.049 162.456 176.565 161.887 176.903 161.325C179.741 156.597 181.83 151.462 184.643 146.722C185.03 146.074 185.264 145.295 186.118 145.072C188.888 142.18 192.378 141.538 196.168 141.865H196.162Z" fill="#D5B3A7"/>
<path d="M128.625 118.778C130.068 116.832 130.769 114.422 132.562 112.673C135.806 109.509 139.91 108.656 144.235 110.43C145.316 112.302 144.923 114.156 143.977 115.88C140.045 123.055 135.941 130.13 131.899 137.243C130.756 139.251 129.153 140.71 126.745 140.994C122.573 137.311 121.658 131.91 124.3 127.108C125.805 124.365 127.187 121.559 128.625 118.778Z" fill="#D5B3A7"/>
<path d="M186.12 145.079C182.741 151.048 180.032 157.376 176.438 163.228C172.777 167.399 167.494 168.221 162.677 165.372C166.382 162.777 167.813 158.637 169.754 154.842C172.513 149.441 175.24 144.016 178.06 138.646C179.061 136.736 179.866 134.833 179.657 132.621C183.558 134.091 186.083 137.743 186.077 141.878C186.077 142.94 186.108 144.01 186.126 145.072L186.12 145.079Z" fill="#CBA292"/>
<path d="M126.744 140.994C131.824 138.726 133.127 133.479 135.731 129.302C138.391 125.032 140.658 120.521 143.244 116.201C144.356 114.341 144.209 112.401 144.24 110.423C148.626 111.276 151.679 117.975 150.831 121.349C150.666 122.004 150.684 122.708 150.623 123.388C147.754 128.418 144.848 133.43 142.04 138.497C141.481 139.511 140.806 140.407 140.13 141.327C135.025 144.423 130.688 144.312 126.744 140.994Z" fill="#CBA292"/>
<path d="M203.48 146.982C206.927 148.032 209.728 150.319 212.849 151.993C213.905 152.562 214.9 153.248 215.926 153.878C216.713 155.732 218.089 157.252 218.476 159.359C219.016 162.301 218.421 164.89 216.872 167.349C212.916 165.057 208.954 162.777 205.004 160.472C204.242 160.027 203.05 159.847 203.069 158.537C205.2 154.762 205.157 150.899 203.48 146.988V146.982Z" fill="#FEE6DB"/>
<path d="M203.068 158.537C207.227 161.009 211.38 163.487 215.539 165.959C216.11 166.299 216.847 166.478 216.872 167.35C212.756 172.411 208.363 173.344 202.638 170.347C201.096 169.537 199.578 168.678 198.049 167.844C199.72 164.742 201.397 161.646 203.068 158.544V158.537Z" fill="#FECBBE"/>
<path d="M160.784 86.3975C168.347 87.7756 175.424 85.9155 182.347 83.1038C186.727 81.3241 191.065 79.4456 195.672 78.3271C203.775 76.362 211.196 78.3827 218.285 82.2696C218.808 82.5539 219.36 82.9432 218.224 83.1656C209.212 81.8927 201.496 86.0762 193.516 89.1289C187.606 91.3906 181.69 93.708 175.203 93.3063C169.508 92.9541 164.63 90.7171 160.778 86.3914L160.784 86.3975Z" fill="#E08E6C"/>
<g filter="url(#filter0_bdii_3220_37340)">
<circle cx="144.5" cy="162.112" r="64" fill="url(#paint0_linear_3220_37340)" shape-rendering="crispEdges"/>
</g>
<path fill-rule="evenodd" clip-rule="evenodd" d="M136.5 125.112C135.302 125.112 134.166 125.649 133.407 126.576C132.647 127.503 132.343 128.722 132.578 129.897L140.578 169.897C140.952 171.766 142.593 173.112 144.5 173.112C146.407 173.112 148.048 171.766 148.422 169.897L156.422 129.897C156.657 128.722 156.353 127.503 155.593 126.576C154.834 125.649 153.698 125.112 152.5 125.112H136.5ZM144.5 148.716L141.379 133.112H147.621L144.5 148.716ZM144.5 183.112C140.082 183.112 136.5 186.694 136.5 191.112C136.5 195.53 140.082 199.112 144.5 199.112C148.918 199.112 152.5 195.53 152.5 191.112C152.5 186.694 148.918 183.112 144.5 183.112Z" fill="#FFDD33"/>
<defs>
<filter id="filter0_bdii_3220_37340" x="0.5" y="58.1122" width="248" height="248" filterUnits="userSpaceOnUse" color-interpolation-filters="sRGB">
<feFlood flood-opacity="0" result="BackgroundImageFix"/>
<feGaussianBlur in="BackgroundImageFix" stdDeviation="6"/>
<feComposite in2="SourceAlpha" operator="in" result="effect1_backgroundBlur_3220_37340"/>
<feColorMatrix in="SourceAlpha" type="matrix" values="0 0 0 0 0 0 0 0 0 0 0 0 0 0 0 0 0 0 127 0" result="hardAlpha"/>
<feOffset dx="-20" dy="20"/>
<feGaussianBlur stdDeviation="30"/>
<feComposite in2="hardAlpha" operator="out"/>
<feColorMatrix type="matrix" values="0 0 0 0 0.164706 0 0 0 0 0.313726 0 0 0 0 0.47451 0 0 0 0.12 0"/>
<feBlend mode="normal" in2="effect1_backgroundBlur_3220_37340" result="effect2_dropShadow_3220_37340"/>
<feBlend mode="normal" in="SourceGraphic" in2="effect2_dropShadow_3220_37340" result="shape"/>
<feColorMatrix in="SourceAlpha" type="matrix" values="0 0 0 0 0 0 0 0 0 0 0 0 0 0 0 0 0 0 127 0" result="hardAlpha"/>
<feOffset dx="2" dy="2"/>
<feGaussianBlur stdDeviation="1"/>
<feComposite in2="hardAlpha" operator="arithmetic" k2="-1" k3="1"/>
<feColorMatrix type="matrix" values="0 0 0 0 1 0 0 0 0 1 0 0 0 0 1 0 0 0 0.9 0"/>
<feBlend mode="normal" in2="shape" result="effect3_innerShadow_3220_37340"/>
<feColorMatrix in="SourceAlpha" type="matrix" values="0 0 0 0 0 0 0 0 0 0 0 0 0 0 0 0 0 0 127 0" result="hardAlpha"/>
<feOffset dx="-2" dy="-2"/>
<feGaussianBlur stdDeviation="1"/>
<feComposite in2="hardAlpha" operator="arithmetic" k2="-1" k3="1"/>
<feColorMatrix type="matrix" values="0 0 0 0 0 0 0 0 0 0 0 0 0 0 0 0 0 0 0.05 0"/>
<feBlend mode="normal" in2="effect3_innerShadow_3220_37340" result="effect4_innerShadow_3220_37340"/>
</filter>
<linearGradient id="paint0_linear_3220_37340" x1="75.0763" y1="95.7849" x2="219.004" y2="195.484" gradientUnits="userSpaceOnUse">
<stop stop-color="white" stop-opacity="0.7"/>
<stop offset="1" stop-color="white" stop-opacity="0.2"/>
</linearGradient>
</defs>
</svg>
