<svg width="24" height="24" viewBox="0 0 24 24" fill="none" xmlns="http://www.w3.org/2000/svg">
<path d="M6 13C6 9.68629 8.68629 7 12 7C15.3137 7 18 9.68629 18 13V19H6V13Z" fill="#FF6D90"/>
<path d="M3 20C3 18.3431 4.34315 17 6 17H18C19.6569 17 21 18.3431 21 20V22H3V20Z" fill="#1C88F4"/>
<line x1="12" y1="13" x2="12" y2="17" stroke="#FFDD33" stroke-width="2"/>
<path fill-rule="evenodd" clip-rule="evenodd" d="M10.9991 2V5H12.9991V2H10.9991ZM4.87883 4.70711L7.00015 6.82843L8.41436 5.41421L6.29304 3.29289L4.87883 4.70711ZM5 10.0605H2V8.06055H5V10.0605ZM19 8.21875L22 8.21875V10.2188H19V8.21875ZM15.5859 5.41421L17.7072 3.29289L19.1214 4.70711L17.0001 6.82843L15.5859 5.41421Z" fill="#FFDD33"/>
</svg>
