<svg width="37" height="36" viewBox="0 0 37 36" fill="none" xmlns="http://www.w3.org/2000/svg">
<g filter="url(#filter0_d_1812_18203)">
<path d="M29.4974 9.81804L31.4031 22.5027C31.6093 23.8746 31.4139 25.2817 30.8438 26.5323C29.7751 28.8773 27.5352 30.3679 25.081 30.3679H11.9274C9.47318 30.3679 7.23329 28.8787 6.16455 26.5323C5.59447 25.2817 5.39905 23.8746 5.60525 22.5027L7.51091 9.8167C7.90714 7.18193 9.8721 5.12802 12.3586 4.74662C16.426 4.12397 20.5581 4.12397 24.6255 4.74392L24.6484 4.74796C27.1363 5.12802 29.1026 7.18327 29.4988 9.81804H29.4974Z" fill="#313131"/>
<path d="M31.4029 22.5027L29.4973 9.81806C29.101 7.18328 27.1361 5.12803 24.6469 4.74798L24.624 4.74393C22.0889 4.35714 19.5296 4.21159 16.9771 4.30727C18.5161 4.36523 20.0512 4.51078 21.5795 4.74393L21.6024 4.74798C24.0903 5.12803 26.0566 7.18328 26.4528 9.81806L28.3585 22.5027C28.5647 23.8747 28.3692 25.2817 27.7992 26.5323C26.7304 28.8774 24.4905 30.3679 22.0363 30.3679H25.0808C27.535 30.3679 29.7749 28.8787 30.8436 26.5323C31.4137 25.2817 31.6091 23.8747 31.4029 22.5027Z" fill="#272727"/>
<path d="M28.9515 14.5592C28.903 14.5592 28.8545 14.5606 28.8073 14.5633C27.9798 9.6172 23.6806 5.84766 18.5 5.84766C13.3194 5.84766 9.02022 9.6172 8.19272 14.5633C8.14421 14.5619 8.09704 14.5592 8.04852 14.5592C6.08895 14.5592 4.5 16.1482 4.5 18.1078C4.5 20.0673 6.08895 21.6563 8.04852 21.6563C8.09704 21.6563 8.14555 21.6549 8.19272 21.6522C9.02022 26.5983 13.3194 30.3665 18.5 30.3665C23.6806 30.3665 27.9798 26.597 28.8073 21.6509C28.8558 21.6522 28.903 21.6549 28.9515 21.6549C30.9111 21.6549 32.5 20.066 32.5 18.1064C32.5 16.1468 30.9111 14.5579 28.9515 14.5579V14.5592Z" fill="#FFCEBF"/>
<path d="M28.9517 14.5592C28.9032 14.5592 28.8547 14.5606 28.8075 14.5633C27.98 9.6172 23.6808 5.84766 18.5002 5.84766C18.0986 5.84766 17.7024 5.87326 17.3115 5.91774C21.9476 6.44334 25.6646 9.99995 26.4288 14.5592C26.4503 14.5592 26.4719 14.5592 26.4948 14.5606C26.5218 14.5606 26.5474 14.5592 26.5743 14.5592C28.5339 14.5592 30.1228 16.1482 30.1228 18.1078C30.1228 20.0673 28.5339 21.6563 26.5743 21.6563C26.5474 21.6563 26.5218 21.6563 26.4948 21.6549C26.4732 21.6549 26.4517 21.6563 26.4288 21.6563C25.6646 26.2156 21.9476 29.7722 17.3115 30.2978C17.7024 30.3423 18.0972 30.3679 18.5002 30.3679C23.6808 30.3679 27.98 26.5983 28.8075 21.6522C28.856 21.6536 28.9032 21.6563 28.9517 21.6563C30.9113 21.6563 32.5002 20.0673 32.5002 18.1078C32.5002 16.1482 30.9113 14.5592 28.9517 14.5592Z" fill="#FFB09E"/>
<path d="M23.6008 20.5C23.2302 20.5 22.9297 20.1995 22.9297 19.8288V17.9043C22.9297 17.5337 23.2302 17.2332 23.6008 17.2332H24.4283C24.799 17.2332 25.0995 17.5337 25.0995 17.9043C25.0995 18.2749 24.799 18.5755 24.4283 18.5755H24.272V19.8288C24.272 20.1995 23.9715 20.5 23.6008 20.5Z" fill="#222222"/>
<path d="M13.399 20.5C13.0284 20.5 12.7279 20.1995 12.7279 19.8288V18.5755H12.5715C12.2009 18.5755 11.9004 18.2749 11.9004 17.9043C11.9004 17.5337 12.2009 17.2332 12.5715 17.2332H13.399C13.7697 17.2332 14.0702 17.5337 14.0702 17.9043V19.8288C14.0702 20.1995 13.7697 20.5 13.399 20.5Z" fill="#222222"/>
<path d="M6.18359 14.5633H19.91C23.6229 14.5633 26.6324 11.5539 26.6324 7.84097C26.6324 4.41106 23.8534 1.63208 20.4248 1.63208H14.8399C10.0583 1.63208 6.18359 5.50809 6.18359 10.2884V14.5633Z" fill="#505050"/>
<path d="M20.4245 1.63208H17.3801C20.8086 1.63208 23.5876 4.41106 23.5876 7.83963C23.5876 11.5526 20.5782 14.562 16.8652 14.562H19.9097C23.6226 14.562 26.6321 11.5526 26.6321 7.83963C26.6321 4.41106 23.8531 1.63208 20.4245 1.63208Z" fill="#313131"/>
<path d="M18.4189 26.302C16.8825 26.302 15.6318 25.0513 15.6318 23.5149C15.6318 22.9395 16.0981 22.4731 16.6736 22.4731C17.2491 22.4731 17.7154 22.9395 17.7154 23.5149C17.7154 23.9031 18.0308 24.2184 18.4189 24.2184C18.807 24.2184 19.1224 23.9031 19.1224 23.5149C19.1224 22.9395 19.5887 22.4731 20.1642 22.4731C20.7397 22.4731 21.206 22.9395 21.206 23.5149C21.206 25.0513 19.9566 26.302 18.4202 26.302H18.4189Z" fill="#FFB09E"/>
</g>
<defs>
<filter id="filter0_d_1812_18203" x="-1.5" y="0" width="40" height="40" filterUnits="userSpaceOnUse" color-interpolation-filters="sRGB">
<feFlood flood-opacity="0" result="BackgroundImageFix"/>
<feColorMatrix in="SourceAlpha" type="matrix" values="0 0 0 0 0 0 0 0 0 0 0 0 0 0 0 0 0 0 127 0" result="hardAlpha"/>
<feOffset dy="2"/>
<feGaussianBlur stdDeviation="1"/>
<feColorMatrix type="matrix" values="0 0 0 0 0 0 0 0 0 0 0 0 0 0 0 0 0 0 0.2 0"/>
<feBlend mode="normal" in2="BackgroundImageFix" result="effect1_dropShadow_1812_18203"/>
<feBlend mode="normal" in="SourceGraphic" in2="effect1_dropShadow_1812_18203" result="shape"/>
</filter>
</defs>
</svg>
