<svg width="37" height="36" viewBox="0 0 37 36" fill="none" xmlns="http://www.w3.org/2000/svg">
<g filter="url(#filter0_d_1812_14726)">
<path d="M29.4974 9.81804L31.4031 22.5027C31.6093 23.8746 31.4139 25.2817 30.8438 26.5323C29.7751 28.8773 27.5352 30.3679 25.081 30.3679H11.9274C9.47318 30.3679 7.23329 28.8787 6.16455 26.5323C5.59447 25.2817 5.39905 23.8746 5.60525 22.5027L7.51091 9.8167C7.90714 7.18193 9.8721 5.12802 12.3586 4.74662C16.426 4.12397 20.5581 4.12397 24.6255 4.74392L24.6484 4.74796C27.1362 5.12802 29.1026 7.18327 29.4988 9.81804H29.4974Z" fill="#6D6D6D"/>
<path d="M31.4024 22.5027L29.4968 9.81806C29.1006 7.18328 27.1356 5.12803 24.6464 4.74798L24.6235 4.74393C22.0884 4.35714 19.5291 4.21159 16.9766 4.30727C18.5156 4.36523 20.0507 4.51078 21.579 4.74393L21.6019 4.74798C24.0898 5.12803 26.0561 7.18328 26.4523 9.81806L28.358 22.5027C28.5642 23.8747 28.3687 25.2817 27.7987 26.5323C26.7299 28.8774 24.49 30.3679 22.0359 30.3679H25.0803C27.5345 30.3679 29.7744 28.8787 30.8431 26.5323C31.4132 25.2817 31.6086 23.8747 31.4024 22.5027Z" fill="#444444"/>
<path d="M28.9515 14.5592C28.903 14.5592 28.8545 14.5606 28.8073 14.5633C27.9798 9.6172 23.6806 5.84766 18.5 5.84766C13.3194 5.84766 9.02022 9.6172 8.19272 14.5633C8.14421 14.5619 8.09704 14.5592 8.04852 14.5592C6.08895 14.5592 4.5 16.1482 4.5 18.1078C4.5 20.0673 6.08895 21.6563 8.04852 21.6563C8.09704 21.6563 8.14555 21.6549 8.19272 21.6522C9.02022 26.5983 13.3194 30.3665 18.5 30.3665C23.6806 30.3665 27.9798 26.597 28.8073 21.6509C28.8558 21.6522 28.903 21.6549 28.9515 21.6549C30.9111 21.6549 32.5 20.066 32.5 18.1064C32.5 16.1468 30.9111 14.5579 28.9515 14.5579V14.5592Z" fill="#FFCEBF"/>
<path d="M28.9507 14.5592C28.9022 14.5592 28.8537 14.5606 28.8065 14.5633C27.979 9.6172 23.6798 5.84766 18.4992 5.84766C18.0976 5.84766 17.7014 5.87326 17.3105 5.91774C21.9467 6.44334 25.6636 9.99995 26.4278 14.5592C26.4494 14.5592 26.4709 14.5592 26.4938 14.5606C26.5208 14.5606 26.5464 14.5592 26.5733 14.5592C28.5329 14.5592 30.1219 16.1482 30.1219 18.1078C30.1219 20.0673 28.5329 21.6563 26.5733 21.6563C26.5464 21.6563 26.5208 21.6563 26.4938 21.6549C26.4723 21.6549 26.4507 21.6563 26.4278 21.6563C25.6636 26.2156 21.9467 29.7722 17.3105 30.2978C17.7014 30.3423 18.0963 30.3679 18.4992 30.3679C23.6798 30.3679 27.979 26.5983 28.8065 21.6522C28.855 21.6536 28.9022 21.6563 28.9507 21.6563C30.9103 21.6563 32.4992 20.0673 32.4992 18.1078C32.4992 16.1482 30.9103 14.5592 28.9507 14.5592Z" fill="#FFB09E"/>
<path d="M23.6008 20.4998C23.2302 20.4998 22.9297 20.1992 22.9297 19.8286V17.9041C22.9297 17.5334 23.2302 17.2329 23.6008 17.2329H24.4283C24.799 17.2329 25.0995 17.5334 25.0995 17.9041C25.0995 18.2747 24.799 18.5752 24.4283 18.5752H24.272V19.8286C24.272 20.1992 23.9715 20.4998 23.6008 20.4998Z" fill="#222222"/>
<path d="M13.399 20.4998C13.0284 20.4998 12.7279 20.1992 12.7279 19.8286V18.5752H12.5715C12.2009 18.5752 11.9004 18.2747 11.9004 17.9041C11.9004 17.5334 12.2009 17.2329 12.5715 17.2329H13.399C13.7697 17.2329 14.0702 17.5334 14.0702 17.9041V19.8286C14.0702 20.1992 13.7697 20.4998 13.399 20.4998Z" fill="#222222"/>
<path d="M6.18359 14.5631H19.91C23.6229 14.5631 26.6324 11.5537 26.6324 7.84073C26.6324 4.41081 23.8534 1.63184 20.4248 1.63184H14.8399C10.0583 1.63184 6.18359 5.50785 6.18359 10.2882V14.5631Z" fill="#9E9E9E"/>
<path d="M20.4245 1.63184H17.3801C20.8086 1.63184 23.5876 4.41081 23.5876 7.83938C23.5876 11.5523 20.5782 14.5618 16.8652 14.5618H19.9097C23.6226 14.5618 26.6321 11.5523 26.6321 7.83938C26.6321 4.41081 23.8531 1.63184 20.4245 1.63184Z" fill="#6D6D6D"/>
<path d="M23.2411 26.1331C23.1171 26.1331 22.9905 26.1102 22.8665 26.063C22.3301 25.8568 22.0619 25.2531 22.2694 24.7167C22.3988 24.3824 22.0821 23.8514 22.0188 23.7679C21.6711 23.3097 21.76 22.6574 22.2182 22.3083C22.6764 21.9606 23.3287 22.0496 23.6778 22.5078C23.7923 22.6574 24.7735 24.0132 24.2142 25.4646C24.0551 25.8784 23.6603 26.1318 23.2425 26.1318L23.2411 26.1331Z" fill="#FFB09E"/>
<path d="M13.6916 26.1331C13.2738 26.1331 12.879 25.8797 12.7199 25.466C12.1606 24.0145 13.1418 22.6587 13.2563 22.5078C13.604 22.0496 14.2577 21.9606 14.7159 22.3083C15.1714 22.6547 15.2617 23.3029 14.9207 23.7611C14.7873 23.9444 14.5501 24.4188 14.6647 24.7167C14.8722 25.2531 14.604 25.8555 14.0676 26.063C13.945 26.1102 13.8183 26.1331 13.693 26.1331H13.6916Z" fill="#FFB09E"/>
<path d="M18.4199 26.3015C16.8835 26.3015 15.6328 25.0508 15.6328 23.5144C15.6328 22.939 16.0991 22.4727 16.6746 22.4727C17.2501 22.4727 17.7164 22.939 17.7164 23.5144C17.7164 23.9026 18.0317 24.2179 18.4199 24.2179C18.808 24.2179 19.1234 23.9026 19.1234 23.5144C19.1234 22.939 19.5897 22.4727 20.1652 22.4727C20.7406 22.4727 21.2069 22.939 21.2069 23.5144C21.2069 25.0508 19.9576 26.3015 18.4212 26.3015H18.4199Z" fill="#FFB09E"/>
</g>
<defs>
<filter id="filter0_d_1812_14726" x="-1.5" y="0" width="40" height="40" filterUnits="userSpaceOnUse" color-interpolation-filters="sRGB">
<feFlood flood-opacity="0" result="BackgroundImageFix"/>
<feColorMatrix in="SourceAlpha" type="matrix" values="0 0 0 0 0 0 0 0 0 0 0 0 0 0 0 0 0 0 127 0" result="hardAlpha"/>
<feOffset dy="2"/>
<feGaussianBlur stdDeviation="1"/>
<feColorMatrix type="matrix" values="0 0 0 0 0 0 0 0 0 0 0 0 0 0 0 0 0 0 0.2 0"/>
<feBlend mode="normal" in2="BackgroundImageFix" result="effect1_dropShadow_1812_14726"/>
<feBlend mode="normal" in="SourceGraphic" in2="effect1_dropShadow_1812_14726" result="shape"/>
</filter>
</defs>
</svg>
