<svg width="37" height="36" viewBox="0 0 37 36" fill="none" xmlns="http://www.w3.org/2000/svg">
<g filter="url(#filter0_d_1812_5821)">
<path d="M17.9553 24.9896C18.3391 25.6821 19.5159 26.2565 20.8266 26.5096C22.5209 25.7721 23.8916 24.4002 23.0147 22.7827C21.1072 23.5771 19.3341 24.109 17.6953 24.4371C17.7641 24.6146 17.8497 24.7983 17.9559 24.9896H17.9553Z" fill="#F87C68"/>
<path d="M20.9333 26.462C22.5783 25.7145 23.8739 24.3663 23.0152 22.7832C22.1089 23.1607 21.2333 23.4782 20.3877 23.7432C21.1258 24.3695 21.2108 25.4001 20.9333 26.462Z" fill="#EC625E"/>
<path d="M15.5918 24.7582C15.6687 25.392 16.0149 26.1589 17.0399 26.8126C17.8168 27.3089 19.5137 27.1101 20.9437 26.4576C19.6012 26.242 18.3593 25.6664 17.9705 24.9651C17.8687 24.7807 17.7862 24.6032 17.7199 24.4326C16.9837 24.5807 16.2743 24.6876 15.5924 24.7582H15.5918Z" fill="#665E68"/>
<path d="M23.1941 11.957C22.0272 12.6233 21.5422 13.4689 21.3604 14.1952C22.4791 14.652 23.3897 15.0989 23.9929 15.4152C24.5635 15.7145 25.1879 15.8858 25.8204 15.9208C27.1716 14.1764 25.6597 12.5114 23.9447 11.7383C23.6579 11.7677 23.4022 11.8389 23.1941 11.9577V11.957Z" fill="#F99A91"/>
<path d="M23.9502 15.3927C23.9646 15.4002 23.9789 15.4077 23.9927 15.4146C24.5633 15.7139 25.1877 15.8852 25.8202 15.9202C27.0758 14.2996 25.8589 12.7471 24.3046 11.9146C24.8696 12.9571 24.8977 14.1608 23.9502 15.3921V15.3927Z" fill="#F87C68"/>
<path d="M23.2139 11.9763C23.427 11.8544 23.6914 11.7838 23.9895 11.7582C22.9552 11.2813 21.8389 11.1275 21.227 11.4769C20.127 12.105 19.7777 12.93 19.6914 13.5694C20.3052 13.7788 20.8827 13.9982 21.412 14.2157C21.5783 13.495 22.0452 12.6438 23.2139 11.9763Z" fill="#7B6C79"/>
<path d="M11.8636 9.58904C11.3323 9.99967 10.6586 11.7847 10.9355 12.4853C13.2211 12.1628 15.5773 12.469 17.6848 13.009C18.6042 10.4859 15.8961 9.19029 13.3973 9.01904C13.3973 9.01904 12.3942 9.17842 11.8636 9.58904Z" fill="#F99A91"/>
<path d="M15.2486 12.5244C16.0836 12.6401 16.9011 12.8088 17.6836 13.0094C18.5348 10.6732 16.2779 9.38943 13.9561 9.07568C14.9767 9.92318 15.5411 11.0688 15.2486 12.5244Z" fill="#F87C68"/>
<path d="M9.04014 12.9126C9.66139 12.7151 10.2951 12.5757 10.9345 12.4857C10.9464 11.8245 11.1558 11.047 11.7289 10.1726C12.0326 9.70886 12.6358 9.31386 13.3964 9.01948C11.9883 8.92323 10.6464 9.18448 10.0583 9.78448C8.86452 11.0026 8.83764 12.147 9.03952 12.9132L9.04014 12.9126Z" fill="#7B6C79"/>
<path d="M2.91447 20.5351C2.73385 20.6632 2.71385 20.9251 2.8751 21.077C3.47885 21.6482 4.99697 22.9101 7.43447 23.8257L7.7176 23.7938L10.4701 24.4857L10.6732 24.6726C12.3563 24.9363 14.3032 24.9863 16.5138 24.6651L16.8363 24.432L21.287 23.2226L21.6163 23.3632C22.5326 23.0338 23.482 22.6445 24.4651 22.1863C24.8338 22.0151 25.252 21.992 25.6363 22.1176L26.057 21.9751L28.4176 22.782L28.627 23.0532C28.9307 23.1226 29.2457 23.1863 29.5682 23.2407L29.9307 23.1895C31.0738 22.7788 32.667 21.2526 32.667 18.3982C32.667 15.5438 31.1701 14.0726 31.1701 14.0726H30.5145C30.4588 14.1051 30.4032 14.1401 30.3495 14.1782C29.8701 14.5176 29.307 14.8695 28.6926 15.1682L28.442 15.5763L26.3401 16.1076L25.6326 15.8601C25.0645 15.8051 24.5063 15.6407 23.992 15.3738C23.3957 15.0645 22.4982 14.6276 21.3963 14.1807L21.0188 14.3107L16.6195 13.0095L15.957 12.5851C13.9182 12.2332 11.7413 12.1638 9.67447 12.6795L9.60135 12.9688L7.33197 13.7657L7.0101 13.7376C5.32947 14.6951 3.8176 16.2032 2.64072 18.4651C2.37885 18.9682 2.48885 19.5895 2.9176 19.9613C2.92322 19.9657 2.92822 19.9707 2.93385 19.9751C3.11135 20.1257 3.10447 20.4007 2.91447 20.5351Z" fill="#F87C68"/>
<path d="M2.91423 20.535C2.7336 20.6631 2.71423 20.925 2.87485 21.0769C3.4786 21.6481 4.99673 22.91 7.43423 23.8256L7.71735 23.7938L10.4699 24.4856L10.673 24.6725C12.3561 24.9363 14.303 24.9863 16.5136 24.665L16.8361 24.4319L21.2867 23.2225L21.6161 23.3631C22.5324 23.0338 23.4817 22.6444 24.4649 22.1863C24.8336 22.015 25.2517 21.9919 25.6361 22.1175L26.0567 21.975L28.4174 22.7819L28.6267 23.0531C28.9305 23.1225 29.2455 23.1863 29.568 23.2406L29.9305 23.1894C30.9424 22.8256 32.3067 21.5869 32.6061 19.3269C30.6461 18.7863 27.9549 18.3106 25.9699 18.9988C22.4667 20.2125 12.3717 23.29 2.91673 19.9606C2.92235 19.965 2.92735 19.97 2.93298 19.9744C3.11048 20.125 3.1036 20.4 2.9136 20.5344L2.91423 20.535Z" fill="#EC625E"/>
<path d="M29.569 23.2421C29.8809 23.2946 30.1996 23.339 30.5221 23.3708C32.1477 23.5333 33.6634 22.5071 34.1209 20.939C34.5896 19.3321 34.8121 17.1183 33.6459 14.9596C33.0321 13.824 31.6059 13.4333 30.5146 14.0733C30.8646 14.2758 31.1659 14.5746 31.374 14.9596C32.5402 17.1183 32.3177 19.3321 31.849 20.939C31.5196 22.0677 30.6415 22.9158 29.5684 23.2421H29.569Z" fill="#7B6C79"/>
<path d="M34.1209 20.9388C34.2165 20.6107 34.3015 20.2569 34.3671 19.8844C33.8315 19.6932 33.0671 19.4413 32.1871 19.2163C32.1252 19.8388 32.0002 20.4207 31.849 20.9394C31.5196 22.0688 30.6415 22.9163 29.5684 23.2426C29.8802 23.2951 30.199 23.3394 30.5215 23.3713C32.1465 23.5338 33.6627 22.5076 34.1202 20.9394L34.1209 20.9388Z" fill="#665E68"/>
<path d="M18.1508 18.9993C18.1508 21.1525 17.5358 23.1262 16.5145 24.665C18.0827 24.4368 19.7833 24.0218 21.617 23.3631C22.2008 22.0737 22.5339 20.585 22.5339 18.9993C22.5339 17.2237 22.1164 15.5693 21.397 14.1806C19.8864 13.5681 17.9908 12.9356 15.957 12.585C17.3089 14.2043 18.1508 16.4787 18.1508 18.9993Z" fill="#E4F6FF"/>
<path d="M22.4828 20.062C21.1728 20.4064 19.6446 20.7464 17.9678 21.0051C17.7146 22.3726 17.209 23.6195 16.5146 24.6651C18.0828 24.437 19.7834 24.022 21.6171 23.3633C22.0684 22.3664 22.369 21.2501 22.4828 20.062Z" fill="#D3EFFB"/>
<path d="M7.00977 13.7384C8.38664 15.0328 9.25352 16.9097 9.25352 18.9997C9.25352 20.8659 8.56289 22.5628 7.43477 23.8266C8.37664 24.1809 9.45664 24.4828 10.6741 24.6734C11.6141 23.9403 13.2041 17.3184 13.2041 17.3184C12.7304 15.2866 11.4191 13.5984 9.67414 12.6797C8.75727 12.9084 7.86164 13.2528 7.00977 13.7378V13.7384Z" fill="#E4F6FF"/>
<path d="M15.3262 21.3246C13.2943 21.5009 11.118 21.5246 8.89242 21.2871C8.58055 22.2421 8.0793 23.1046 7.43555 23.8265C8.37742 24.1809 9.45742 24.4827 10.6749 24.6734C11.6149 23.9402 12.3655 22.9577 12.8393 21.819C13.9718 22.1702 14.783 21.8959 15.3268 21.3246H15.3262Z" fill="#D3EFFB"/>
<path d="M25.6328 15.8602C25.8509 16.8364 25.9709 17.8939 25.9709 18.9996C25.9709 20.0971 25.8522 21.1477 25.6372 22.1177C25.6678 22.1277 25.6984 22.1383 25.7291 22.1502C26.3578 22.3989 27.4047 22.7739 28.6278 23.0539C28.9972 21.8377 29.2066 20.4602 29.2066 18.9996C29.2066 17.6277 29.0222 16.3289 28.6934 15.1689C28.1866 15.4152 27.6447 15.6252 27.0853 15.7608C26.6066 15.8764 26.1166 15.9077 25.6334 15.8608L25.6328 15.8602Z" fill="#E4F6FF"/>
<path d="M25.9705 18.9995C25.9705 20.097 25.8517 21.1476 25.6367 22.1176C25.6673 22.1276 25.698 22.1382 25.7286 22.1501C26.3573 22.3988 27.4042 22.7738 28.6273 23.0538C28.9967 21.8376 29.2061 20.4601 29.2061 18.9995C29.2061 18.8976 29.2048 18.7963 29.203 18.6951C28.0686 18.6057 26.9361 18.6651 25.9711 18.9995H25.9705Z" fill="#D3EFFB"/>
<path d="M6.22664 17.0693C5.65789 17.0693 5.19727 17.53 5.19727 18.0987C5.19727 18.6668 5.65789 19.1281 6.22664 19.1281C6.79477 19.1281 7.25602 18.6675 7.25602 18.0987C7.25602 17.5306 6.79539 17.0693 6.22664 17.0693Z" fill="#7B6C79"/>
<path d="M5.71094 18.9893C5.86219 19.0768 6.03781 19.1281 6.22531 19.1281C6.79344 19.1281 7.25469 18.6675 7.25469 18.0987C7.25469 17.5306 6.79406 17.0693 6.22531 17.0693C6.03781 17.0693 5.86219 17.1206 5.71094 17.2081C6.01844 17.3862 6.22531 17.7175 6.22531 18.0987C6.22531 18.4793 6.01781 18.8112 5.71094 18.9893Z" fill="#665E68"/>
<path d="M11.0478 18.6645C10.6878 19.3489 10.6985 20.1695 11.076 20.8445C11.116 20.9164 11.1728 20.9789 11.2416 21.0245C11.7572 21.3658 12.2266 21.6033 12.6528 21.7564L13.2228 21.6077C13.7703 21.2858 14.1347 20.4164 14.4397 19.3902C14.7447 18.3639 14.1647 17.092 14.1647 17.092H13.746C12.6822 17.4908 11.5928 18.1895 11.2478 18.4189C11.1753 18.4677 11.116 18.5333 11.0753 18.6108L11.0472 18.6645H11.0478Z" fill="#F99A91"/>
<path d="M10.9107 19.0501C10.9044 19.0458 10.8988 19.0408 10.8925 19.0364C10.7032 19.6326 10.7644 20.2876 11.075 20.8439C11.115 20.9158 11.1719 20.9783 11.2407 21.0239C11.7563 21.3651 12.2257 21.6026 12.6519 21.7558L13.2219 21.607C13.6344 21.3645 13.9432 20.8108 14.2007 20.1139C13.7232 20.1808 13.1675 20.1201 12.5257 19.8889C12.5257 19.8889 12.5263 19.8889 12.5269 19.8889C12.0382 19.7133 11.5007 19.4408 10.91 19.0501H10.9107Z" fill="#F87C68"/>
<path d="M13.9742 17.4932C14.3648 18.7664 14.0673 21.0451 12.6523 21.7564C15.8442 22.9045 16.6098 19.2457 16.0717 17.4932C15.7973 16.5995 14.7842 16.7032 13.7473 17.0926C13.8455 17.1945 13.9236 17.3264 13.9748 17.4932H13.9742Z" fill="#7B6C79"/>
<path d="M12.6514 21.7565C15.352 22.7277 16.3157 20.2571 16.222 18.4121C15.8101 19.3684 15.0645 20.1084 13.9026 20.139C13.6751 20.8346 13.2701 21.4452 12.6514 21.7565Z" fill="#665E68"/>
</g>
<defs>
<filter id="filter0_d_1812_5821" x="-1.5" y="0" width="40" height="40" filterUnits="userSpaceOnUse" color-interpolation-filters="sRGB">
<feFlood flood-opacity="0" result="BackgroundImageFix"/>
<feColorMatrix in="SourceAlpha" type="matrix" values="0 0 0 0 0 0 0 0 0 0 0 0 0 0 0 0 0 0 127 0" result="hardAlpha"/>
<feOffset dy="2"/>
<feGaussianBlur stdDeviation="1"/>
<feColorMatrix type="matrix" values="0 0 0 0 0 0 0 0 0 0 0 0 0 0 0 0 0 0 0.2 0"/>
<feBlend mode="normal" in2="BackgroundImageFix" result="effect1_dropShadow_1812_5821"/>
<feBlend mode="normal" in="SourceGraphic" in2="effect1_dropShadow_1812_5821" result="shape"/>
</filter>
</defs>
</svg>
