<svg width="25" height="24" viewBox="0 0 25 24" fill="none" xmlns="http://www.w3.org/2000/svg">
<path d="M18.9619 7.14081C18.1676 6.34653 17.0694 5.85449 15.8551 5.85449C14.6426 5.85449 13.5443 6.34653 12.7482 7.14081C11.954 6.34653 10.8557 5.85449 9.64316 5.85449C8.43065 5.85449 7.33236 6.34653 6.53632 7.14081C5.74203 7.93685 5.25 9.03514 5.25 10.2477C5.25 12.4319 6.13566 14.4089 7.56607 15.8393C8.90687 17.1801 10.7291 18.0429 12.75 18.1448C14.7709 18.0429 16.5914 17.1801 17.9339 15.8393C19.3643 14.4089 20.25 12.4319 20.25 10.2477C20.25 9.03514 19.758 7.93685 18.9637 7.14081H18.9619Z" fill="white"/>
</svg>
