<svg width="20" height="20" viewBox="0 0 20 20" fill="none" xmlns="http://www.w3.org/2000/svg">
<path d="M5.2 5.2002V17.3602C5.2 17.7138 4.9136 18.0002 4.56 18.0002H2.64C2.2864 18.0002 2 17.7138 2 17.3602V8.4002C2 6.6322 3.432 5.2002 5.2 5.2002Z" fill="#00C29D"/>
<path d="M14.8003 5.2002C16.5683 5.2002 18.0003 6.6322 18.0003 8.4002V17.3602C18.0003 17.7138 17.7139 18.0002 17.3603 18.0002H15.4403C15.0867 18.0002 14.8003 17.7138 14.8003 17.3602V5.2002Z" fill="#00C29D"/>
<path d="M5.19971 5.2002C5.19971 3.4338 6.63331 2.0002 8.39971 2.0002L11.5997 2.0002C13.3661 2.0002 14.7997 3.4338 14.7997 5.2002L5.19971 5.2002Z" fill="#00C29D"/>
<path d="M5.19971 11.5996C5.19971 9.83321 6.63331 8.39961 8.39971 8.39961H11.5997C13.3661 8.39961 14.7997 9.83321 14.7997 11.5996H5.19971Z" fill="#00C29D"/>
</svg>
