<svg width="40" height="40" viewBox="0 0 40 40" fill="none" xmlns="http://www.w3.org/2000/svg">
<path d="M30.932 9.068C29.048 4.904 24.866 2 20 2C15.134 2 10.952 4.904 9.068 9.068C4.904 10.952 2 15.134 2 20C2 24.866 4.904 29.048 9.068 30.932C10.952 35.096 15.134 38 20 38C24.866 38 29.048 35.096 30.932 30.932C35.096 29.048 38 24.866 38 20C38 15.134 35.096 10.952 30.932 9.068Z" fill="#1C88F4"/>
<g clip-path="url(#clip0_1074_22913)">
<path d="M27.5 15.5H12.5C12.5 14.67 13.17 14 14 14H26C26.83 14 27.5 14.67 27.5 15.5Z" fill="white"/>
<path d="M12.5 25.5H27.5C27.5 26.33 26.83 27 26 27H14C13.17 27 12.5 26.33 12.5 25.5Z" fill="white"/>
<path d="M12.5 15.5V25.5C11.67 25.5 11 24.83 11 24V17C11 16.17 11.67 15.5 12.5 15.5Z" fill="white"/>
<path d="M27.5 15.5V25.5C28.33 25.5 29 24.83 29 24V17C29 16.17 28.33 15.5 27.5 15.5Z" fill="white"/>
<path d="M17.75 12.5V15.5C16.92 15.5 16.25 14.83 16.25 14C16.25 13.17 16.92 12.5 17.75 12.5Z" fill="white"/>
<path d="M22.25 12.5V15.5C23.08 15.5 23.75 14.83 23.75 14C23.75 13.17 23.08 12.5 22.25 12.5Z" fill="white"/>
<path d="M22.25 12.5H17.75C17.75 11.67 18.42 11 19.25 11H20.75C21.58 11 22.25 11.67 22.25 12.5Z" fill="white"/>
<path d="M18.5 20H21.5C21.5 20.83 20.83 21.5 20 21.5C19.17 21.5 18.5 20.83 18.5 20Z" fill="white"/>
<path d="M20.5 21V18C21.33 18 22 18.67 22 19.5C22 20.33 21.33 21 20.5 21Z" fill="white"/>
<path d="M19.5 18V21C18.67 21 18 20.33 18 19.5C18 18.67 18.67 18 19.5 18Z" fill="white"/>
<path d="M27.5 19.5H12.5C12.5 18.67 13.17 18 14 18H26C26.83 18 27.5 18.67 27.5 19.5Z" fill="white"/>
</g>
<defs>
<clipPath id="clip0_1074_22913">
<rect width="18" height="16" fill="white" transform="translate(11 11)"/>
</clipPath>
</defs>
</svg>
