<svg width="24" height="24" viewBox="0 0 24 24" fill="none" xmlns="http://www.w3.org/2000/svg">
<path fill-rule="evenodd" clip-rule="evenodd" d="M4 3H3V4L3 16C3 18.7614 5.23858 21 8 21L16 21C18.7614 21 21 18.7614 21 16L21 8C21 5.23858 18.7614 3 16 3L4 3ZM5 16L5 5L16 5C17.6569 5 19 6.34315 19 8V16C19 17.6569 17.6569 19 16 19L8 19C6.34315 19 5 17.6569 5 16ZM13 7C13 6.44772 12.5523 6 12 6C11.4477 6 11 6.44772 11 7V10.2676C10.4022 10.6134 10 11.2597 10 12C10 13.1046 10.8954 14 12 14C12.7403 14 13.3866 13.5978 13.7324 13H16C16.5523 13 17 12.5523 17 12C17 11.4477 16.5523 11 16 11L13.7324 11C13.5568 10.6964 13.3036 10.4432 13 10.2676L13 7Z" fill="#222222"/>
</svg>
