<svg width="24" height="24" viewBox="0 0 24 24" fill="none" xmlns="http://www.w3.org/2000/svg">
<path fill-rule="evenodd" clip-rule="evenodd" d="M9.99979 1.99997H9.2289L9.03271 2.74548L8.2888 5.57235L5.46871 4.80316L4.72499 4.60031L4.33955 5.26792L2.33955 8.73202L1.9541 9.39963L2.50164 9.94228L4.57782 12L2.50164 14.0576L1.95411 14.6003L2.33955 15.2679L4.33955 18.732L4.725 19.3996L5.46872 19.1968L8.28881 18.4276L9.03271 21.2544L9.22889 21.9999H9.99978H13.9998H14.7707L14.9669 21.2544L15.7108 18.4276L18.5309 19.1967L19.2746 19.3996L19.66 18.732L21.66 15.2679L22.0455 14.6003L21.4979 14.0576L19.4218 11.9999L21.4979 9.94227L22.0455 9.39961L21.66 8.73201L19.66 5.2679L19.2746 4.6003L18.5309 4.80315L15.7108 5.57233L14.9669 2.74548L14.7707 1.99997H13.9998H9.99979ZM6.49026 11.0795L6.00281 10.5877L5.9984 10.592L4.45704 9.06441L5.68615 6.93553L7.77979 7.50657L7.77822 7.51255L8.44609 7.68831L8.73333 7.76665L9.69809 8.02979L9.70114 8.01858L9.71237 8.02154L9.96686 7.05446L10.0424 6.76728L10.2244 6.10027L10.2184 6.09865L10.7707 3.99997H13.2289L13.7812 6.09863L13.7752 6.10026L13.9574 6.76838L14.0327 7.05446L14.2872 8.02154L14.2984 8.01859L14.3015 8.02978L15.2662 7.76664L15.5517 7.68878L16.2214 7.51255L16.2198 7.50656L18.3134 6.93551L19.5425 9.0644L18.0012 10.592L17.9968 10.5877L17.5102 11.0786L17.2992 11.2878L16.5889 11.9917L16.5971 11.9999L16.5889 12.0082L17.2992 12.7121L17.5094 12.9204L17.9968 13.4122L18.0012 13.4079L19.5425 14.9355L18.3134 17.0644L16.2198 16.4933L16.2214 16.4873L15.5499 16.3106L15.2662 16.2333L14.3015 15.9701L14.2984 15.9813L14.2872 15.9783L14.0327 16.9454L13.9569 17.2334L13.7752 17.8996L13.7812 17.9013L13.2289 19.9999H10.7707L10.2184 17.9013L10.2244 17.8996L10.0424 17.2325L9.96686 16.9454L9.71236 15.9783L9.70114 15.9813L9.69809 15.9701L8.73334 16.2333L8.45149 16.3101L7.77822 16.4873L7.7798 16.4933L5.68616 17.0644L4.45705 14.9355L5.9984 13.4079L6.0028 13.4122L6.4893 12.9214L6.70041 12.7121L7.41068 12.0082L7.4025 12L7.41067 11.9917L6.7004 11.2878L6.49026 11.0795Z" fill="#B1BBC0"/>
<rect width="6" height="6" rx="3" transform="matrix(-1 0 0 1 15 9)" fill="#E7E8F0"/>
</svg>
