<svg width="37" height="36" viewBox="0 0 37 36" fill="none" xmlns="http://www.w3.org/2000/svg">
<g filter="url(#filter0_d_1812_12696)">
<path d="M19.3866 4.18286H11.1719C8.63524 4.18286 6.64384 6.35832 6.86664 8.88528L8.05124 22.3255H19.3866V4.18286Z" fill="#2B1A12"/>
<path d="M28.9518 15.2275C28.9034 15.2275 28.8549 15.2288 28.8079 15.2316C27.9803 10.2856 23.682 6.51733 18.5008 6.51733C13.3195 6.51733 9.02121 10.287 8.19365 15.2316C8.14522 15.2302 8.09816 15.2275 8.04973 15.2275C6.09016 15.2275 4.50146 16.8162 4.50146 18.7757C4.50146 20.7353 6.09016 22.324 8.04973 22.324C8.09816 22.324 8.1466 22.3226 8.19365 22.3198C9.02121 27.2658 13.3195 31.0341 18.5008 31.0341C23.682 31.0341 27.9803 27.2644 28.8079 22.3198C28.8563 22.3212 28.9034 22.324 28.9518 22.324C30.9114 22.324 32.5001 20.7353 32.5001 18.7757C32.5001 16.8162 30.9114 15.2275 28.9518 15.2275Z" fill="#FFCEBF"/>
<path d="M13.3999 21.5741C12.8048 21.5741 12.3232 21.0925 12.3232 20.4975V18.5725C12.3232 17.9774 12.8048 17.4958 13.3999 17.4958C13.995 17.4958 14.4766 17.9774 14.4766 18.5725V20.4975C14.4766 21.0925 13.995 21.5741 13.3999 21.5741Z" fill="#222222"/>
<path d="M23.603 21.5741C23.008 21.5741 22.5264 21.0925 22.5264 20.4975V18.5725C22.5264 17.9774 23.008 17.4958 23.603 17.4958C24.1981 17.4958 24.6797 17.9774 24.6797 18.5725V20.4975C24.6797 21.0925 24.1981 21.5741 23.603 21.5741Z" fill="#222222"/>
<path d="M18.501 27.061C16.684 27.061 15.2046 25.5817 15.2046 23.7646C15.2046 23.1696 15.6862 22.688 16.2812 22.688C16.8763 22.688 17.3579 23.1696 17.3579 23.7646C17.3579 24.3943 17.8699 24.9077 18.501 24.9077C19.132 24.9077 19.6441 24.3957 19.6441 23.7646C19.6441 23.1696 20.1257 22.688 20.7207 22.688C21.3158 22.688 21.7974 23.1696 21.7974 23.7646C21.7974 25.5817 20.3194 27.061 18.501 27.061Z" fill="#FFB09E"/>
<path d="M28.9519 15.2275C28.9035 15.2275 28.855 15.2288 28.808 15.2316C27.9804 10.2856 23.6821 6.51733 18.5009 6.51733C18.0871 6.51733 17.6802 6.54363 17.2803 6.59068C21.9024 7.12901 25.6043 10.6814 26.3654 15.2316C26.4139 15.2302 26.4609 15.2275 26.5094 15.2275C28.4689 15.2275 30.0576 16.8162 30.0576 18.7757C30.0576 20.7353 28.4689 22.324 26.5094 22.324C26.4609 22.324 26.4125 22.3226 26.3654 22.3198C25.6043 26.8714 21.9024 30.4224 17.2803 30.9608C17.6816 31.0078 18.0885 31.0341 18.5009 31.0341C23.6807 31.0341 27.9804 27.2644 28.808 22.3198C28.8564 22.3212 28.9035 22.324 28.9519 22.324C30.9115 22.324 32.5002 20.7353 32.5002 18.7757C32.5002 16.8162 30.9115 15.2275 28.9519 15.2275Z" fill="#FFB09E"/>
<path d="M31.2266 15.2317H16.9284C12.9885 15.2317 9.7959 12.0377 9.7959 8.09922V6.1784C9.79728 3.29855 12.1305 0.965332 15.009 0.965332H24.1799C28.0728 0.965332 31.2266 4.12057 31.2266 8.01204V15.2303V15.2317Z" fill="#38231B"/>
<path d="M24.1803 0.965332H20.1104C24.0018 0.965332 27.1571 4.12057 27.1571 8.01204V15.2317H31.227V8.01204C31.227 4.12057 28.0732 0.965332 24.1803 0.965332Z" fill="#2B1A12"/>
</g>
<defs>
<filter id="filter0_d_1812_12696" x="-1.5" y="0" width="40" height="40" filterUnits="userSpaceOnUse" color-interpolation-filters="sRGB">
<feFlood flood-opacity="0" result="BackgroundImageFix"/>
<feColorMatrix in="SourceAlpha" type="matrix" values="0 0 0 0 0 0 0 0 0 0 0 0 0 0 0 0 0 0 127 0" result="hardAlpha"/>
<feOffset dy="2"/>
<feGaussianBlur stdDeviation="1"/>
<feColorMatrix type="matrix" values="0 0 0 0 0 0 0 0 0 0 0 0 0 0 0 0 0 0 0.2 0"/>
<feBlend mode="normal" in2="BackgroundImageFix" result="effect1_dropShadow_1812_12696"/>
<feBlend mode="normal" in="SourceGraphic" in2="effect1_dropShadow_1812_12696" result="shape"/>
</filter>
</defs>
</svg>
