<svg width="24" height="24" viewBox="0 0 24 24" fill="none" xmlns="http://www.w3.org/2000/svg">
<path d="M18.6261 6.81738C17.7788 5.97015 16.6073 5.44531 15.3121 5.44531C14.0187 5.44531 12.8472 5.97015 11.9981 6.81738C11.1509 5.97015 9.97938 5.44531 8.68604 5.44531C7.39269 5.44531 6.22118 5.97015 5.37207 6.81738C4.52484 7.66649 4 8.838 4 10.1313C4 12.4612 4.9447 14.57 6.47048 16.0957C7.90066 17.5259 9.84442 18.4462 12 18.555C14.1556 18.4462 16.0975 17.5259 17.5295 16.0957C19.0553 14.57 20 12.4612 20 10.1313C20 8.838 19.4752 7.66649 18.6279 6.81738H18.6261Z" fill="#00C29D"/>
</svg>
