<svg width="24" height="24" viewBox="0 0 24 24" fill="none" xmlns="http://www.w3.org/2000/svg">
<rect x="2" y="2" width="20" height="20" rx="6" fill="#F7F7F7"/>
<path fill-rule="evenodd" clip-rule="evenodd" d="M6.5 7.5H6.50012L6.5 7.50012V7.5ZM6.5 16.5C5.67 16.5 5 15.83 5 15V9C5 8.17 5.67 7.5 6.5 7.5C6.5 6.67 7.17 6 8 6H16C16.83 6 17.5 6.67 17.5 7.5H6.50012L12.0001 12.9999L17.5 7.5C18.33 7.5 19 8.17 19 9V15C19 15.83 18.33 16.5 17.5 16.5V9.62L14.12 13C13.54 13.59 12.5901 13.59 12.0001 13.0001C11.4101 13.59 10.4601 13.59 9.88012 13L6.50012 9.62L6.5 9.61988V16.5ZM6.5 16.5H17.5C17.5 17.33 16.83 18 16 18H8C7.17 18 6.5 17.33 6.5 16.5Z" fill="#B1BBC0"/>
</svg>
