<svg width="18" height="18" viewBox="0 0 18 18" fill="none" xmlns="http://www.w3.org/2000/svg">
<path fill-rule="evenodd" clip-rule="evenodd" d="M4.24751 4.24751C4.51111 3.9839 4.9385 3.9839 5.2021 4.24751L8.9998 8.04521L12.7975 4.24751C13.0611 3.9839 13.4885 3.9839 13.7521 4.24751C14.0157 4.51111 14.0157 4.9385 13.7521 5.2021L9.9544 8.9998L13.7521 12.7975C14.0157 13.0611 14.0157 13.4885 13.7521 13.7521C13.4885 14.0157 13.0611 14.0157 12.7975 13.7521L8.9998 9.9544L5.2021 13.7521C4.9385 14.0157 4.51111 14.0157 4.24751 13.7521C3.9839 13.4885 3.9839 13.0611 4.24751 12.7975L8.04521 8.9998L4.24751 5.2021C3.9839 4.9385 3.9839 4.51111 4.24751 4.24751Z" fill="#222222" fill-opacity="0.6"/>
</svg>
