<svg width="37" height="36" viewBox="0 0 37 36" fill="none" xmlns="http://www.w3.org/2000/svg">
<g filter="url(#filter0_d_1812_10654)">
<path d="M21.7064 30.9486L21.1088 30.351C20.7123 29.9545 20.1626 29.7267 19.6016 29.7267H18.5555L17.0511 23.21L16.0121 23.4504L17.4603 29.7267H14.3994V30.7925H19.6002C19.8814 30.7925 20.1556 30.9064 20.3538 31.1046L20.9514 31.7022C21.0554 31.8062 21.1918 31.8582 21.3282 31.8582C21.4645 31.8582 21.6009 31.8062 21.705 31.7022C21.9131 31.4941 21.9131 31.1566 21.705 30.9486H21.7064Z" fill="#222222"/>
<path d="M16.9096 30.9487L16.312 30.3511C15.9156 29.9546 15.3658 29.7268 14.8048 29.7268H13.6646L15.0537 26.95C15.3518 26.3525 15.3518 25.6396 15.0537 25.0421L13.8122 22.5591L12.8589 23.0357L14.1004 25.5187C14.2495 25.8168 14.2495 26.1739 14.1004 26.472L12.4737 29.7268H10.2677C9.70668 29.7268 9.15694 29.9546 8.76045 30.3511L8.1629 30.9487C7.95481 31.1567 7.95481 31.4942 8.1629 31.7023C8.37099 31.9104 8.70843 31.9104 8.91651 31.7023L9.51406 31.1047C9.71231 30.9065 9.98788 30.7926 10.2677 30.7926H14.8062C15.0874 30.7926 15.3616 30.9065 15.5598 31.1047L16.1574 31.7023C16.2614 31.8063 16.3978 31.8583 16.5342 31.8583C16.6706 31.8583 16.807 31.8063 16.911 31.7023C17.1191 31.4942 17.1191 31.1567 16.911 30.9487H16.9096Z" fill="#222222"/>
<path d="M20.0724 18.9863L19.5732 20.457L22.6116 23.5389L32.3425 28.3081C32.791 28.5302 33.3183 28.5288 33.7668 28.3053L34.0592 28.159L33.778 27.2592L20.0724 18.9863Z" fill="#844F34"/>
<path d="M34.1912 26.9933L20.4856 18.7205L19.9893 19.6653L34.0591 28.1589L34.1462 28.1153C34.5975 27.889 34.6229 27.2534 34.1912 26.9933Z" fill="#663F2E"/>
<path d="M5.39008 17.195L6.90152 19.2576C9.25094 22.4618 13.064 24.2601 17.0303 24.0323L17.3607 24.0239L14.4798 14.1482L5.38867 17.195H5.39008Z" fill="#FFAA5A"/>
<path d="M8.88379 18.2326L17.3605 24.0239L21.7163 23.9086L21.5701 23.6428L14.616 17.7109L8.88519 18.2326H8.88379Z" fill="#FF8B57"/>
<path d="M17.8746 19.0073L12.8594 19.5458L28.4336 30.1864C28.9383 30.5309 29.5921 30.5548 30.118 30.2595L29.9999 29.444L17.8732 19.0087L17.8746 19.0073Z" fill="#98DB7C"/>
<path d="M18.5892 19.0244L17.1045 19.1594L30.117 30.2583C30.1521 30.2386 30.1859 30.2175 30.221 30.195C30.6302 29.9153 30.6625 29.3219 30.2843 28.9999L18.5892 19.0244Z" fill="#77CC7D"/>
<path d="M9.7288 5.53378L7.68167 4.19527C7.44687 4.16012 7.20785 4.14185 6.96602 4.14185H6.96461C5.61204 4.14185 4.27072 5.0234 3.85736 6.4997L3.73926 7.6498V12.1518C3.73926 13.9655 4.31712 15.7315 5.3899 17.1937L13.2522 9.37496L9.7302 5.53237L9.7288 5.53378Z" fill="#1BADDE"/>
<path d="M7.68262 4.19507L13.2208 10.2394L14.018 9.53082L10.496 5.68824C9.75224 4.88119 8.75399 4.35816 7.68262 4.19507Z" fill="#008CDF"/>
<path d="M13.7135 16.8099L6.30534 15.8328L4.94434 16.1885C5.29021 17.4736 6.26175 18.3636 7.54402 18.6841L17.3199 21.1277C18.8299 21.506 20.4806 21.2191 21.8374 20.2181L22.0736 19.6992L13.7121 16.8099H13.7135Z" fill="#663F2E"/>
<path d="M8.9375 16.5062L25.3202 21.2865C25.7166 21.4018 25.9796 20.883 25.652 20.6314L21.2231 17.2443L16.0139 14.4661L8.9375 16.5062Z" fill="#844F34"/>
<path d="M16.5715 10.2102L14.8857 16.1983L23.6563 18.7319L24.5407 18.9878L24.7671 18.4057L16.5715 10.2102Z" fill="#77CC7D"/>
<path d="M25.4137 18.355L19.8207 12.762L18.2656 12.7156L24.5378 18.9877L24.9666 19.1114C25.4165 19.2422 25.7441 18.6868 25.4123 18.355H25.4137Z" fill="#52BD7E"/>
<path d="M18.8473 14.8261L16.9689 12.8886L6.92309 11.8425L6.46614 12.1364C5.43133 12.8014 4.80566 13.9473 4.80566 15.1775C4.80566 15.529 4.84925 15.8651 4.94486 16.1899C6.90763 16.6679 12.9183 17.8124 18.6603 15.6936C19.0175 15.5614 19.1117 15.1002 18.8473 14.8261Z" fill="#98DB7C"/>
<path d="M2.63752 7.41649L3.68639 6.45198C3.94088 6.21718 4.35424 6.36902 4.39642 6.71349L4.57639 8.17151C4.61575 8.49348 4.29659 8.73953 3.99571 8.61861L2.76687 8.12511C2.47724 8.00841 2.40694 7.62879 2.63752 7.41649Z" fill="#C9C5C9"/>
<path d="M16.4509 10.1568L14.242 8.6875C12.9724 8.50613 11.6761 8.78733 10.5963 9.48189L6.92383 11.8426C9.06375 12.7255 14.5485 14.6489 18.7651 13.2106L18.512 12.2194L16.4494 10.1568H16.4509Z" fill="#B8EB7C"/>
<path d="M14.2412 8.68726L18.7657 13.2103C19.1299 13.0866 19.4799 12.939 19.823 12.7618L17.2585 10.1973C16.443 9.38182 15.3843 8.85176 14.2412 8.68726Z" fill="#98DB7C"/>
<path d="M6.75879 8.34701V7.2672C6.75879 6.83697 7.10748 6.48828 7.53771 6.48828C7.96794 6.48828 8.31663 6.83697 8.31663 7.2672V8.34701C8.31663 8.77724 7.96794 9.12593 7.53771 9.12593C7.10748 9.12593 6.75879 8.77724 6.75879 8.34701Z" fill="#222222"/>
</g>
<defs>
<filter id="filter0_d_1812_10654" x="-1.5" y="0" width="40" height="40" filterUnits="userSpaceOnUse" color-interpolation-filters="sRGB">
<feFlood flood-opacity="0" result="BackgroundImageFix"/>
<feColorMatrix in="SourceAlpha" type="matrix" values="0 0 0 0 0 0 0 0 0 0 0 0 0 0 0 0 0 0 127 0" result="hardAlpha"/>
<feOffset dy="2"/>
<feGaussianBlur stdDeviation="1"/>
<feColorMatrix type="matrix" values="0 0 0 0 0 0 0 0 0 0 0 0 0 0 0 0 0 0 0.2 0"/>
<feBlend mode="normal" in2="BackgroundImageFix" result="effect1_dropShadow_1812_10654"/>
<feBlend mode="normal" in="SourceGraphic" in2="effect1_dropShadow_1812_10654" result="shape"/>
</filter>
</defs>
</svg>
