<svg width="40" height="40" viewBox="0 0 40 40" fill="none" xmlns="http://www.w3.org/2000/svg">
<path d="M30.932 9.068C29.048 4.904 24.866 2 20 2C15.134 2 10.952 4.904 9.068 9.068C4.904 10.952 2 15.134 2 20C2 24.866 4.904 29.048 9.068 30.932C10.952 35.096 15.134 38 20 38C24.866 38 29.048 35.096 30.932 30.932C35.096 29.048 38 24.866 38 20C38 15.134 35.096 10.952 30.932 9.068Z" fill="#FFDD33"/>
<g clip-path="url(#clip0_1074_22915)">
<path d="M22 25.1299H26C26 25.9599 25.33 26.6299 24.5 26.6299H23.5C22.67 26.6299 22 25.9599 22 25.1299Z" fill="white"/>
<path d="M12.5 23.6299H27.5C27.5 24.4599 26.83 25.1299 26 25.1299H14C13.17 25.1299 12.5 24.4599 12.5 23.6299Z" fill="white"/>
<path d="M14 25.1299H18C18 25.9599 17.33 26.6299 16.5 26.6299H15.5C14.67 26.6299 14 25.9599 14 25.1299Z" fill="white"/>
<path d="M23 12.8701H17C17 12.0401 17.67 11.3701 18.5 11.3701H21.5C22.33 11.3701 23 12.0401 23 12.8701Z" fill="white"/>
<path d="M12.5 17.6299V23.6299C11.67 23.6299 11 22.9599 11 22.1299V19.1299C11 18.2999 11.67 17.6299 12.5 17.6299Z" fill="white"/>
<path d="M27.5 17.6299V23.6299C28.33 23.6299 29 22.9599 29 22.1299V19.1299C29 18.2999 28.33 17.6299 27.5 17.6299Z" fill="white"/>
<path d="M27.5 17.6299H12.5C12.5 16.7999 13.17 16.1299 14 16.1299H26C26.83 16.1299 27.5 16.7999 27.5 17.6299Z" fill="white"/>
<path d="M12.5 19.1299H15.5C15.5 19.9599 14.83 20.6299 14 20.6299C13.17 20.6299 12.5 19.9599 12.5 19.1299Z" fill="white"/>
<path d="M24.5 19.1299H27.5C27.5 19.9599 26.83 20.6299 26 20.6299C25.17 20.6299 24.5 19.9599 24.5 19.1299Z" fill="white"/>
<path d="M15.5 22.1299H24.5C24.5 21.2999 23.83 20.6299 23 20.6299H17C16.17 20.6299 15.5 21.2999 15.5 22.1299Z" fill="white"/>
<path d="M17.0001 12.8698L14.2501 17.6298C13.5301 17.2198 13.2901 16.2998 13.7001 15.5798L14.9501 13.4098C15.3601 12.6898 16.2801 12.4498 17.0001 12.8598V12.8698Z" fill="white"/>
<path d="M23 12.8698L25.75 17.6298C26.47 17.2198 26.71 16.2998 26.3 15.5798L25.05 13.4098C24.64 12.6898 23.72 12.4498 23 12.8598V12.8698Z" fill="white"/>
</g>
<defs>
<clipPath id="clip0_1074_22915">
<rect width="18" height="15.26" fill="white" transform="translate(11 11.3701)"/>
</clipPath>
</defs>
</svg>
