<svg width="40" height="40" viewBox="0 0 40 40" fill="none" xmlns="http://www.w3.org/2000/svg">
<path d="M30.932 9.068C29.048 4.904 24.866 2 20 2C15.134 2 10.952 4.904 9.068 9.068C4.904 10.952 2 15.134 2 20C2 24.866 4.904 29.048 9.068 30.932C10.952 35.096 15.134 38 20 38C24.866 38 29.048 35.096 30.932 30.932C35.096 29.048 38 24.866 38 20C38 15.134 35.096 10.952 30.932 9.068Z" fill="#1C88F4"/>
<g clip-path="url(#clip0_1908_28983)">
<path d="M26.5 14.5H13.5C13.5 13.67 14.17 13 15 13H25C25.83 13 26.5 13.67 26.5 14.5Z" fill="white"/>
<path d="M13.5 27.5H26.5C26.5 28.33 25.83 29 25 29H15C14.17 29 13.5 28.33 13.5 27.5Z" fill="white"/>
<path d="M13.5 14.5V27.5C12.67 27.5 12 26.83 12 26V16C12 15.17 12.67 14.5 13.5 14.5Z" fill="white"/>
<path d="M26.5 14.5V27.5C27.33 27.5 28 26.83 28 26V16C28 15.17 27.33 14.5 26.5 14.5Z" fill="white"/>
<path d="M21.5 11.5H18.5C18.5 10.67 19.17 10 20 10C20.83 10 21.5 10.67 21.5 11.5Z" fill="white"/>
<path d="M21.5 15.5H18.5C18.5 16.33 19.17 17 20 17C20.83 17 21.5 16.33 21.5 15.5Z" fill="white"/>
<path d="M19.5 16.5V10.5C18.67 10.5 18 11.17 18 12V15C18 15.83 18.67 16.5 19.5 16.5Z" fill="white"/>
<path d="M20.5 16.5V10.5C21.33 10.5 22 11.17 22 12V15C22 15.83 21.33 16.5 20.5 16.5Z" fill="white"/>
<path d="M20 23.75C18.9 23.75 18 22.85 18 21.75V18.75H20.5C21.33 18.75 22 19.42 22 20.25V21.75C22 22.85 21.1 23.75 20 23.75ZM19.5 20.25V21.75C19.5 22.03 19.72 22.25 20 22.25C20.28 22.25 20.5 22.03 20.5 21.75V20.25H19.5Z" fill="white"/>
<path d="M23.25 29H16.75V25.5C16.75 23.71 18.21 22.25 20 22.25C21.79 22.25 23.25 23.71 23.25 25.5V29ZM18.25 27.5H21.75V25.5C21.75 24.54 20.97 23.75 20 23.75C19.03 23.75 18.25 24.54 18.25 25.5V27.5Z" fill="white"/>
</g>
<defs>
<clipPath id="clip0_1908_28983">
<rect width="16" height="19" fill="white" transform="translate(12 10)"/>
</clipPath>
</defs>
</svg>
