<svg width="18" height="19" viewBox="0 0 18 19" fill="none" xmlns="http://www.w3.org/2000/svg">
<path d="M12.4635 0.5C12.5054 0.5 12.5473 0.5 12.5916 0.5C12.6943 1.7694 12.2098 2.71789 11.621 3.40476C11.0432 4.08688 10.252 4.74845 8.97231 4.64807C8.88694 3.39685 9.37225 2.51871 9.96032 1.83342C10.5057 1.19477 11.5056 0.626466 12.4635 0.5Z" fill="white"/>
<path d="M16.3373 13.7125C16.3373 13.7251 16.3373 13.7362 16.3373 13.7481C15.9777 14.8372 15.4647 15.7707 14.8387 16.637C14.2673 17.4235 13.567 18.4818 12.3165 18.4818C11.236 18.4818 10.5183 17.7871 9.41098 17.7681C8.2396 17.7491 7.59541 18.349 6.52441 18.5C6.40189 18.5 6.27938 18.5 6.15924 18.5C5.37278 18.3862 4.73808 17.7633 4.27569 17.2021C2.91224 15.5439 1.85862 13.4019 1.6626 10.6607C1.6626 10.392 1.6626 10.124 1.6626 9.85529C1.74559 7.89349 2.69882 6.29845 3.96585 5.52542C4.63454 5.11441 5.55378 4.76426 6.57736 4.92076C7.01604 4.98874 7.4642 5.13891 7.85704 5.28751C8.22932 5.43058 8.69487 5.6843 9.13592 5.67086C9.4347 5.66217 9.73189 5.50645 10.033 5.39659C10.9151 5.07805 11.7798 4.71288 12.9196 4.8844C14.2894 5.09149 15.2616 5.70011 15.8623 6.63911C14.7036 7.37656 13.7875 8.48788 13.944 10.3857C14.0831 12.1095 15.0853 13.1181 16.3373 13.7125Z" fill="white"/>
</svg>
