<svg width="37" height="36" viewBox="0 0 37 36" fill="none" xmlns="http://www.w3.org/2000/svg">
<g filter="url(#filter0_d_1812_7014)">
<path d="M30.5551 29.8531C31.804 28.3757 32.3966 26.3149 32.1627 24.2648L31.3828 17.4263C30.5405 10.039 25.5394 3.78898 18.5175 1.34692L11.3282 3.84745C8.71205 4.75757 6.80012 7.35907 6.44271 10.4947L4.87092 24.2648C4.63708 26.3149 5.22965 28.3757 6.47859 29.8531C7.57207 31.1472 9.06813 31.8753 10.6306 31.8753H26.4017C27.9642 31.8753 29.4616 31.1459 30.5537 29.8531H30.5551Z" fill="#2B1A12"/>
<path d="M32.1625 24.2648L31.3826 17.4263C30.5402 10.039 25.5392 3.78899 18.5172 1.34692L16.1895 2.15607C22.1657 5.00337 26.3244 10.7498 27.0857 17.4249L27.8656 24.2635C28.0995 26.3136 27.5069 28.3744 26.258 29.8518C25.1645 31.1459 23.6684 31.874 22.1059 31.874H26.4041C27.9666 31.874 29.464 31.1446 30.5562 29.8518C31.8051 28.3744 32.3977 26.3136 32.1638 24.2635L32.1625 24.2648Z" fill="#18110E"/>
<path d="M28.9512 13.0522C28.9033 13.0522 28.8542 13.0535 28.8064 13.0562C27.9786 8.11094 23.6804 4.34155 18.5 4.34155C13.3196 4.34155 9.02007 8.10961 8.19365 13.0562C8.14582 13.0535 8.09799 13.0522 8.04883 13.0522C6.08907 13.0522 4.5 14.6413 4.5 16.601C4.5 18.5608 6.08907 20.1498 8.04883 20.1498C8.09666 20.1498 8.14582 20.1485 8.19365 20.1459C9.0214 25.0911 13.3196 28.8605 18.5 28.8605C23.6804 28.8605 27.9799 25.0911 28.8064 20.1459C28.8542 20.1485 28.902 20.1498 28.9512 20.1498C30.9109 20.1498 32.5 18.5608 32.5 16.601C32.5 14.6413 30.9109 13.0522 28.9512 13.0522Z" fill="#FFCEBF"/>
<path d="M23.602 19.3555C23.0307 19.3555 22.5684 18.8932 22.5684 18.3218V16.3979C22.5684 15.8266 23.0307 15.3643 23.602 15.3643H24.4298C25.0011 15.3643 25.4635 15.8266 25.4635 16.3979C25.4635 16.8989 25.1087 17.316 24.6357 17.4117V18.3232C24.6357 18.8945 24.1734 19.3569 23.602 19.3569V19.3555Z" fill="#222222"/>
<path d="M13.3995 19.3554C12.8282 19.3554 12.3658 18.893 12.3658 18.3217V17.4102C11.8942 17.3146 11.5381 16.8974 11.5381 16.3965C11.5381 15.8252 12.0005 15.3628 12.5718 15.3628H13.3995C13.9708 15.3628 14.4332 15.8252 14.4332 16.3965V18.3204C14.4332 18.8917 13.9708 19.3541 13.3995 19.3541V19.3554Z" fill="#222222"/>
<path d="M18.5 24.8427C16.7063 24.8427 15.2461 23.3839 15.2461 21.5889C15.2461 21.0175 15.7085 20.5552 16.2798 20.5552C16.8511 20.5552 17.3135 21.0175 17.3135 21.5889C17.3135 22.2426 17.8449 22.774 18.4986 22.774C19.1523 22.774 19.6838 22.2426 19.6838 21.5889C19.6838 21.0175 20.1462 20.5552 20.7175 20.5552C21.2888 20.5552 21.7512 21.0175 21.7512 21.5889C21.7512 23.3825 20.2923 24.8427 18.4973 24.8427H18.5Z" fill="#FFB09E"/>
<path d="M28.9512 13.0522C28.9033 13.0522 28.8542 13.0535 28.8063 13.0562C27.9786 8.11094 23.6804 4.34155 18.5 4.34155C18.1041 4.34155 17.7134 4.3668 17.3281 4.40931C21.9731 4.92749 25.6986 8.4896 26.4626 13.0562C26.5104 13.0535 26.5583 13.0522 26.6074 13.0522C28.5672 13.0522 30.1563 14.6413 30.1563 16.601C30.1563 18.5608 28.5672 20.1498 26.6074 20.1498C26.5596 20.1498 26.5104 20.1485 26.4626 20.1459C25.6986 24.7124 21.9731 28.2746 17.3281 28.7927C17.7134 28.8352 18.1041 28.8605 18.5 28.8605C23.6804 28.8605 27.9799 25.0911 28.8063 20.1459C28.8542 20.1485 28.902 20.1498 28.9512 20.1498C30.9109 20.1498 32.5 18.5608 32.5 16.601C32.5 14.6413 30.9109 13.0522 28.9512 13.0522Z" fill="#FFB09E"/>
<path d="M30.3898 13.0563H17.098C13.3844 13.0563 10.375 10.0469 10.375 6.3333C10.375 2.90405 13.1545 0.124512 16.5825 0.124512H21.7336C26.5141 0.124512 30.3898 4.00019 30.3898 8.78067V13.0563Z" fill="#38231B"/>
<path d="M21.7337 0.124512H17.8262C22.6067 0.124512 26.4823 4.00019 26.4823 8.78068V13.0549H30.3899V8.78068C30.3899 4.00019 26.5142 0.124512 21.7337 0.124512Z" fill="#2B1A12"/>
</g>
<defs>
<filter id="filter0_d_1812_7014" x="-1.5" y="0" width="40" height="40" filterUnits="userSpaceOnUse" color-interpolation-filters="sRGB">
<feFlood flood-opacity="0" result="BackgroundImageFix"/>
<feColorMatrix in="SourceAlpha" type="matrix" values="0 0 0 0 0 0 0 0 0 0 0 0 0 0 0 0 0 0 127 0" result="hardAlpha"/>
<feOffset dy="2"/>
<feGaussianBlur stdDeviation="1"/>
<feColorMatrix type="matrix" values="0 0 0 0 0 0 0 0 0 0 0 0 0 0 0 0 0 0 0.2 0"/>
<feBlend mode="normal" in2="BackgroundImageFix" result="effect1_dropShadow_1812_7014"/>
<feBlend mode="normal" in="SourceGraphic" in2="effect1_dropShadow_1812_7014" result="shape"/>
</filter>
</defs>
</svg>
