<svg width="32" height="32" viewBox="0 0 32 32" fill="none" xmlns="http://www.w3.org/2000/svg">
<g clip-path="url(#clip0_2338_39604)">
<path d="M25.2618 6.48878L25.3395 6.66051L25.5112 6.73821C29.0411 8.33531 31.5 11.8791 31.5 16C31.5 20.1209 29.0411 23.6647 25.5112 25.2618L25.3395 25.3395L25.2618 25.5112C23.6647 29.0411 20.1209 31.5 16 31.5C11.8791 31.5 8.33531 29.0411 6.73821 25.5112L6.66051 25.3395L6.48878 25.2618C2.95889 23.6647 0.5 20.1209 0.5 16C0.5 11.8791 2.95889 8.33531 6.48878 6.73821L6.66051 6.66051L6.73821 6.48878C8.33531 2.95889 11.8791 0.5 16 0.5C20.1209 0.5 23.6647 2.95889 25.2618 6.48878Z" stroke="#9EAEB6"/>
<path d="M10.5 15.5L15 20" stroke="#9EAEB6" stroke-width="1.5" stroke-linecap="square"/>
<path d="M21.5 13.5L15 20" stroke="#9EAEB6" stroke-width="1.5" stroke-linecap="square"/>
</g>
<defs>
<clipPath id="clip0_2338_39604">
<rect width="32" height="32" fill="white"/>
</clipPath>
</defs>
</svg>
