<svg width="32" height="32" viewBox="0 0 32 32" fill="none" xmlns="http://www.w3.org/2000/svg">
<path d="M24.5027 7.49733C23.0373 4.25867 19.7847 2 16 2C12.2153 2 8.96267 4.25867 7.49733 7.49733C4.25867 8.96267 2 12.2153 2 16C2 19.7847 4.25867 23.0373 7.49733 24.5027C8.96267 27.7413 12.2153 30 16 30C19.7847 30 23.0373 27.7413 24.5027 24.5027C27.7413 23.0373 30 19.7847 30 16C30 12.2153 27.7413 8.96267 24.5027 7.49733Z" fill="#00C29D"/>
<path d="M17.9959 15.555C18.9339 16.101 19.5359 17.095 19.5359 17.963C19.5359 19.699 18.0799 20.931 15.9939 20.931C13.9219 20.931 12.4799 19.643 12.4799 17.837H14.1599C14.1599 18.775 14.9159 19.447 15.9939 19.447C17.1139 19.447 17.9119 18.775 17.9119 17.837C17.9119 16.913 17.1279 16.255 16.0219 16.255H15.3079V14.869H16.0499C17.0579 14.869 17.7579 14.281 17.7579 13.441C17.7579 12.615 17.0719 12.027 16.0919 12.027C15.1399 12.027 14.4679 12.615 14.4679 13.455H12.7879C12.7879 11.747 14.1459 10.543 16.0919 10.543C18.0099 10.543 19.3679 11.691 19.3679 13.329C19.3679 14.113 18.8359 15.037 17.9959 15.555Z" fill="white"/>
</svg>
