<svg width="24" height="24" viewBox="0 0 24 24" fill="none" xmlns="http://www.w3.org/2000/svg">
<path d="M12.0059 3.80003C14.6793 3.80003 14.9959 3.81176 16.0473 3.85864C17.0244 3.90162 17.5521 4.06571 17.9038 4.20246C18.369 4.38218 18.7051 4.60097 19.053 4.9487C19.4047 5.30033 19.6197 5.63242 19.7995 6.09736C19.9363 6.44899 20.1004 6.98034 20.1434 7.95319C20.1903 9.00808 20.2021 9.32455 20.2021 11.993C20.2021 14.6654 20.1903 14.9819 20.1434 16.0329C20.1004 17.0096 19.9363 17.5371 19.7995 17.8887C19.6197 18.3537 19.4008 18.6897 19.053 19.0374C18.7012 19.389 18.369 19.6039 17.9038 19.7836C17.5521 19.9204 17.0205 20.0845 16.0473 20.1274C14.992 20.1743 14.6754 20.186 12.0059 20.186C9.33242 20.186 9.01583 20.1743 7.96443 20.1274C6.9873 20.0845 6.45964 19.9204 6.10788 19.7836C5.64276 19.6039 5.30662 19.3851 4.95876 19.0374C4.607 18.6858 4.39203 18.3537 4.21223 17.8887C4.07543 17.5371 3.91128 17.0057 3.86828 16.0329C3.82138 14.978 3.80965 14.6615 3.80965 11.993C3.80965 9.32064 3.82138 9.00418 3.86828 7.95319C3.91128 6.97644 4.07543 6.44899 4.21223 6.09736C4.39203 5.63242 4.6109 5.29642 4.95876 4.9487C5.31053 4.59707 5.64276 4.38218 6.10788 4.20246C6.45964 4.06571 6.99121 3.90162 7.96443 3.85864C9.01583 3.81176 9.33242 3.80003 12.0059 3.80003ZM12.0059 1.9989C9.28943 1.9989 8.94938 2.01062 7.88235 2.05751C6.81923 2.10439 6.08833 2.2763 5.45515 2.52244C4.79461 2.7803 4.23569 3.12021 3.68067 3.67892C3.12175 4.23371 2.78171 4.79242 2.52374 5.44879C2.27751 6.08564 2.10553 6.81234 2.05863 7.87505C2.01173 8.94557 2 9.28548 2 12.0009C2 14.7162 2.01173 15.0561 2.05863 16.1228C2.10553 17.1855 2.27751 17.9161 2.52374 18.549C2.78171 19.2093 3.12175 19.768 3.68067 20.3228C4.23569 20.8776 4.79461 21.2214 5.45124 21.4754C6.08833 21.7215 6.81532 21.8934 7.87844 21.9403C8.94548 21.9872 9.28552 21.9989 12.002 21.9989C14.7184 21.9989 15.0584 21.9872 16.1255 21.9403C17.1886 21.8934 17.9195 21.7215 18.5527 21.4754C19.2093 21.2214 19.7682 20.8776 20.3232 20.3228C20.8782 19.768 21.2222 19.2093 21.4763 18.5529C21.7225 17.9161 21.8945 17.1894 21.9414 16.1267C21.9883 15.06 22 14.7201 22 12.0048C22 9.28939 21.9883 8.94948 21.9414 7.88286C21.8945 6.82016 21.7225 6.08954 21.4763 5.45661C21.23 4.79242 20.89 4.23371 20.3311 3.67892C19.776 3.12412 19.2171 2.7803 18.5605 2.52635C17.9234 2.28021 17.1964 2.1083 16.1333 2.06141C15.0623 2.01062 14.7223 1.9989 12.0059 1.9989Z" fill="#B1BBC0"/>
<path d="M12.0059 6.86313C9.16826 6.86313 6.86613 9.16436 6.86613 12.0009C6.86613 14.8373 9.16826 17.1386 12.0059 17.1386C14.8435 17.1386 17.1456 14.8373 17.1456 12.0009C17.1456 9.16436 14.8435 6.86313 12.0059 6.86313ZM12.0059 15.3335C10.1649 15.3335 8.67188 13.8411 8.67188 12.0009C8.67188 10.1607 10.1649 8.66817 12.0059 8.66817C13.8468 8.66817 15.3398 10.1607 15.3398 12.0009C15.3398 13.8411 13.8468 15.3335 12.0059 15.3335Z" fill="#B1BBC0"/>
<path d="M18.5488 6.65993C18.5488 7.32413 18.0094 7.85939 17.3488 7.85939C16.6844 7.85939 16.1489 7.32022 16.1489 6.65993C16.1489 5.99574 16.6883 5.46048 17.3488 5.46048C18.0094 5.46048 18.5488 5.99965 18.5488 6.65993Z" fill="#B1BBC0"/>
</svg>
