<svg width="37" height="36" viewBox="0 0 37 36" fill="none" xmlns="http://www.w3.org/2000/svg">
<g filter="url(#filter0_d_1812_1590)">
<path d="M18.5154 7.84229H8.76911C7.20782 7.84229 5.94287 9.10724 5.94287 10.6685V18.0677H18.5167V7.84229H18.5154Z" fill="#313131"/>
<path d="M28.9507 15.068C28.9024 15.068 28.8541 15.0693 28.8058 15.0719C27.9782 10.127 23.6794 6.35693 18.4982 6.35693C13.317 6.35693 9.01954 10.1257 8.1919 15.0719C8.1436 15.0706 8.0953 15.068 8.047 15.068C6.08756 15.068 4.49756 16.6567 4.49756 18.6175C4.49756 20.5782 6.08626 22.1669 8.047 22.1669C8.0953 22.1669 8.1436 22.1656 8.1919 22.163C9.01954 27.1079 13.3183 30.878 18.4995 30.878C23.6807 30.878 27.9795 27.1079 28.8071 22.163C28.8554 22.1643 28.9037 22.1669 28.952 22.1669C30.9115 22.1669 32.5015 20.5782 32.5015 18.6175C32.5015 16.6567 30.9128 15.068 28.952 15.068H28.9507Z" fill="#FFCEBF"/>
<path d="M13.3991 21.0245C13.0205 21.0245 12.7124 20.7178 12.7124 20.3379V18.4137C12.7124 18.0351 13.0205 17.7271 13.3991 17.7271C13.7776 17.7271 14.0857 18.0351 14.0857 18.4137V20.3379C14.0857 20.7165 13.7776 21.0245 13.3991 21.0245Z" fill="#5A5A5A"/>
<path d="M23.6022 21.0245C23.2236 21.0245 22.9155 20.7178 22.9155 20.3379V18.4137C22.9155 18.0351 23.2223 17.7271 23.6022 17.7271C23.9821 17.7271 24.2888 18.0351 24.2888 18.4137V20.3379C24.2888 20.7165 23.9821 21.0245 23.6022 21.0245Z" fill="#5A5A5A"/>
<path d="M28.9517 15.068C28.9034 15.068 28.8551 15.0693 28.8068 15.0719C27.9792 10.127 23.6804 6.35693 18.4992 6.35693C18.1076 6.35693 17.7212 6.37913 17.3413 6.4209C21.9991 6.92871 25.7378 10.4951 26.5028 15.0719C26.5511 15.0706 26.5994 15.068 26.6477 15.068C28.6071 15.068 30.1971 16.6567 30.1971 18.6175C30.1971 20.5782 28.6084 22.1669 26.649 22.1669C26.6007 22.1669 26.5524 22.1656 26.5041 22.163C25.7391 26.7385 22.0004 30.3049 17.3426 30.8127C17.7225 30.8545 18.1089 30.8767 18.5005 30.8767C23.6804 30.8767 27.9805 27.1066 28.8081 22.1617C28.8564 22.163 28.9047 22.1656 28.953 22.1656C30.9125 22.1656 32.5025 20.5769 32.5025 18.6162C32.5025 16.6554 30.9138 15.0667 28.953 15.0667L28.9517 15.068Z" fill="#FFB09E"/>
<path d="M13.3991 21.0245C13.0205 21.0245 12.7124 20.7178 12.7124 20.3379V18.4137C12.7124 18.0351 13.0205 17.7271 13.3991 17.7271C13.7776 17.7271 14.0857 18.0351 14.0857 18.4137V20.3379C14.0857 20.7165 13.7776 21.0245 13.3991 21.0245Z" fill="#222222"/>
<path d="M23.6022 21.0245C23.2236 21.0245 22.9155 20.7178 22.9155 20.3379V18.4137C22.9155 18.0351 23.2223 17.7271 23.6022 17.7271C23.9821 17.7271 24.2888 18.0351 24.2888 18.4137V20.3379C24.2888 20.7165 23.9821 21.0245 23.6022 21.0245Z" fill="#222222"/>
<path d="M31.0412 7.44423C31.0412 3.95223 28.2111 1.12207 24.719 1.12207H16.6202C12.7692 1.12207 9.64795 4.24333 9.64795 8.09433C9.64795 11.9453 12.7692 15.0666 16.6202 15.0666H31.0412V7.44553V7.44423Z" fill="#505050"/>
<path d="M24.7196 1.12207H20.8804C24.3724 1.12207 27.2025 3.95223 27.2025 7.44423V15.0653H31.0418V7.44423C31.0418 3.95223 28.2103 1.12207 24.7196 1.12207Z" fill="#313131"/>
<path d="M18.4374 26.4079C16.9492 26.4079 15.7378 25.1965 15.7378 23.7083C15.7378 23.1509 16.1895 22.6992 16.7469 22.6992C17.3043 22.6992 17.756 23.1509 17.756 23.7083C17.756 24.0843 18.0614 24.3897 18.4374 24.3897C18.8134 24.3897 19.1188 24.0843 19.1188 23.7083C19.1188 23.1509 19.5705 22.6992 20.1279 22.6992C20.6853 22.6992 21.137 23.1509 21.137 23.7083C21.137 25.1965 19.9269 26.4079 18.4374 26.4079Z" fill="#FFB09E"/>
</g>
<defs>
<filter id="filter0_d_1812_1590" x="-1.5" y="0" width="40" height="40" filterUnits="userSpaceOnUse" color-interpolation-filters="sRGB">
<feFlood flood-opacity="0" result="BackgroundImageFix"/>
<feColorMatrix in="SourceAlpha" type="matrix" values="0 0 0 0 0 0 0 0 0 0 0 0 0 0 0 0 0 0 127 0" result="hardAlpha"/>
<feOffset dy="2"/>
<feGaussianBlur stdDeviation="1"/>
<feColorMatrix type="matrix" values="0 0 0 0 0 0 0 0 0 0 0 0 0 0 0 0 0 0 0.2 0"/>
<feBlend mode="normal" in2="BackgroundImageFix" result="effect1_dropShadow_1812_1590"/>
<feBlend mode="normal" in="SourceGraphic" in2="effect1_dropShadow_1812_1590" result="shape"/>
</filter>
</defs>
</svg>
