<svg width="29" height="28" viewBox="0 0 29 28" fill="none" xmlns="http://www.w3.org/2000/svg">
<g clip-path="url(#clip0_1681_6567)">
<path d="M2.1665 10C2.1665 7.79086 3.95736 6 6.1665 6V22C3.95736 22 2.1665 20.2091 2.1665 18V10Z" fill="#E7E8F0"/>
<path d="M10.1665 26C7.95736 26 6.1665 24.2091 6.1665 22H22.1665C22.1665 24.2091 20.3756 26 18.1665 26H10.1665Z" fill="#E7E8F0"/>
<path d="M18.1665 2C20.3756 2 22.1665 3.79086 22.1665 6L6.1665 6C6.1665 3.79086 7.95737 2 10.1665 2L18.1665 2Z" fill="#E7E8F0"/>
<path d="M26.1665 18C26.1665 20.2091 24.3756 22 22.1665 22L22.1665 6C24.3756 6 26.1665 7.79086 26.1665 10L26.1665 18Z" fill="#E7E8F0"/>
<path d="M13.1665 8C13.1665 7.44772 13.6142 7 14.1665 7H15.1665C15.7188 7 16.1665 7.44772 16.1665 8V15C16.1665 15.5523 15.7188 16 15.1665 16H14.1665C13.6142 16 13.1665 15.5523 13.1665 15V8Z" fill="#B1BBC0"/>
<path d="M19.1665 13C19.7188 13 20.1665 13.4477 20.1665 14L20.1665 15C20.1665 15.5523 19.7188 16 19.1665 16L14.1665 16C13.6142 16 13.1665 15.5523 13.1665 15L13.1665 14C13.1665 13.4477 13.6142 13 14.1665 13L19.1665 13Z" fill="#B1BBC0"/>
<path d="M12.1665 14.5C12.1665 13.1193 13.2858 12 14.6665 12C16.0472 12 17.1665 13.1193 17.1665 14.5C17.1665 15.8807 16.0472 17 14.6665 17C13.2858 17 12.1665 15.8807 12.1665 14.5Z" fill="#E7E8F0"/>
</g>
<defs>
<clipPath id="clip0_1681_6567">
<rect width="24" height="24" fill="white" transform="translate(2.1665 2)"/>
</clipPath>
</defs>
</svg>
