<svg width="37" height="36" viewBox="0 0 37 36" fill="none" xmlns="http://www.w3.org/2000/svg">
<g filter="url(#filter0_d_1812_17292)">
<path d="M10.4299 13.6848C11.3815 11.7102 13.36 10.399 15.5332 10.2718C14.7906 9.41235 13.978 8.63342 13.1289 7.96613C11.4932 6.70037 9.71591 5.86042 8.59684 6.55497C7.43623 7.17681 7.27525 9.13583 7.55437 11.187C7.80103 12.9072 8.34628 14.6909 9.14599 16.3513L10.4312 13.6848H10.4299Z" fill="#FFCEBF"/>
<path d="M12.6148 11.226C13.4794 10.6703 14.4829 10.3328 15.5332 10.2718C14.7906 9.41235 13.9779 8.63342 13.1289 7.96613C11.4931 6.70037 9.71588 5.86042 8.59681 6.55497C8.03079 6.85875 7.70364 7.4806 7.54785 8.27511C8.60071 8.26472 9.9197 8.97744 11.1595 9.93683C11.6593 10.3289 12.1461 10.7625 12.6148 11.226Z" fill="#FFB09E"/>
<path d="M28.4598 6.55489C27.3408 5.86164 25.5648 6.70029 23.9277 7.96735C23.0787 8.63334 22.2673 9.41357 21.5234 10.273C23.698 10.4002 25.6751 11.7101 26.6267 13.686L27.912 16.3526C28.7117 14.6908 29.2569 12.9084 29.5036 11.1882C29.7827 9.13705 29.6204 7.17933 28.4598 6.55619V6.55489Z" fill="#FFCEBF"/>
<path d="M28.46 6.55492C27.7979 6.14469 26.9047 6.27061 25.9453 6.70552C26.8969 7.45199 27.0189 9.27859 26.7593 11.1857C26.6658 11.8426 26.5256 12.5086 26.3478 13.1732C26.4477 13.3381 26.5412 13.5082 26.6269 13.6847L27.9121 16.3513C28.7118 14.6896 29.2571 12.9071 29.5037 11.187C29.7829 9.13579 29.6206 7.17807 28.4613 6.55492H28.46Z" fill="#FFB09E"/>
<path d="M21.1772 10.1289H15.8818C13.5074 10.1289 11.3432 11.4881 10.3124 13.6276L8.18077 18.0519C7.19932 20.0875 7.40703 22.497 8.72213 24.334L10.7097 27.1109C11.8703 28.7324 13.7423 29.6957 15.7377 29.6957H21.3226C23.318 29.6957 25.19 28.7337 26.3507 27.1109L28.3382 24.334C29.6533 22.4957 29.861 20.0875 28.8796 18.0519L26.7479 13.6276C25.7171 11.4881 23.553 10.1289 21.1785 10.1289H21.1772Z" fill="#FAE2C0"/>
<path d="M21.0381 23.0553L19.5036 21.8272V21.6675L19.144 22.0492C18.9856 22.2179 18.761 22.3153 18.5299 22.3153C18.2988 22.3153 18.0742 22.2192 17.9159 22.0492L17.5563 21.6675V21.8337L16.0555 23.0618C15.6388 23.4019 15.5778 24.016 15.9192 24.4314C16.2593 24.8468 16.8734 24.9078 17.2888 24.5677L18.5364 23.546L19.8216 24.5742C20.0008 24.7183 20.2163 24.7871 20.4292 24.7871C20.7148 24.7871 20.9978 24.6625 21.19 24.4223C21.5262 24.0017 21.4574 23.3889 21.0381 23.054V23.0553Z" fill="#FDB4BA"/>
<path d="M28.8782 18.0519L26.7466 13.6276C25.7158 11.4881 23.5516 10.1289 21.1772 10.1289H16.7295C19.1039 10.1289 21.2681 11.4881 22.2989 13.6276L24.4305 18.0519C25.412 20.0875 25.2043 22.497 23.8892 24.334L21.9016 27.1109C20.741 28.7324 18.869 29.6957 16.8736 29.6957H21.3213C23.3167 29.6957 25.1887 28.7337 26.3493 27.1109L28.3369 24.334C29.652 22.4957 29.8597 20.0875 28.8782 18.0519Z" fill="#FED2A4"/>
<path d="M31.5268 21.5338H27.501C26.9635 21.5338 26.5273 21.0976 26.5273 20.5601C26.5273 20.0226 26.9635 19.5864 27.501 19.5864H31.5268C32.0642 19.5864 32.5005 20.0226 32.5005 20.5601C32.5005 21.0976 32.0642 21.5338 31.5268 21.5338Z" fill="#FFF2DC"/>
<path d="M31.5268 25.0274H27.501C26.9635 25.0274 26.5273 24.5912 26.5273 24.0537C26.5273 23.5163 26.9635 23.0801 27.501 23.0801H31.5268C32.0642 23.0801 32.5005 23.5163 32.5005 24.0537C32.5005 24.5912 32.0642 25.0274 31.5268 25.0274Z" fill="#FFF2DC"/>
<path d="M9.5345 21.5338H5.47366C4.9362 21.5338 4.5 21.0976 4.5 20.5601C4.5 20.0226 4.9362 19.5864 5.47366 19.5864H9.5345C10.072 19.5864 10.5082 20.0226 10.5082 20.5601C10.5082 21.0976 10.072 21.5338 9.5345 21.5338Z" fill="#FFF2DC"/>
<path d="M9.5345 25.0274H5.47366C4.9362 25.0274 4.5 24.5912 4.5 24.0537C4.5 23.5163 4.9362 23.0801 5.47366 23.0801H9.5345C10.072 23.0801 10.5082 23.5163 10.5082 24.0537C10.5082 24.5912 10.072 25.0274 9.5345 25.0274Z" fill="#FFF2DC"/>
<path d="M13.7305 19.415C13.193 19.415 12.7568 18.9788 12.7568 18.4413V17.0691C12.7568 16.5317 13.193 16.0955 13.7305 16.0955C14.268 16.0955 14.7042 16.5317 14.7042 17.0691V18.4413C14.7042 18.9788 14.268 19.415 13.7305 19.415Z" fill="#222222"/>
<path d="M23.3282 19.415C22.7907 19.415 22.3545 18.9788 22.3545 18.4413V17.0691C22.3545 16.5317 22.7907 16.0955 23.3282 16.0955C23.8656 16.0955 24.3018 16.5317 24.3018 17.0691V18.4413C24.3018 18.9788 23.8656 19.415 23.3282 19.415Z" fill="#222222"/>
<path d="M18.5291 22.4452C18.2604 22.4452 18.0046 22.3349 17.8203 22.1389L16.5117 20.7485C16.1663 20.3811 16.0716 19.8449 16.2715 19.3814C16.4714 18.918 16.9271 18.6194 17.4308 18.6194H19.6261C20.1311 18.6194 20.5855 18.918 20.7854 19.3814C20.9853 19.8449 20.8918 20.3811 20.5452 20.7485L19.2366 22.1389C19.0523 22.3349 18.7965 22.4452 18.5278 22.4452H18.5291Z" fill="#FE99A0"/>
</g>
<defs>
<filter id="filter0_d_1812_17292" x="-1.5" y="0" width="40" height="40" filterUnits="userSpaceOnUse" color-interpolation-filters="sRGB">
<feFlood flood-opacity="0" result="BackgroundImageFix"/>
<feColorMatrix in="SourceAlpha" type="matrix" values="0 0 0 0 0 0 0 0 0 0 0 0 0 0 0 0 0 0 127 0" result="hardAlpha"/>
<feOffset dy="2"/>
<feGaussianBlur stdDeviation="1"/>
<feColorMatrix type="matrix" values="0 0 0 0 0 0 0 0 0 0 0 0 0 0 0 0 0 0 0.2 0"/>
<feBlend mode="normal" in2="BackgroundImageFix" result="effect1_dropShadow_1812_17292"/>
<feBlend mode="normal" in="SourceGraphic" in2="effect1_dropShadow_1812_17292" result="shape"/>
</filter>
</defs>
</svg>
