<svg width="24" height="24" viewBox="0 0 24 24" fill="none" xmlns="http://www.w3.org/2000/svg">
<rect x="2" y="2" width="20" height="20" rx="6" fill="black"/>
<path d="M14.6937 5C14.7263 5 14.7589 5 14.7933 5C14.8732 5.98731 14.4964 6.72503 14.0384 7.25925C13.589 7.78979 12.9736 8.30435 11.9783 8.22628C11.9119 7.25311 12.2894 6.5701 12.7468 6.03711C13.1709 5.54038 13.9486 5.09836 14.6937 5Z" fill="white"/>
<path d="M17.7067 15.2764C17.7067 15.2862 17.7067 15.2948 17.7067 15.304C17.4269 16.1512 17.028 16.8772 16.5411 17.551C16.0966 18.1627 15.5519 18.9859 14.5794 18.9859C13.739 18.9859 13.1808 18.4455 12.3195 18.4307C11.4084 18.416 10.9074 18.8826 10.0744 19C9.97909 19 9.8838 19 9.79036 19C9.17867 18.9115 8.68501 18.427 8.32538 17.9906C7.26491 16.7008 6.44543 15.0348 6.29297 12.9028C6.29297 12.6938 6.29297 12.4854 6.29297 12.2763C6.35752 10.7505 7.09892 9.5099 8.08439 8.90866C8.60448 8.58899 9.31945 8.31665 10.1156 8.43837C10.4568 8.49124 10.8053 8.60804 11.1109 8.72362C11.4004 8.83489 11.7625 9.03223 12.1056 9.02178C12.3379 9.01502 12.5691 8.89391 12.8033 8.80846C13.4894 8.56071 14.1619 8.27669 15.0484 8.41009C16.1138 8.57116 16.87 9.04453 17.3372 9.77487C16.4359 10.3484 15.7234 11.2128 15.8452 12.6888C15.9534 14.0296 16.7329 14.8141 17.7067 15.2764Z" fill="white"/>
</svg>
