<svg width="37" height="36" viewBox="0 0 37 36" fill="none" xmlns="http://www.w3.org/2000/svg">
<g filter="url(#filter0_d_1812_10726)">
<path d="M33.7923 23.4325L33.7681 23.3872C33.5116 22.9165 33.2113 22.4744 32.8749 22.0685C33.2853 21.7471 33.6459 21.3321 33.9281 20.8432C34.3415 20.128 34.5407 19.3162 34.4924 18.5542C34.4245 17.4934 33.8964 16.6032 33.0408 16.1098C32.6123 15.8623 32.1219 15.7325 31.6194 15.7325C31.2015 15.7325 30.7865 15.8216 30.3942 15.986C29.9702 14.2508 28.6529 13.0195 27.052 13.0195C25.451 13.0195 24.1353 14.2523 23.7097 15.986C23.3174 15.8201 22.9025 15.7325 22.4845 15.7325C21.982 15.7325 21.4901 15.8638 21.0631 16.1098C20.2076 16.6032 19.6795 17.495 19.6116 18.5557C19.5633 19.3162 19.7639 20.1295 20.1759 20.8447C20.458 21.3336 20.8187 21.7486 21.2291 22.07C20.8926 22.4774 20.5923 22.9195 20.3358 23.3903L20.3238 23.4129L20.3117 23.4355C19.6176 24.7845 19.6795 26.6239 20.4611 27.9064C21.1552 29.0426 22.3397 29.6945 23.7113 29.6945H23.7867C24.9033 29.6522 25.9309 29.272 26.7653 28.5884C26.8573 28.5296 26.9524 28.4994 27.049 28.4994C27.1455 28.4994 27.2406 28.5296 27.3326 28.5884C28.1671 29.272 29.1946 29.6537 30.3112 29.693H30.3489H30.3867C31.7477 29.693 32.9247 29.0592 33.6172 27.9547C34.5362 26.4896 34.3762 24.6517 33.8089 23.4808L33.7862 23.434L33.7923 23.4325Z" fill="#EFEDEF"/>
<path d="M23.827 15.7325C24.2449 15.7325 24.6599 15.8216 25.0522 15.986C25.4158 14.4998 26.4344 13.3832 27.7245 13.0935C27.5087 13.0452 27.2839 13.0195 27.0545 13.0195C25.5335 13.0195 24.2691 14.1331 23.7832 15.7325C23.7983 15.7325 23.8134 15.7325 23.827 15.7325Z" fill="#EFEDEF"/>
<path d="M21.8044 27.9039C21.0212 26.6213 20.9594 24.7819 21.655 23.433L21.667 23.4103L21.6791 23.3877C21.9356 22.9169 22.2359 22.4748 22.5724 22.0674C22.162 21.746 21.8013 21.331 21.5192 20.8422C21.1057 20.1269 20.9065 19.3151 20.9548 18.5531C21.0227 17.4924 21.5509 16.6021 22.4064 16.1072C22.6433 15.9714 22.8983 15.8703 23.1654 15.8069C22.9421 15.7556 22.7157 15.73 22.4894 15.73C21.9869 15.73 21.495 15.8613 21.068 16.1072C20.2125 16.6006 19.6843 17.4924 19.6164 18.5531C19.5681 19.3136 19.7688 20.1269 20.1808 20.8422C20.4629 21.331 20.8236 21.746 21.234 22.0674C20.8975 22.4748 20.5972 22.9169 20.3407 23.3877L20.3286 23.4103L20.3166 23.433C19.6225 24.7819 19.6843 26.6213 20.4659 27.9039C21.16 29.0401 22.3445 29.6919 23.7161 29.6919H23.7916C23.9893 29.6829 24.1854 29.6648 24.377 29.6376C23.2967 29.458 22.3808 28.8484 21.8044 27.9039Z" fill="#CECECE"/>
<path d="M27.0547 19.2924C27.8223 19.2924 28.4444 18.3574 28.4444 17.2041C28.4444 16.0507 27.8223 15.1157 27.0547 15.1157C26.2872 15.1157 25.665 16.0507 25.665 17.2041C25.665 18.3574 26.2872 19.2924 27.0547 19.2924Z" fill="#4F4F4F"/>
<path d="M27.003 17.2041C27.003 16.4149 27.2942 15.7283 27.7227 15.3737C27.5236 15.2093 27.2957 15.1157 27.0528 15.1157C26.2848 15.1157 25.6631 16.0512 25.6631 17.2041C25.6631 18.3569 26.2848 19.2924 27.0528 19.2924C27.2957 19.2924 27.5236 19.1988 27.7227 19.0344C27.2942 18.6783 27.003 17.9917 27.003 17.2041Z" fill="#222222"/>
<path d="M23.6712 20.6267C24.1677 20.34 24.221 19.5027 23.7901 18.7564C23.3593 18.0102 22.6075 17.6376 22.111 17.9243C21.6144 18.211 21.5612 19.0483 21.992 19.7945C22.4229 20.5408 23.1746 20.9133 23.6712 20.6267Z" fill="#4F4F4F"/>
<path d="M23.3339 19.7963C22.9762 19.1777 22.9521 18.4956 23.2373 18.1169C22.8601 17.8302 22.433 17.7412 22.1131 17.9253C21.6167 18.212 21.5639 19.0494 21.9939 19.7948C22.4255 20.5417 23.1769 20.9129 23.6734 20.6277C23.7579 20.5794 23.8303 20.5146 23.8876 20.4361C23.6794 20.2777 23.4863 20.0604 23.3323 19.7948L23.3339 19.7963Z" fill="#222222"/>
<path d="M32.1114 19.7949C32.5422 19.0486 32.489 18.2113 31.9925 17.9246C31.4959 17.6379 30.7441 18.0105 30.3133 18.7567C29.8825 19.503 29.9357 20.3403 30.4322 20.627C30.9288 20.9136 31.6806 20.5411 32.1114 19.7949Z" fill="#4F4F4F"/>
<path d="M31.6542 18.7582C31.8066 18.4926 32.0013 18.2753 32.2095 18.1169C32.1507 18.0399 32.0798 17.9751 31.9953 17.9253C31.4988 17.6386 30.7474 18.0113 30.3158 18.7582C29.8843 19.5051 29.9386 20.341 30.435 20.6277C30.7549 20.8133 31.182 20.7228 31.5592 20.4361C31.274 20.0573 31.2981 19.3768 31.6558 18.7567L31.6542 18.7582Z" fill="#222222"/>
<path d="M23.7143 27.5958C24.3934 27.5717 25.0075 27.3363 25.4918 26.9198C26.4364 26.2272 27.6677 26.2272 28.6123 26.9198C29.0981 27.3363 29.7108 27.5702 30.3898 27.5943C32.2306 27.5943 32.457 25.4879 31.9258 24.3894C31.443 23.5052 30.77 22.7658 29.9642 22.2377C28.1702 21.0607 25.934 21.0607 24.1399 22.2377C23.3341 22.7658 22.6596 23.5052 22.1783 24.3909C21.6381 25.4411 21.8886 27.5943 23.7143 27.5943V27.5958Z" fill="#4F4F4F"/>
<path d="M23.5182 24.3927C24.001 23.5084 24.6755 22.7691 25.4798 22.2395C26.1784 21.7823 26.9434 21.5016 27.722 21.4005C26.4968 21.2406 25.2353 21.5212 24.1399 22.2395C23.3341 22.7676 22.6596 23.5069 22.1783 24.3927C21.6381 25.4429 21.8886 27.5961 23.7143 27.5961C23.9558 27.587 24.1897 27.5523 24.4115 27.492C23.1742 27.0483 23.0474 25.3056 23.5167 24.3927H23.5182Z" fill="#222222"/>
<path d="M16.6863 16.7182L16.6621 16.6729C16.4056 16.2021 16.1053 15.76 15.7689 15.3541C16.1793 15.0327 16.5399 14.6178 16.8221 14.1289C17.2355 13.4136 17.4347 12.6019 17.3864 11.8399C17.3185 10.7791 16.7904 9.88883 15.9348 9.39542C15.5063 9.14796 15.0159 9.01819 14.5134 9.01819C14.0955 9.01819 13.6805 9.10722 13.2882 9.27169C12.8642 7.53795 11.5469 6.30518 9.94598 6.30518C8.34503 6.30518 7.02926 7.53795 6.60374 9.27169C6.21143 9.10571 5.79648 9.01819 5.37851 9.01819C4.87604 9.01819 4.38414 9.14947 3.95712 9.39542C3.10308 9.88883 2.57345 10.7806 2.50706 11.8414C2.45877 12.6019 2.65946 13.4152 3.07139 14.1304C3.35356 14.6193 3.71418 15.0342 4.12461 15.3556C3.78812 15.763 3.48785 16.2051 3.23133 16.6759L3.21926 16.6985L3.20719 16.7212C2.51309 18.0701 2.57496 19.9095 3.35657 21.1921C4.05067 22.3283 5.23516 22.9801 6.60676 22.9801H6.68221C7.7988 22.9379 8.82637 22.5576 9.66079 21.8741C9.75284 21.8152 9.8479 21.7851 9.94447 21.7851C10.041 21.7851 10.1361 21.8152 10.2281 21.8741C11.0626 22.5576 12.0901 22.9394 13.2067 22.9786H13.2445H13.2822C14.6432 22.9786 15.8202 22.3449 16.5127 21.2404C17.4317 19.7752 17.2717 17.9374 16.7044 16.7664L16.6817 16.7197L16.6863 16.7182Z" fill="#EFEDEF"/>
<path d="M6.7191 9.01819C7.13706 9.01819 7.55201 9.10722 7.94433 9.27169C8.30798 7.78692 9.32498 6.66882 10.6151 6.37911C10.3993 6.33083 10.1745 6.30518 9.94514 6.30518C8.42416 6.30518 7.1597 7.41875 6.67383 9.01819C6.68892 9.01819 6.70401 9.01819 6.71759 9.01819H6.7191Z" fill="#EFEDEF"/>
<path d="M4.69799 21.189C3.91487 19.9064 3.853 18.0671 4.54861 16.7181L4.56068 16.6955L4.57275 16.6728C4.82927 16.2021 5.12954 15.76 5.46603 15.3526C5.0556 15.0312 4.69498 14.6162 4.41281 14.1273C3.99937 13.4121 3.80019 12.6003 3.84848 11.8383C3.91638 10.7775 4.4445 9.88729 5.30005 9.39236C5.53695 9.25656 5.79195 9.15547 6.05903 9.09209C5.83571 9.04079 5.60937 9.01514 5.38304 9.01514C4.88057 9.01514 4.38867 9.14641 3.96165 9.39236C3.10308 9.88879 2.57345 10.7806 2.50706 11.8413C2.45877 12.6018 2.65946 13.4151 3.07139 14.1303C3.35356 14.6192 3.71418 15.0342 4.12461 15.3556C3.78812 15.763 3.48785 16.2051 3.23133 16.6759L3.21926 16.6985L3.20719 16.7211C2.51309 18.0701 2.57496 19.9095 3.35657 21.192C4.05067 22.3282 5.23516 22.9801 6.60676 22.9801H6.68221C6.87988 22.971 7.07603 22.9529 7.26766 22.9258C6.18729 22.7462 5.27138 22.1366 4.69498 21.192L4.69799 21.189Z" fill="#CECECE"/>
<path d="M9.94537 12.578C10.7129 12.578 11.3351 11.643 11.3351 10.4897C11.3351 9.33634 10.7129 8.40137 9.94537 8.40137C9.17786 8.40137 8.55566 9.33634 8.55566 10.4897C8.55566 11.643 9.17786 12.578 9.94537 12.578Z" fill="#4F4F4F"/>
<path d="M9.89558 10.4897C9.89558 9.70054 10.1868 9.01398 10.6153 8.65939C10.4161 8.49492 10.1883 8.40137 9.94537 8.40137C9.17733 8.40137 8.55566 9.33689 8.55566 10.4897C8.55566 11.6425 9.17733 12.578 9.94537 12.578C10.1883 12.578 10.4161 12.4845 10.6153 12.32C10.1868 11.9639 9.89558 11.2773 9.89558 10.4897Z" fill="#222222"/>
<path d="M6.56668 13.9113C7.06321 13.6247 7.11646 12.7873 6.68562 12.0411C6.25478 11.2948 5.503 10.9223 5.00647 11.209C4.50994 11.4956 4.45669 12.333 4.88753 13.0792C5.31837 13.8254 6.07015 14.198 6.56668 13.9113Z" fill="#4F4F4F"/>
<path d="M6.22643 13.0815C5.86882 12.4628 5.84467 11.7808 6.12986 11.4021C5.75263 11.1154 5.32561 11.0263 5.00572 11.2104C4.50929 11.4971 4.45648 12.3346 4.88652 13.08C5.31807 13.8269 6.0695 14.1981 6.56593 13.9129C6.65043 13.8646 6.72286 13.7997 6.7802 13.7213C6.57197 13.5628 6.37883 13.3455 6.22492 13.08L6.22643 13.0815Z" fill="#222222"/>
<path d="M15.0069 13.0805C15.4377 12.3343 15.3845 11.4969 14.888 11.2103C14.3914 10.9236 13.6397 11.2961 13.2088 12.0424C12.778 12.7886 12.8312 13.6259 13.3278 13.9126C13.8243 14.1993 14.5761 13.8267 15.0069 13.0805Z" fill="#4F4F4F"/>
<path d="M14.5468 12.0438C14.6992 11.7783 14.8939 11.561 15.1021 11.4025C15.0433 11.3256 14.9723 11.2607 14.8878 11.2109C14.3914 10.9242 13.64 11.2969 13.2084 12.0438C12.7769 12.7907 12.8312 13.6267 13.3276 13.9134C13.6475 14.099 14.0745 14.0084 14.4518 13.7217C14.1666 13.343 14.1907 12.6625 14.5483 12.0423L14.5468 12.0438Z" fill="#222222"/>
<path d="M6.60888 20.881C7.28789 20.8568 7.90201 20.6215 8.38637 20.205C9.33095 19.5124 10.5622 19.5124 11.5068 20.205C11.9927 20.6215 12.6053 20.8553 13.2843 20.8795C15.1252 20.8795 15.3515 18.773 14.8204 17.6746C14.3375 16.7903 13.6645 16.051 12.8588 15.5228C11.0647 14.3459 8.82849 14.3459 7.03439 15.5228C6.22864 16.051 5.55415 16.7903 5.07281 17.6761C4.53262 18.7263 4.7831 20.8795 6.60888 20.8795V20.881Z" fill="#4F4F4F"/>
<path d="M6.41272 17.6778C6.89557 16.7936 7.57006 16.0542 8.3743 15.5246C9.07293 15.0674 9.83794 14.7868 10.6165 14.6857C9.39131 14.5257 8.12986 14.8064 7.03439 15.5246C6.22864 16.0527 5.55415 16.7921 5.07281 17.6778C4.53262 18.728 4.7831 20.8812 6.60888 20.8812C6.85031 20.8722 7.08419 20.8375 7.306 20.7771C6.06869 20.3335 5.94194 18.5907 6.41121 17.6778H6.41272Z" fill="#222222"/>
</g>
<defs>
<filter id="filter0_d_1812_10726" x="-1.5" y="0" width="40" height="40" filterUnits="userSpaceOnUse" color-interpolation-filters="sRGB">
<feFlood flood-opacity="0" result="BackgroundImageFix"/>
<feColorMatrix in="SourceAlpha" type="matrix" values="0 0 0 0 0 0 0 0 0 0 0 0 0 0 0 0 0 0 127 0" result="hardAlpha"/>
<feOffset dy="2"/>
<feGaussianBlur stdDeviation="1"/>
<feColorMatrix type="matrix" values="0 0 0 0 0 0 0 0 0 0 0 0 0 0 0 0 0 0 0.2 0"/>
<feBlend mode="normal" in2="BackgroundImageFix" result="effect1_dropShadow_1812_10726"/>
<feBlend mode="normal" in="SourceGraphic" in2="effect1_dropShadow_1812_10726" result="shape"/>
</filter>
</defs>
</svg>
