<svg width="20" height="20" viewBox="0 0 20 20" fill="none" xmlns="http://www.w3.org/2000/svg">
<path d="M9.09194 2.96867C9.44936 2.1938 10.5506 2.19379 10.9081 2.96866L12.3048 5.99675C12.4504 6.31256 12.7497 6.53 13.0951 6.57095L16.4066 6.96358C17.254 7.06406 17.5943 8.11144 16.9678 8.69081L14.5195 10.9549C14.2642 11.191 14.1499 11.5429 14.2177 11.884L14.8675 15.1547C15.0339 15.9917 14.1429 16.639 13.3983 16.2222L10.4884 14.5934C10.185 14.4235 9.81503 14.4235 9.51156 14.5934L6.60172 16.2222C5.85711 16.639 4.96615 15.9917 5.13245 15.1547L5.78235 11.884C5.85012 11.5429 5.73581 11.191 5.48047 10.9549L3.0322 8.69081C2.4057 8.11144 2.74601 7.06406 3.59341 6.96358L6.9049 6.57095C7.25027 6.53 7.54955 6.31256 7.69522 5.99676L9.09194 2.96867Z" fill="white"/>
<path d="M9.09194 2.96867C9.44936 2.1938 10.5506 2.19379 10.9081 2.96866L12.3048 5.99675C12.4504 6.31256 12.7497 6.53001 13.0951 6.57095L16.4066 6.96358C17.254 7.06406 17.5943 8.11144 16.9678 8.69081L14.5195 10.9549C14.2642 11.191 14.1499 11.5429 14.2177 11.884L14.8675 15.1547C15.0339 15.9917 14.1429 16.639 13.3983 16.2222L10.4884 14.5934C10.185 14.4235 9.81503 14.4235 9.51156 14.5934L6.60172 16.2222C5.85711 16.639 4.96615 15.9917 5.13245 15.1547L5.78235 11.884C5.85012 11.5429 5.73581 11.191 5.48047 10.9549L3.0322 8.69081C2.4057 8.11144 2.74601 7.06406 3.59341 6.96358L6.9049 6.57095C7.25027 6.53001 7.54955 6.31256 7.69522 5.99676L9.09194 2.96867Z" stroke="#222222"/>
</svg>
