<svg width="32" height="32" viewBox="0 0 32 32" fill="none" xmlns="http://www.w3.org/2000/svg">
<g clip-path="url(#clip0_2338_39633)">
<path d="M25.2618 6.48878L25.3395 6.66051L25.5112 6.73821C29.0411 8.33531 31.5 11.8791 31.5 16C31.5 20.1209 29.0411 23.6647 25.5112 25.2618L25.3395 25.3395L25.2618 25.5112C23.6647 29.0411 20.1209 31.5 16 31.5C11.8791 31.5 8.33531 29.0411 6.73821 25.5112L6.66051 25.3395L6.48878 25.2618C2.95889 23.6647 0.5 20.1209 0.5 16C0.5 11.8791 2.95889 8.33531 6.48878 6.73821L6.66051 6.66051L6.73821 6.48878C8.33531 2.95889 11.8791 0.5 16 0.5C20.1209 0.5 23.6647 2.95889 25.2618 6.48878Z" stroke="#222222"/>
<path d="M17.992 16.016C19.064 16.64 19.752 17.776 19.752 18.768C19.752 20.752 18.088 22.16 15.704 22.16C13.336 22.16 11.688 20.688 11.688 18.624H13.608C13.608 19.696 14.472 20.464 15.704 20.464C16.984 20.464 17.896 19.696 17.896 18.624C17.896 17.568 17 16.816 15.736 16.816H14.92V15.232H15.768C16.92 15.232 17.72 14.56 17.72 13.6C17.72 12.656 16.936 11.984 15.816 11.984C14.728 11.984 13.96 12.656 13.96 13.616H12.04C12.04 11.664 13.592 10.288 15.816 10.288C18.008 10.288 19.56 11.6 19.56 13.472C19.56 14.368 18.952 15.424 17.992 16.016Z" fill="#222222"/>
</g>
<defs>
<clipPath id="clip0_2338_39633">
<rect width="32" height="32" fill="white"/>
</clipPath>
</defs>
</svg>
