<svg width="36" height="36" viewBox="0 0 36 36" fill="none" xmlns="http://www.w3.org/2000/svg">
<path d="M27.7173 8.28267C26.0427 4.58133 22.3253 2 18 2C13.6747 2 9.95733 4.58133 8.28267 8.28267C4.58133 9.95733 2 13.6747 2 18C2 22.3253 4.58133 26.0427 8.28267 27.7173C9.95733 31.4187 13.6747 34 18 34C22.3253 34 26.0427 31.4187 27.7173 27.7173C31.4187 26.0427 34 22.3253 34 18C34 13.6747 31.4187 9.95733 27.7173 8.28267Z" fill="#00C29D"/>
<path d="M20.3456 12.384V19.504H21.7216V21.152H20.3456V24.064H18.4416V21.152H13.4496L13.2896 19.504L18.5216 12.384H20.3456ZM15.5296 19.504H18.4416V15.536L15.5296 19.504Z" fill="white"/>
</svg>
