<svg width="24" height="24" viewBox="0 0 24 24" fill="none" xmlns="http://www.w3.org/2000/svg">
<path fill-rule="evenodd" clip-rule="evenodd" d="M3 4H17C19.2091 4 21 5.79086 21 8V10.8762C19.897 10.0139 18.5085 9.5 17 9.5C14.984 9.5 13.1823 10.4178 11.9901 11.8584C11.9213 11.3732 11.5042 11 11 11C10.4477 11 10 11.4477 10 12C10 12.5523 10.4477 13 11 13C11.0858 13 11.1691 12.9892 11.2485 12.9689C10.7706 13.8739 10.5 14.9053 10.5 16C10.5 16.6978 10.61 17.3699 10.8135 18H7C4.79086 18 3 16.2091 3 14V4ZM7 11C6.44772 11 6 11.4477 6 12C6 12.5523 6.44772 13 7 13C7.55228 13 8 12.5523 8 12C8 11.4477 7.55228 11 7 11ZM14 8C14 7.44772 14.4477 7 15 7C15.5523 7 16 7.44772 16 8C16 8.55228 15.5523 9 15 9C14.4477 9 14 8.55228 14 8ZM7 7C6.44772 7 6 7.44772 6 8C6 8.55228 6.44772 9 7 9H11C11.5523 9 12 8.55228 12 8C12 7.44772 11.5523 7 11 7H7Z" fill="#00C29D"/>
<path fill-rule="evenodd" clip-rule="evenodd" d="M17 21C19.7614 21 22 18.7614 22 16C22 13.2386 19.7614 11 17 11C14.2386 11 12 13.2386 12 16C12 18.7614 14.2386 21 17 21ZM18.8693 13.9697L16.3996 16.4393L15.1299 15.1697L14.0693 16.2303L15.8693 18.0303L16.3996 18.5607L16.9299 18.0303L19.9299 15.0303L18.8693 13.9697Z" fill="#00C29D"/>
</svg>
