<svg width="16" height="16" viewBox="0 0 16 16" fill="none" xmlns="http://www.w3.org/2000/svg">
<g id="ic">
<path id="Vector" d="M2 2H10C12.2091 2 14 3.79086 14 6V10C14 12.2091 12.2091 14 10 14H6C3.79086 14 2 12.2091 2 10V2Z" stroke="#FF6D90" stroke-width="1.5"/>
<path id="Union" fill-rule="evenodd" clip-rule="evenodd" d="M8.75 4.98047C8.75 4.56626 8.41421 4.23047 8 4.23047C7.58579 4.23047 7.25 4.56626 7.25 4.98047L7.25 7.98047C7.25 8.39468 7.58579 8.73047 8 8.73047C8.41421 8.73047 8.75 8.39468 8.75 7.98047L8.75 4.98047ZM8 9.98047C7.44772 9.98047 7 10.4282 7 10.9805C7 11.5328 7.44772 11.9805 8 11.9805C8.55228 11.9805 9 11.5328 9 10.9805C9 10.4282 8.55228 9.98047 8 9.98047Z" fill="#FF6D90"/>
</g>
</svg>
