<svg width="25" height="24" viewBox="0 0 25 24" fill="none" xmlns="http://www.w3.org/2000/svg">
<path d="M11.4464 12.0042V6.71875L3 6.71875L3 14.1115C3 17.0306 5.36636 19.3883 8.27682 19.3883C10.5482 19.3883 12.4741 17.9547 13.2255 15.951C12.1373 14.9837 11.4464 13.576 11.4464 11.9956V12.0042Z" fill="white"/>
<path d="M13.5536 4.61133C12.7763 4.61133 12.1027 5.02587 11.7399 5.64769C11.5499 5.9586 11.4463 6.32996 11.4463 6.7186C12.6122 6.7186 13.5536 7.65996 13.5536 8.82587L13.5536 14.1027C13.5536 14.7504 13.4327 15.3722 13.2254 15.9422C14.1581 16.7627 15.3845 17.2722 16.7231 17.2722C19.6422 17.2722 21.9999 14.9059 21.9999 11.9954V4.61133L13.5536 4.61133Z" fill="white"/>
</svg>
