<svg width="37" height="36" viewBox="0 0 37 36" fill="none" xmlns="http://www.w3.org/2000/svg">
<g filter="url(#filter0_d_1812_14472)">
<g filter="url(#filter1_d_1812_14472)">
<path d="M30.249 9.43497L26.539 7.64289C25.2288 7.00996 23.662 7.27608 22.6335 8.30458C22.2056 8.73252 21.9083 9.25756 21.7549 9.82095C23.101 10.2009 24.3765 10.8183 25.532 11.6586C27.9151 13.3895 29.0766 16.2712 28.6307 19.1086L29.2409 19.2632C31.4021 19.8098 33.4999 18.1772 33.4999 15.9476V14.617C33.4999 12.409 32.2365 10.3963 30.249 9.43616V9.43497Z" fill="#663F2E"/>
<path d="M30.2482 9.43497L26.5382 7.64289C25.228 7.00996 23.6613 7.27608 22.6328 8.30458C22.6184 8.31896 22.6052 8.33454 22.5908 8.34893C23.1902 8.29619 23.8063 8.40167 24.3745 8.67618L28.0845 10.4683C30.0732 11.4284 31.3354 13.4423 31.3354 15.6491V16.9797C31.3354 17.9159 30.9638 18.7466 30.3753 19.3555C32.081 19.2093 33.5003 17.7804 33.5003 15.9476V14.617C33.5003 12.409 32.2369 10.3963 30.2494 9.43616L30.2482 9.43497Z" fill="#3D1C0B"/>
<path d="M11.4679 11.6586C12.6246 10.8183 13.8989 10.2009 15.245 9.82095C15.0904 9.25756 14.7943 8.73252 14.3664 8.30458C13.3379 7.27608 11.7711 7.00996 10.4609 7.64289L6.75092 9.43497C4.76345 10.3951 3.5 12.4078 3.5 14.6158V15.9464C3.5 18.176 5.59895 19.8086 7.75904 19.262L8.36918 19.1074C7.92326 16.27 9.08601 13.3883 11.4679 11.6574V11.6586Z" fill="#663F2E"/>
<path d="M14.3678 8.30461C13.7852 7.72204 13.0312 7.3852 12.2485 7.31567C12.4403 7.51466 12.6045 7.73403 12.7399 7.96658C12.9689 8.35975 12.7891 8.86202 12.3599 9.01425C11.2787 9.39544 10.2526 9.93367 9.30441 10.6229C7.08799 12.234 5.92763 14.84 6.13621 17.4796C6.16378 17.826 5.93363 18.1413 5.59559 18.2264C5.2108 18.3235 4.82721 18.351 4.45801 18.3187C5.27194 19.1614 6.50541 19.5797 7.75927 19.2621L8.36942 19.1074C7.92349 16.2701 9.08625 13.3884 11.4681 11.6574C12.6249 10.8171 13.8991 10.1998 15.2452 9.81979C15.0906 9.25639 14.7945 8.73136 14.3666 8.30342L14.3678 8.30461Z" fill="#3D1C0B"/>
<path d="M11.3959 11.5603C8.64126 13.5621 7.4881 17.1091 8.54057 20.348L10.2296 25.5469C10.8397 27.4253 12.5898 28.6971 14.5653 28.6971H22.4301C24.4056 28.6971 26.1557 27.4253 26.7658 25.5469L28.4548 20.348C29.5073 17.1103 28.3541 13.5621 25.5995 11.5603C21.3644 8.48317 15.6298 8.48317 11.3947 11.5603H11.3959Z" fill="#D88A55"/>
<path d="M25.6004 11.5601C22.9381 9.62536 19.6836 8.90853 16.5801 9.40599C18.4129 9.69968 20.193 10.4177 21.7657 11.5601C24.5204 13.5619 25.6735 17.1089 24.6211 20.3479L22.9321 25.5467C22.3219 27.4251 20.5718 28.6969 18.5963 28.6969H22.431C24.4065 28.6969 26.1566 27.4251 26.7668 25.5467L28.4558 20.3479C29.5082 17.1101 28.3551 13.5619 25.6004 11.5601Z" fill="#C57A44"/>
<path d="M19.1505 24.2381C18.9911 24.4347 18.7538 24.5485 18.4996 24.5485C18.2455 24.5485 18.0081 24.4359 17.8487 24.2381L17.6006 23.9336V28.6973H19.3987V23.9336L19.1505 24.2381Z" fill="#663F2E"/>
<path d="M14.1412 18.9888C13.645 18.9888 13.2422 18.5861 13.2422 18.0898V16.8431C13.2422 16.3469 13.645 15.9441 14.1412 15.9441C14.6375 15.9441 15.0403 16.3469 15.0403 16.8431V18.0898C15.0403 18.5861 14.6375 18.9888 14.1412 18.9888Z" fill="#222222"/>
<path d="M22.8551 18.9888C22.3588 18.9888 21.9561 18.5861 21.9561 18.0898V16.8431C21.9561 16.3469 22.3588 15.9441 22.8551 15.9441C23.3514 15.9441 23.7541 16.3469 23.7541 16.8431V18.0898C23.7541 18.5861 23.3514 18.9888 22.8551 18.9888Z" fill="#222222"/>
<path d="M19.244 24.3135L21.259 21.8346C21.7685 21.2077 21.3225 20.2703 20.5146 20.2703H16.4845C15.6766 20.2703 15.2307 21.2077 15.7401 21.8346L17.7552 24.3135C18.1387 24.7858 18.8592 24.7858 19.244 24.3135Z" fill="#3D1C0B"/>
</g>
</g>
<defs>
<filter id="filter0_d_1812_14472" x="-1.5" y="0" width="40" height="40" filterUnits="userSpaceOnUse" color-interpolation-filters="sRGB">
<feFlood flood-opacity="0" result="BackgroundImageFix"/>
<feColorMatrix in="SourceAlpha" type="matrix" values="0 0 0 0 0 0 0 0 0 0 0 0 0 0 0 0 0 0 127 0" result="hardAlpha"/>
<feOffset dy="2"/>
<feGaussianBlur stdDeviation="1"/>
<feColorMatrix type="matrix" values="0 0 0 0 0 0 0 0 0 0 0 0 0 0 0 0 0 0 0.2 0"/>
<feBlend mode="normal" in2="BackgroundImageFix" result="effect1_dropShadow_1812_14472"/>
<feBlend mode="normal" in="SourceGraphic" in2="effect1_dropShadow_1812_14472" result="shape"/>
</filter>
<filter id="filter1_d_1812_14472" x="1.5" y="7.30249" width="34" height="25.3948" filterUnits="userSpaceOnUse" color-interpolation-filters="sRGB">
<feFlood flood-opacity="0" result="BackgroundImageFix"/>
<feColorMatrix in="SourceAlpha" type="matrix" values="0 0 0 0 0 0 0 0 0 0 0 0 0 0 0 0 0 0 127 0" result="hardAlpha"/>
<feOffset dy="2"/>
<feGaussianBlur stdDeviation="1"/>
<feComposite in2="hardAlpha" operator="out"/>
<feColorMatrix type="matrix" values="0 0 0 0 0 0 0 0 0 0 0 0 0 0 0 0 0 0 0.2 0"/>
<feBlend mode="normal" in2="BackgroundImageFix" result="effect1_dropShadow_1812_14472"/>
<feBlend mode="normal" in="SourceGraphic" in2="effect1_dropShadow_1812_14472" result="shape"/>
</filter>
</defs>
</svg>
