<svg width="29" height="28" viewBox="0 0 29 28" fill="none" xmlns="http://www.w3.org/2000/svg">
<ellipse cx="14.5" cy="23.9999" rx="6" ry="1" fill="#33DDBC"/>
<path d="M13.28 11.5599V5.43985H3.5V13.9999C3.5 17.3799 6.24 20.1099 9.61 20.1099C12.24 20.1099 14.47 18.4499 15.34 16.1299C14.08 15.0099 13.28 13.3799 13.28 11.5499V11.5599Z" fill="#FFDD33"/>
<path d="M15.7203 7.88986C15.7203 6.53986 14.6303 5.44986 13.2803 5.44986V11.5599C13.2803 13.3799 14.0803 15.0199 15.3403 16.1399C15.5903 15.4799 15.7203 14.7599 15.7203 14.0099V7.89986V7.88986Z" fill="#33DDBC"/>
<path d="M15.7203 2.99991C14.8203 2.99991 14.0403 3.47991 13.6203 4.19991C13.4003 4.55991 13.2803 4.98991 13.2803 5.43991C14.6303 5.43991 15.7203 6.52991 15.7203 7.87991V13.9899C15.7203 14.7399 15.5803 15.4599 15.3403 16.1199C16.4203 17.0699 17.8403 17.6599 19.3903 17.6599C22.7703 17.6599 25.5003 14.9199 25.5003 11.5499V2.99991H15.7203Z" fill="#1C88F4"/>
</svg>
