<svg width="20" height="21" viewBox="0 0 20 21" fill="none" xmlns="http://www.w3.org/2000/svg">
<path d="M5.14746 15.0918C3.4098 15.0918 1.99953 13.6815 1.99953 11.9439L1.99953 8.79594C1.99953 7.05828 3.4098 5.64801 5.14746 5.64801L5.14746 15.0918Z" fill="#9EAEB6"/>
<path d="M5.14746 15.0918H12.3877C12.3877 16.8295 10.9774 18.2397 9.23977 18.2397H8.29539C6.55773 18.2397 5.14746 16.8295 5.14746 15.0918Z" fill="#9EAEB6"/>
<path d="M5.14746 5.64795C5.14746 3.91029 6.55773 2.50002 8.29539 2.50002L11.4433 2.50002C13.181 2.50002 14.5913 3.91029 14.5913 5.64795L5.14746 5.64795Z" fill="#9EAEB6"/>
<path d="M14.5913 5.64795C16.3305 5.64795 17.7392 7.05665 17.7392 8.79588V9.74026C17.7392 11.4795 16.3305 12.8882 14.5913 12.8882V5.64795Z" fill="#9EAEB6"/>
<path d="M10.8774 10.0415L9.54186 11.3771C9.296 11.6229 9.296 12.0216 9.54186 12.2675L15.3293 18.0548C15.5751 18.3007 15.9738 18.3007 16.2196 18.0548L17.5552 16.7193C17.8011 16.4734 17.8011 16.0748 17.5552 15.8289L11.7678 10.0415C11.5219 9.79566 11.1233 9.79566 10.8774 10.0415Z" fill="#9EAEB6"/>
</svg>
