<svg width="32" height="32" viewBox="0 0 32 32" fill="none" xmlns="http://www.w3.org/2000/svg">
<path d="M24.5027 7.49733C23.0373 4.25867 19.7847 2 16 2C12.2153 2 8.96267 4.25867 7.49733 7.49733C4.25867 8.96267 2 12.2153 2 16C2 19.7847 4.25867 23.0373 7.49733 24.5027C8.96267 27.7413 12.2153 30 16 30C19.7847 30 23.0373 27.7413 24.5027 24.5027C27.7413 23.0373 30 19.7847 30 16C30 12.2153 27.7413 8.96267 24.5027 7.49733Z" fill="#00C29D"/>
<path d="M17.7167 10.627V20.847L16.0367 20.833V12.405L14.1467 13.343L13.5167 11.915L16.0367 10.627H17.7167Z" fill="white"/>
</svg>
