<svg width="32" height="32" viewBox="0 0 32 32" fill="none" xmlns="http://www.w3.org/2000/svg">
<path d="M24.5027 7.49733C23.0373 4.25867 19.7847 2 16 2C12.2153 2 8.96267 4.25867 7.49733 7.49733C4.25867 8.96267 2 12.2153 2 16C2 19.7847 4.25867 23.0373 7.49733 24.5027C8.96267 27.7413 12.2153 30 16 30C19.7847 30 23.0373 27.7413 24.5027 24.5027C27.7413 23.0373 30 19.7847 30 16C30 12.2153 27.7413 8.96267 24.5027 7.49733Z" fill="#00C29D"/>
<path d="M12.8416 19.377C14.8996 17.403 17.5876 15.611 17.5876 13.945C17.5876 12.853 16.9016 12.083 15.9216 12.083C15.1516 12.083 14.3816 12.629 14.0316 13.413L12.5756 12.755C13.1636 11.453 14.5496 10.529 15.9216 10.529C17.8956 10.529 19.2676 11.943 19.2676 13.945C19.2676 16.087 17.1116 17.837 15.2636 19.377H19.4216V20.847H12.9816L12.8416 19.377Z" fill="white"/>
</svg>
