<svg width="29" height="28" viewBox="0 0 29 28" fill="none" xmlns="http://www.w3.org/2000/svg">
<g clip-path="url(#clip0_1681_7139)">
<path d="M2 10C2 7.79086 3.79086 6 6 6V22C3.79086 22 2 20.2091 2 18V10Z" fill="#1C88F4"/>
<path d="M10 26C7.79086 26 6 24.2091 6 22H22C22 24.2091 20.2091 26 18 26H10Z" fill="#FFDD33"/>
<path d="M18 2C20.2091 2 22 3.79086 22 6L6 6C6 3.79086 7.79086 2 10 2L18 2Z" fill="#FFDD33"/>
<path d="M26 18C26 20.2091 24.2091 22 22 22L22 6C24.2091 6 26 7.79086 26 10L26 18Z" fill="#1C88F4"/>
<path d="M13 8C13 7.44772 13.4477 7 14 7H15C15.5523 7 16 7.44772 16 8V15C16 15.5523 15.5523 16 15 16H14C13.4477 16 13 15.5523 13 15V8Z" fill="#33DDBC"/>
<path d="M19 13C19.5523 13 20 13.4477 20 14L20 15C20 15.5523 19.5523 16 19 16L14 16C13.4477 16 13 15.5523 13 15L13 14C13 13.4477 13.4477 13 14 13L19 13Z" fill="#33DDBC"/>
<path d="M12.1665 14.5C12.1665 13.1193 13.2858 12 14.6665 12C16.0472 12 17.1665 13.1193 17.1665 14.5C17.1665 15.8807 16.0472 17 14.6665 17C13.2858 17 12.1665 15.8807 12.1665 14.5Z" fill="#E7E8F0"/>
</g>
<defs>
<clipPath id="clip0_1681_7139">
<rect width="24" height="24" fill="white" transform="translate(2 2)"/>
</clipPath>
</defs>
</svg>
