<svg width="40" height="40" viewBox="0 0 40 40" fill="none" xmlns="http://www.w3.org/2000/svg">
<path d="M30.932 9.068C29.048 4.904 24.866 2 20 2C15.134 2 10.952 4.904 9.068 9.068C4.904 10.952 2 15.134 2 20C2 24.866 4.904 29.048 9.068 30.932C10.952 35.096 15.134 38 20 38C24.866 38 29.048 35.096 30.932 30.932C35.096 29.048 38 24.866 38 20C38 15.134 35.096 10.952 30.932 9.068Z" fill="#9563FF"/>
<g clip-path="url(#clip0_1074_22914)">
<path d="M14.4995 25.5H25.4995C25.4995 26.33 24.8295 27 23.9995 27H15.9995C15.1695 27 14.4995 26.33 14.4995 25.5Z" fill="white"/>
<path d="M19.9998 11.7497L11.3398 16.7497C10.9298 16.0297 11.1698 15.1197 11.8898 14.6997L17.9498 11.1997C18.6698 10.7897 19.5798 11.0297 19.9998 11.7497Z" fill="white"/>
<path d="M19.9995 11.7497L28.6595 16.7497C29.0695 16.0297 28.8295 15.1197 28.1095 14.6997L22.0495 11.1997C21.3295 10.7897 20.4195 11.0297 19.9995 11.7497Z" fill="white"/>
<path d="M14.4995 16V25.5C13.6695 25.5 12.9995 24.83 12.9995 24V17.5C12.9995 16.67 13.6695 16 14.4995 16Z" fill="white"/>
<path d="M25.4995 16V25.5C26.3295 25.5 26.9995 24.83 26.9995 24V17.5C26.9995 16.67 26.3295 16 25.4995 16Z" fill="white"/>
<path d="M17.4995 17.5V22.5C16.6695 22.5 15.9995 21.83 15.9995 21V19C15.9995 18.17 16.6695 17.5 17.4995 17.5Z" fill="white"/>
<path d="M22.4995 17.5V22.5C23.3295 22.5 23.9995 21.83 23.9995 21V19C23.9995 18.17 23.3295 17.5 22.4995 17.5Z" fill="white"/>
<path d="M22.4995 17.5H17.4995C17.4995 16.67 18.1695 16 18.9995 16H20.9995C21.8295 16 22.4995 16.67 22.4995 17.5Z" fill="white"/>
<path d="M22.4995 22.5H17.4995C17.4995 23.33 18.1695 24 18.9995 24H20.9995C21.8295 24 22.4995 23.33 22.4995 22.5Z" fill="white"/>
</g>
<defs>
<clipPath id="clip0_1074_22914">
<rect width="17.72" height="16" fill="white" transform="translate(11.1396 11)"/>
</clipPath>
</defs>
</svg>
