<svg width="40" height="40" viewBox="0 0 40 40" fill="none" xmlns="http://www.w3.org/2000/svg">
<path d="M21.1188 4.24714C17.8556 3.99683 14.6139 4.74789 11.8172 6.36967C10.6667 7.03685 10.5087 8.57146 11.3436 9.60668C12.175 10.6374 13.6768 10.7738 14.8619 10.1829C16.6704 9.28128 18.7038 8.87608 20.7494 9.03298C23.5986 9.25153 26.2572 10.5442 28.184 12.6478C30.1109 14.7514 31.1613 17.5079 31.1214 20.3563C31.0815 23.2047 29.9543 25.931 27.9693 27.9801C25.9842 30.0293 23.2905 31.2474 20.4363 31.3866C17.5821 31.5257 14.782 30.5755 12.6059 28.7292C11.0474 27.4069 9.89276 25.6963 9.24589 23.7918C8.81848 22.5335 7.65235 21.5681 6.33166 21.7157C5.00967 21.8636 4.04035 23.0637 4.38622 24.3482C5.22471 27.462 6.99364 30.2707 9.48516 32.3846C12.594 35.0221 16.5941 36.3796 20.6715 36.1808C24.7489 35.982 28.5971 34.2419 31.4329 31.3145C34.2687 28.3871 35.8789 24.4925 35.9359 20.4234C35.9929 16.3542 34.4924 12.4163 31.7397 9.41114C28.987 6.40596 25.1891 4.55935 21.1188 4.24714Z" fill="#00C29D"/>
</svg>
