<svg width="24" height="24" viewBox="0 0 24 24" fill="none" xmlns="http://www.w3.org/2000/svg">
<path fill-rule="evenodd" clip-rule="evenodd" d="M14.6506 8.65213C13.5837 8.36625 12.487 8.99941 12.2011 10.0663L10.3894 16.8278C10.1035 17.8948 10.7367 18.9914 11.8036 19.2773L18.5651 21.089C19.632 21.3749 20.7287 20.7418 21.0146 19.6748L22.8263 12.9134C23.1122 11.8464 22.479 10.7497 21.4121 10.4639L14.6506 8.65213ZM16.3707 15.756C16.8597 15.887 17.3623 15.5968 17.4934 15.1078C17.6244 14.6188 17.3342 14.1162 16.8452 13.9852C16.3562 13.8541 15.8535 14.1443 15.7225 14.6333C15.5915 15.1223 15.8817 15.625 16.3707 15.756ZM2.58784 4.72268C1.52091 5.00856 0.887742 6.10524 1.17363 7.17217L2.98536 13.9336C3.27124 15.0006 4.36792 15.6337 5.43485 15.3479L12.1963 13.5361C13.2633 13.2502 13.8964 12.1536 13.6105 11.0866L11.7988 4.32516C11.5129 3.25823 10.4163 2.62506 9.34932 2.91095L2.58784 4.72268ZM6.03237 7.59576C6.1634 8.08477 5.8732 8.58741 5.38418 8.71844C4.89517 8.84947 4.39253 8.55927 4.2615 8.07026C4.13047 7.58125 4.42067 7.0786 4.90968 6.94757C5.39869 6.81654 5.90134 7.10674 6.03237 7.59576ZM9.57411 6.64675C9.70514 7.13576 9.41494 7.6384 8.92593 7.76943C8.43692 7.90046 7.93428 7.61026 7.80325 7.12125C7.67222 6.63224 7.96242 6.1296 8.45143 5.99856C8.94044 5.86754 9.44308 6.15774 9.57411 6.64675ZM9.87483 11.3112C10.3638 11.1801 10.654 10.6775 10.523 10.1885C10.392 9.69947 9.88934 9.40927 9.40032 9.5403C8.91131 9.67133 8.62111 10.174 8.75214 10.663C8.88317 11.152 9.38582 11.4422 9.87483 11.3112ZM6.98122 11.1375C7.11225 11.6265 6.82205 12.1291 6.33304 12.2602C5.84403 12.3912 5.34138 12.101 5.21035 11.612C5.07932 11.123 5.36953 10.6203 5.85854 10.4893C6.34755 10.3583 6.85019 10.6485 6.98122 11.1375Z" fill="#9EAEB6"/>
</svg>
