<svg width="37" height="36" viewBox="0 0 37 36" fill="none" xmlns="http://www.w3.org/2000/svg">
<g filter="url(#filter0_d_1812_11838)">
<path d="M32.5897 17.2395C33.6443 16.9616 34.2741 15.8814 33.9962 14.8267C33.7183 13.7721 32.6381 13.1424 31.5835 13.4202C30.5288 13.6981 29.8991 14.7783 30.1769 15.833C30.4548 16.8876 31.535 17.5173 32.5897 17.2395Z" fill="#FED2A4"/>
<path d="M10.4668 19.3398L8.48522 23.1992C8.40181 23.3627 8.25978 23.4867 8.08733 23.5498C7.70071 23.6896 6.98722 24.0401 6.70993 24.7807C6.58031 25.1267 6.84745 25.4953 7.21716 25.4953H10.0745C10.2605 25.4953 10.4318 25.3995 10.5299 25.2417C11.0687 24.3771 12.8417 21.5356 13.5642 20.4625L10.4679 19.3398H10.4668Z" fill="#FED2A4"/>
<path d="M28.9775 11.9594L27.5731 10.5482C26.2036 9.92376 24.6007 9.68142 22.9415 9.97448C18.5749 10.7443 7.33935 16.051 7.33935 16.051C7.33935 16.051 5.95632 16.6146 5.89884 17.6257C5.84135 18.6356 3.70312 20.6093 3.70312 20.6093C3.70312 20.6093 3.89362 21.0489 4.34335 21.4186L27.9022 20.6014L28.9775 11.9594Z" fill="#FFF3DE"/>
<path d="M31.632 15.8153C31.3491 13.5069 29.7586 11.5423 27.5742 10.5481C27.8605 11.1455 28.0532 11.788 28.1355 12.4586C28.5954 16.2155 25.4506 19.6916 21.1122 20.2225C20.3434 20.3161 19.5882 20.3116 18.8635 20.2192C17.3813 20.1245 10.7378 19.6657 8.09004 18.8519C7.19282 18.5769 6.35534 18.4585 5.59112 18.4202C4.98584 19.4234 3.70312 20.608 3.70312 20.608C3.70312 20.608 4.1213 21.5774 5.1876 21.8468C6.2539 22.1162 8.59727 21.29 11.5865 22.2075C14.2342 23.0213 20.8766 23.48 22.3599 23.5747C23.0847 23.6671 23.8388 23.6728 24.6086 23.5781C28.9471 23.0472 32.0919 19.571 31.632 15.8142V15.8153Z" fill="#FAE2C0"/>
<path d="M11.6082 17.0024C12.6629 16.7245 13.2926 15.6443 13.0148 14.5897C12.7369 13.535 11.6567 12.9053 10.602 13.1832C9.54735 13.461 8.91764 14.5412 9.1955 15.5959C9.47337 16.6506 10.5536 17.2803 11.6082 17.0024Z" fill="#FFCEBF"/>
<path d="M3.73059 19.2083C2.46028 19.3763 1.64985 20.7052 3.99886 21.4739C4.29868 21.572 4.6109 21.3623 4.63908 21.049C4.70671 20.2938 4.6729 19.0843 3.73059 19.2094" fill="#FFCEBF"/>
<path d="M22.7977 18.7461C21.9095 21.8424 23.873 23.5129 22.7977 24.2219C22.047 24.7178 20.7237 24.684 19.9944 25.1619C19.547 25.4539 19.7544 26.1493 20.2886 26.1493H26.3877C26.6053 26.1493 26.8003 26.0186 26.8837 25.818L27.7674 23.6921L27.9026 15.8493C27.9026 15.8493 23.6859 15.6487 22.7977 18.745V18.7461Z" fill="#FAE2C0"/>
<path d="M12.8278 20.6971L11.5428 23.1994C11.4594 23.3628 11.3174 23.4868 11.1449 23.5499C10.7583 23.6897 10.0448 24.0403 9.76755 24.7808C9.63793 25.1268 9.90507 25.4954 10.2748 25.4954H12.4333C12.6193 25.4954 12.7906 25.3996 12.8887 25.2418C13.4275 24.3773 15.2005 21.5357 15.923 20.4626L12.8289 20.6971H12.8278Z" fill="#FAE2C0"/>
<path d="M8.16992 18.8578V17.9921C8.16992 17.6472 8.44946 17.3677 8.79437 17.3677C9.13928 17.3677 9.41882 17.6472 9.41882 17.9921V18.8578C9.41882 19.2027 9.13928 19.4822 8.79437 19.4822C8.44946 19.4822 8.16992 19.2027 8.16992 18.8578Z" fill="#222222"/>
</g>
<defs>
<filter id="filter0_d_1812_11838" x="-1.5" y="0" width="40" height="40" filterUnits="userSpaceOnUse" color-interpolation-filters="sRGB">
<feFlood flood-opacity="0" result="BackgroundImageFix"/>
<feColorMatrix in="SourceAlpha" type="matrix" values="0 0 0 0 0 0 0 0 0 0 0 0 0 0 0 0 0 0 127 0" result="hardAlpha"/>
<feOffset dy="2"/>
<feGaussianBlur stdDeviation="1"/>
<feColorMatrix type="matrix" values="0 0 0 0 0 0 0 0 0 0 0 0 0 0 0 0 0 0 0.2 0"/>
<feBlend mode="normal" in2="BackgroundImageFix" result="effect1_dropShadow_1812_11838"/>
<feBlend mode="normal" in="SourceGraphic" in2="effect1_dropShadow_1812_11838" result="shape"/>
</filter>
</defs>
</svg>
