<svg width="20" height="20" viewBox="0 0 20 20" fill="none" xmlns="http://www.w3.org/2000/svg">
<circle cx="10" cy="10" r="9.25" stroke="#222222" stroke-width="1.5"/>
<path d="M7.14307 5.71356C7.31645 5.56405 7.50186 5.42418 7.69932 5.29396C7.9016 5.16374 8.11832 5.0504 8.3495 4.95394C8.58548 4.85748 8.83833 4.78272 9.10803 4.72967C9.38255 4.67179 9.67633 4.64286 9.98937 4.64286C10.4228 4.64286 10.8153 4.70314 11.1669 4.82372C11.5185 4.93947 11.8195 5.10828 12.0699 5.33013C12.3204 5.54717 12.513 5.81002 12.6479 6.11869C12.7875 6.42737 12.8574 6.77221 12.8574 7.15323C12.8574 7.51977 12.8044 7.83809 12.6984 8.10818C12.5973 8.37344 12.4672 8.60495 12.3083 8.80269C12.1542 9.00043 11.9832 9.17165 11.7954 9.31634C11.6076 9.46103 11.4294 9.59607 11.2608 9.72147C11.0923 9.84687 10.9454 9.97227 10.8201 10.0977C10.6997 10.2182 10.6251 10.3533 10.5962 10.5028L10.4156 11.5373H9.05024L8.91298 10.3653C8.87927 10.1338 8.90816 9.93368 8.99967 9.76488C9.09117 9.59125 9.21398 9.4345 9.3681 9.29464C9.52221 9.14995 9.69318 9.01249 9.88101 8.88227C10.0737 8.74723 10.2518 8.60495 10.4156 8.45544C10.5842 8.3011 10.7238 8.12988 10.8346 7.94179C10.9502 7.74887 11.008 7.52219 11.008 7.26174C11.008 6.94343 10.8972 6.69022 10.6757 6.50212C10.4589 6.31403 10.17 6.21998 9.80877 6.21998C9.54389 6.21998 9.31994 6.24891 9.13693 6.30679C8.95873 6.36467 8.80462 6.42978 8.67458 6.50212C8.54455 6.56964 8.43378 6.63234 8.34227 6.69022C8.25077 6.74809 8.16408 6.77703 8.0822 6.77703C7.89919 6.77703 7.76193 6.69745 7.67043 6.53829L7.14307 5.71356ZM8.49398 14.2069C8.49398 14.0477 8.52287 13.8982 8.58067 13.7583C8.64328 13.6136 8.72756 13.4906 8.83351 13.3894C8.93947 13.2833 9.06228 13.2013 9.20194 13.1434C9.34643 13.0807 9.50295 13.0493 9.67151 13.0493C9.83526 13.0493 9.98937 13.0807 10.1339 13.1434C10.2783 13.2013 10.4036 13.2833 10.5095 13.3894C10.6155 13.4906 10.6973 13.6136 10.7551 13.7583C10.8177 13.8982 10.849 14.0477 10.849 14.2069C10.849 14.3708 10.8177 14.5228 10.7551 14.6626C10.6973 14.8025 10.6155 14.9255 10.5095 15.0316C10.4036 15.1329 10.2783 15.2125 10.1339 15.2703C9.98937 15.3282 9.83526 15.3571 9.67151 15.3571C9.50295 15.3571 9.34643 15.3282 9.20194 15.2703C9.06228 15.2125 8.93947 15.1329 8.83351 15.0316C8.72756 14.9255 8.64328 14.8025 8.58067 14.6626C8.52287 14.5228 8.49398 14.3708 8.49398 14.2069Z" fill="#222222"/>
</svg>
