<svg width="71" height="16" viewBox="0 0 71 16" fill="none" xmlns="http://www.w3.org/2000/svg">
<g clip-path="url(#clip0_80_12502)">
<path d="M53.8332 5.5V11.8333C53.8332 12.0175 53.684 12.1667 53.4998 12.1667H52.4998C52.3157 12.1667 52.1665 12.0175 52.1665 11.8333V7.16667C52.1665 6.24583 52.9123 5.5 53.8332 5.5Z" fill="#00C29D"/>
<path d="M58.8335 5.5C59.7543 5.5 60.5002 6.24583 60.5002 7.16667V11.8333C60.5002 12.0175 60.351 12.1667 60.1668 12.1667H59.1668C58.9827 12.1667 58.8335 12.0175 58.8335 11.8333V5.5Z" fill="#00C29D"/>
<path d="M53.8335 5.50016C53.8335 4.57933 54.5793 3.8335 55.5002 3.8335H57.1668C58.0877 3.8335 58.8335 4.57933 58.8335 5.50016H53.8335Z" fill="#00C29D"/>
<path d="M30.5002 10.5C29.5793 10.5 28.8335 9.75417 28.8335 8.83333V7.16667C28.8335 6.24583 29.5793 5.5 30.5002 5.5V10.5Z" fill="#00C29D"/>
<path d="M35.5 10.5C35.5 11.4208 34.7542 12.1667 33.8333 12.1667H32.1667C31.2458 12.1667 30.5 11.4208 30.5 10.5H35.5Z" fill="#00C29D"/>
<path d="M35.8333 0.5H36.8333C37.0175 0.5 37.1667 0.649167 37.1667 0.833333V8.83333C37.1667 9.75417 36.4208 10.5 35.5 10.5V0.833333C35.5 0.649167 35.6492 0.5 35.8333 0.5Z" fill="#00C29D"/>
<path d="M30.5 5.50016C30.5 4.57933 31.2458 3.8335 32.1667 3.8335H33.8333C34.7542 3.8335 35.5 4.57933 35.5 5.50016H30.5Z" fill="#00C29D"/>
<path d="M49.1667 2.1665H50.1667C50.3508 2.1665 50.5 2.01727 50.5 1.83317V0.83317C50.5 0.649076 50.3508 0.499837 50.1667 0.499837L49.1667 0.499837C48.9826 0.499837 48.8333 0.649076 48.8333 0.83317V1.83317C48.8333 2.01727 48.9826 2.1665 49.1667 2.1665Z" fill="#00C29D"/>
<path d="M49.1667 12.1665H50.1667C50.3508 12.1665 50.5 12.0173 50.5 11.8332V4.1665C50.5 3.98241 50.3508 3.83317 50.1667 3.83317H49.1667C48.9826 3.83317 48.8333 3.98241 48.8333 4.1665V11.8332C48.8333 12.0173 48.9826 12.1665 49.1667 12.1665Z" fill="#00C29D"/>
<path d="M0.833333 0.5H1.83333C2.0175 0.5 2.16667 0.649167 2.16667 0.833333V10.5C1.24583 10.5 0.5 9.75417 0.5 8.83333V0.833333C0.5 0.649167 0.649167 0.5 0.833333 0.5Z" fill="#00C29D"/>
<path d="M10.8333 0.5H11.8333C12.0175 0.5 12.1667 0.649167 12.1667 0.833333V8.83333C12.1667 9.75417 11.4208 10.5 10.5 10.5V0.833333C10.5 0.649167 10.6492 0.5 10.8333 0.5Z" fill="#00C29D"/>
<path d="M5.49984 10.5C5.49984 11.4208 4.754 12.1667 3.83317 12.1667C2.91234 12.1667 2.1665 11.4208 2.1665 10.5H5.49984Z" fill="#00C29D"/>
<path d="M7.1665 10.5H5.49984L5.49984 4.16667C5.49984 3.9825 5.649 3.83333 5.83317 3.83333H6.83317C7.01734 3.83333 7.1665 3.9825 7.1665 4.16667L7.1665 10.5Z" fill="#00C29D"/>
<path d="M10.4998 10.5C10.4998 11.4208 9.754 12.1667 8.83317 12.1667C7.91234 12.1667 7.1665 11.4208 7.1665 10.5H10.4998Z" fill="#00C29D"/>
<path d="M27.1668 8.83333H23.8335C23.8335 8.37333 24.2068 8 24.6668 8H26.3335C26.7935 8 27.1668 8.37333 27.1668 8.83333Z" fill="#00C29D"/>
<path d="M27.1668 7.1665C27.1668 7.6265 26.7935 7.99984 26.3335 7.99984H24.6668C24.2068 7.99984 23.8335 7.6265 23.8335 7.1665H27.1668Z" fill="#00C29D"/>
<path d="M20.5 5.50016H15.5C15.5 4.57933 16.2458 3.8335 17.1667 3.8335H18.8333C19.7542 3.8335 20.5 4.57933 20.5 5.50016Z" fill="#00C29D"/>
<path d="M15.5 7.1665C15.5 8.08734 16.2458 8.83317 17.1667 8.83317H18.8333C19.7542 8.83317 20.5 8.08734 20.5 7.1665H15.5Z" fill="#00C29D"/>
<path d="M15.5 10.4998H20.1667C20.3508 10.4998 20.5 10.649 20.5 10.8332V11.8332C20.5 12.0173 20.3508 12.1665 20.1667 12.1665H17.1667C16.2467 12.1665 15.5 11.4198 15.5 10.4998Z" fill="#00C29D"/>
<path d="M15.5002 5.5V10.5C14.5793 10.5 13.8335 9.75417 13.8335 8.83333V7.16667C13.8335 6.24583 14.5793 5.5 15.5002 5.5Z" fill="#00C29D"/>
<path d="M21.3333 5.5H20.5V7.16667H21.3333C21.7933 7.16667 22.1667 6.79333 22.1667 6.33333C22.1667 5.87333 21.7933 5.5 21.3333 5.5Z" fill="#00C29D"/>
<path d="M40.5002 10.5C39.5793 10.5 38.8335 9.75417 38.8335 8.83333V7.16667C38.8335 6.24583 39.5793 5.5 40.5002 5.5V10.5Z" fill="#00C29D"/>
<path d="M45.5 10.5C45.5 11.4208 44.7542 12.1667 43.8333 12.1667H42.1667C41.2458 12.1667 40.5 11.4208 40.5 10.5H45.5Z" fill="#00C29D"/>
<path d="M45.8333 0.5H46.8333C47.0175 0.5 47.1667 0.649167 47.1667 0.833333V8.83333C47.1667 9.75417 46.4208 10.5 45.5 10.5V0.833333C45.5 0.649167 45.6492 0.5 45.8333 0.5Z" fill="#00C29D"/>
<path d="M40.5 5.50016C40.5 4.57933 41.2458 3.8335 42.1667 3.8335H43.8333C44.7542 3.8335 45.5 4.57933 45.5 5.50016H40.5Z" fill="#00C29D"/>
<path d="M63.8332 5.5C62.9123 5.5 62.1665 6.24583 62.1665 7.16667V8.83333C62.1665 9.75417 62.9123 10.5 63.8332 10.5V5.5Z" fill="#00C29D"/>
<path d="M68.8335 5.50016C68.8335 4.57933 68.0877 3.8335 67.1668 3.8335H65.5002C64.5793 3.8335 63.8335 4.57933 63.8335 5.50016H68.8335Z" fill="#00C29D"/>
<path d="M63.8335 10.5C63.8335 11.4208 64.5793 12.1667 65.5002 12.1667H67.1668C68.0877 12.1667 68.8335 11.4208 68.8335 10.5H63.8335Z" fill="#00C29D"/>
<path d="M68.8335 13.8335C68.8335 14.7543 68.0877 15.5002 67.1668 15.5002H64.1668C63.9827 15.5002 63.8335 15.351 63.8335 15.1668V14.1668C63.8335 13.9827 63.9827 13.8335 64.1668 13.8335H68.8335Z" fill="#00C29D"/>
<path d="M68.8335 5.5C69.7543 5.5 70.5002 6.24583 70.5002 7.16667V12.1667C70.5002 13.0875 69.7543 13.8333 68.8335 13.8333V5.5Z" fill="#00C29D"/>
</g>
<defs>
<clipPath id="clip0_80_12502">
<rect width="70" height="15" fill="white" transform="translate(0.5 0.5)"/>
</clipPath>
</defs>
</svg>
