<svg width="29" height="28" viewBox="0 0 29 28" fill="none" xmlns="http://www.w3.org/2000/svg">
<path d="M2.8335 16C2.8335 12.6863 5.51979 10 8.8335 10H20.8335C24.1472 10 26.8335 12.6863 26.8335 16V20C26.8335 23.3137 24.1472 26 20.8335 26H2.8335V16Z" fill="#E7E8F0"/>
<path d="M7.3335 18C7.3335 17.1716 8.00507 16.5 8.8335 16.5C9.66192 16.5 10.3335 17.1716 10.3335 18C10.3335 18.8284 9.66192 19.5 8.8335 19.5C8.00507 19.5 7.3335 18.8284 7.3335 18Z" fill="white"/>
<path d="M13.3335 18C13.3335 17.1716 14.0051 16.5 14.8335 16.5C15.6619 16.5 16.3335 17.1716 16.3335 18C16.3335 18.8284 15.6619 19.5 14.8335 19.5C14.0051 19.5 13.3335 18.8284 13.3335 18Z" fill="white"/>
<path d="M19.3335 18C19.3335 17.1716 20.0051 16.5 20.8335 16.5C21.6619 16.5 22.3335 17.1716 22.3335 18C22.3335 18.8284 21.6619 19.5 20.8335 19.5C20.0051 19.5 19.3335 18.8284 19.3335 18Z" fill="white"/>
<path d="M25.5454 3.28632C24.7511 2.49203 23.6528 2 22.4386 2C21.2261 2 20.1278 2.49203 19.3317 3.28632C18.5375 2.49203 17.4392 2 16.2267 2C15.0141 2 13.9159 2.49203 13.1198 3.28632C12.3255 4.08236 11.8335 5.18065 11.8335 6.39316C11.8335 8.57744 12.7192 10.5544 14.1496 11.9848C15.4904 13.3256 17.3126 14.1884 19.3335 14.2903C21.3543 14.1884 23.1749 13.3256 24.5174 11.9848C25.9478 10.5544 26.8335 8.57744 26.8335 6.39316C26.8335 5.18065 26.3415 4.08236 25.5472 3.28632H25.5454Z" fill="#B1BBC0"/>
</svg>
