<svg width="24" height="24" viewBox="0 0 24 24" fill="none" xmlns="http://www.w3.org/2000/svg">
<path fill-rule="evenodd" clip-rule="evenodd" d="M3 3H2L2 4L2 14C2 16.7614 4.23858 19 7 19H11.2322C10.9114 18.3845 10.6863 17.7113 10.5764 17H7C5.34315 17 4 15.6569 4 14L4 5L17 5C18.6569 5 20 6.34315 20 8V10.2322C20.7699 10.6335 21.4495 11.1844 22 11.8464V8C22 5.23858 19.7614 3 17 3L3 3Z" fill="#222222"/>
<path fill-rule="evenodd" clip-rule="evenodd" d="M14 8C14 7.44772 14.4477 7 15 7C15.5523 7 16 7.44772 16 8C16 8.55228 15.5523 9 15 9C14.4477 9 14 8.55228 14 8ZM7 11C6.44772 11 6 11.4477 6 12C6 12.5523 6.44772 13 7 13C7.55228 13 8 12.5523 8 12C8 11.4477 7.55228 11 7 11ZM10 12C10 11.4477 10.4477 11 11 11C11.5523 11 12 11.4477 12 12C12 12.5523 11.5523 13 11 13C10.4477 13 10 12.5523 10 12ZM14 12C14 11.4477 14.4477 11 15 11C15.5523 11 16 11.4477 16 12C16 12.5523 15.5523 13 15 13C14.4477 13 14 12.5523 14 12ZM11 9C11.5523 9 12 8.55229 12 8C12 7.44772 11.5523 7 11 7L7 7C6.44772 7 6 7.44772 6 8C6 8.55228 6.44772 9 7 9L11 9Z" fill="#222222"/>
<path fill-rule="evenodd" clip-rule="evenodd" d="M17 21C19.7614 21 22 18.7614 22 16C22 13.2386 19.7614 11 17 11C14.2386 11 12 13.2386 12 16C12 18.7614 14.2386 21 17 21ZM18.8693 13.9697L16.3996 16.4393L15.1299 15.1697L14.0693 16.2303L15.8693 18.0303L16.3996 18.5607L16.9299 18.0303L19.9299 15.0303L18.8693 13.9697Z" fill="#222222"/>
</svg>
