<svg width="19" height="18" viewBox="0 0 19 18" fill="none" xmlns="http://www.w3.org/2000/svg">
<path d="M10.4001 12.1501C10.4001 12.6472 9.99715 13.0501 9.5001 13.0501C9.00304 13.0501 8.6001 12.6472 8.6001 12.1501C8.6001 11.653 9.00304 11.2501 9.5001 11.2501C9.99715 11.2501 10.4001 11.653 10.4001 12.1501Z" fill="#222222" fill-opacity="0.6"/>
<path d="M9.5001 4.9501C9.87289 4.9501 10.1751 5.25231 10.1751 5.6251V9.6751C10.1751 10.0479 9.87289 10.3501 9.5001 10.3501C9.12731 10.3501 8.8251 10.0479 8.8251 9.6751V5.6251C8.8251 5.25231 9.12731 4.9501 9.5001 4.9501Z" fill="#222222" fill-opacity="0.6"/>
<path fill-rule="evenodd" clip-rule="evenodd" d="M9.5001 17.1001C13.9736 17.1001 17.6001 13.4736 17.6001 9.0001C17.6001 4.52659 13.9736 0.900099 9.5001 0.900099C5.02659 0.900099 1.4001 4.52659 1.4001 9.0001C1.4001 13.4736 5.02659 17.1001 9.5001 17.1001ZM16.2501 9.0001C16.2501 12.728 13.228 15.7501 9.5001 15.7501C5.77218 15.7501 2.7501 12.728 2.7501 9.0001C2.7501 5.27218 5.77218 2.2501 9.5001 2.2501C13.228 2.2501 16.2501 5.27218 16.2501 9.0001Z" fill="#222222" fill-opacity="0.6"/>
</svg>
