<svg width="24" height="24" viewBox="0 0 24 24" fill="none" xmlns="http://www.w3.org/2000/svg">
<path fill-rule="evenodd" clip-rule="evenodd" d="M13.3577 10L12.0861 12.3411L12.3985 17.8001L17.2823 15.3411L20.9743 8.54381C20.9913 8.69352 21 8.84574 21 9V15C21 17.2091 19.2091 19 17 19H7C4.79086 19 3 17.2091 3 15V5H16.0735L14.444 8H7C6.44772 8 6 8.44772 6 9C6 9.55228 6.44772 10 7 10H13.3577ZM6 13C6 12.4477 6.44772 12 7 12H9C9.55228 12 10 12.4477 10 13C10 13.5523 9.55228 14 9 14H7C6.44772 14 6 13.5523 6 13Z" fill="#00C29D"/>
<path d="M13.4911 12.9067L18.616 3.38955C19.0168 2.64515 19.9536 2.37922 20.6858 2.80195C21.3879 3.20734 21.6406 4.09744 21.2562 4.81129L16.0892 14.4067L13.6473 15.6361L13.4911 12.9067Z" fill="#00C29D"/>
</svg>
