<svg width="37" height="36" viewBox="0 0 37 36" fill="none" xmlns="http://www.w3.org/2000/svg">
<g filter="url(#filter0_d_1812_10698)">
<path fill-rule="evenodd" clip-rule="evenodd" d="M30.0909 7.57949C29.286 6.77461 27.9678 6.77461 27.1629 7.57949L24.6963 10.0436C26.2693 10.7369 27.6243 11.7471 28.6484 12.9753L30.603 11.0208C31.4078 10.2159 31.4078 8.89771 30.603 8.09284L30.0896 7.57949H30.0909Z" fill="#6FD7A3"/>
<path fill-rule="evenodd" clip-rule="evenodd" d="M30.603 24.9789L28.6484 23.0244C27.6243 24.2514 26.2693 25.2603 24.6963 25.9537L27.1629 28.4177C27.9678 29.2251 29.286 29.2239 30.0909 28.4177L30.6042 27.9069C31.4091 27.0995 31.4091 25.7838 30.6042 24.9789H30.603Z" fill="#6FD7A3"/>
<path fill-rule="evenodd" clip-rule="evenodd" d="M30.0909 7.57949C29.286 6.77461 27.9678 6.77461 27.1629 7.57949L24.6963 10.0436C25.2401 10.2831 25.7572 10.5607 26.2427 10.87L28.0895 9.02447C28.8943 8.21959 30.2126 8.21959 31.0174 9.02447L31.1721 9.1791C31.0986 8.77983 30.9097 8.39831 30.603 8.09157L30.0896 7.57822L30.0909 7.57949Z" fill="#3EC3A4"/>
<path fill-rule="evenodd" clip-rule="evenodd" d="M30.6031 27.9068C31.408 27.0994 31.408 25.7837 30.6031 24.9788L28.7373 23.113C28.3849 23.5351 27.9945 23.9306 27.5674 24.2982L29.3546 26.0854C30.0974 26.8281 30.1544 28.0095 29.5244 28.8194C29.7285 28.7206 29.9212 28.5875 30.0898 28.4176L30.6031 27.9068Z" fill="#3EC3A4"/>
<path fill-rule="evenodd" clip-rule="evenodd" d="M30.9922 16.0173C32.5956 16.153 34.3879 17.5079 34.5007 19.9809C34.5045 20.0633 34.3867 20.1723 34.3271 20.1469C33.9722 19.9885 33.6261 19.8693 33.2864 19.7882C32.5183 19.6032 31.7806 19.6082 31.0379 19.7958C30.1747 18.9086 30.522 16.3291 30.9922 16.0199V16.0173Z" fill="#6FD7A3"/>
<path fill-rule="evenodd" clip-rule="evenodd" d="M30.9918 16.0173C32.5952 16.153 34.3875 17.5079 34.5003 19.9809C34.5041 20.0633 34.3862 20.1723 34.3267 20.1469C33.9718 19.9885 33.6257 19.8693 33.286 19.7882C32.9362 18.56 32.1174 17.7171 31.2009 17.2747C30.5279 16.9807 30.6775 16.5155 30.9905 16.0186L30.9918 16.0173Z" fill="#3EC3A4"/>
<path fill-rule="evenodd" clip-rule="evenodd" d="M9.64503 15.1378C8.27991 14.6055 7.16956 14.3925 6.1999 14.5294C4.13004 14.8248 2.64196 16.034 2.5 17.9961V18.005C2.64196 19.9658 4.13004 21.175 6.1999 21.4691C7.16956 21.6073 8.27864 21.3943 9.64503 20.8632C10.4157 19.0469 10.4372 17.0112 9.64503 15.1366V15.1378Z" fill="#6FD7A3"/>
<path fill-rule="evenodd" clip-rule="evenodd" d="M6.1999 14.5291C4.13004 14.8245 2.64196 16.0337 2.5 17.9958V18.0047C2.54563 18.6194 2.72308 19.1619 3.00954 19.6258C2.99687 19.5384 2.988 19.4471 2.98039 19.3559V19.347C2.41254 15.4988 7.51306 14.7281 9.33069 16.2061C10.1977 16.3277 10.1318 15.3403 9.64503 15.1388C8.27991 14.6064 7.16956 14.3935 6.1999 14.5304V14.5291Z" fill="#3EC3A4"/>
<path fill-rule="evenodd" clip-rule="evenodd" d="M11.2005 23.5415L9.76186 24.9801C8.95698 25.785 8.95698 27.1007 9.76186 27.9081L10.2752 28.4189C11.0801 29.2263 12.3983 29.2251 13.2032 28.4189L15.1526 26.4708C13.9916 24.8711 12.6848 23.757 11.2005 23.5415Z" fill="#6FD7A3"/>
<path fill-rule="evenodd" clip-rule="evenodd" d="M12.3818 24.7355C12.6974 23.828 12.0219 23.6315 11.2005 23.5415L9.76186 24.9801C8.95698 25.785 8.95698 27.1007 9.76186 27.9081L10.2752 28.4189C10.3868 28.5305 10.5072 28.6255 10.6327 28.7054C10.1561 27.9119 10.2587 26.8586 10.9432 26.1742L12.3818 24.7355Z" fill="#3EC3A4"/>
<path fill-rule="evenodd" clip-rule="evenodd" d="M13.2032 7.57949C12.3983 6.77461 11.0801 6.77461 10.2752 7.57949L9.76186 8.09284C8.95698 8.89771 8.95698 10.2159 9.76186 11.0208L11.2005 12.4595C13.5936 12.3695 14.8129 11.2477 15.1526 9.52767L13.2032 7.57949Z" fill="#6FD7A3"/>
<path fill-rule="evenodd" clip-rule="evenodd" d="M15.1539 9.52767L13.2044 7.57949C12.3995 6.77461 11.0813 6.77461 10.2764 7.57949L9.76308 8.09284C9.71745 8.13847 9.67308 8.18536 9.63379 8.2348C10.3842 7.92425 11.2854 8.07256 11.8951 8.68223L13.5834 10.3706C14.5378 10.7851 14.799 10.0854 15.1539 9.52767Z" fill="#3EC3A4"/>
<path fill-rule="evenodd" clip-rule="evenodd" d="M9.13574 17.9998C9.13574 18.6792 9.21813 19.3434 9.37657 19.9822C9.69726 21.2878 10.3298 22.4945 11.2018 23.5402C12.226 24.7684 13.5809 25.7786 15.1539 26.472C16.6623 27.1361 18.3722 27.5126 20.1847 27.5126C21.996 27.5126 23.7059 27.1361 25.2143 26.472C26.7873 25.7761 28.1423 24.7684 29.1664 23.5402C29.8395 22.7328 30.3693 21.8316 30.7229 20.8619C31.0538 19.9582 31.2325 18.9961 31.2325 17.9998C31.2325 17.001 31.0538 16.039 30.7229 15.1352C30.3693 14.1681 29.8395 13.2656 29.1664 12.4569C28.1423 11.23 26.7873 10.221 25.2143 9.5277C23.7059 8.86352 21.996 8.48706 20.1847 8.48706C18.3722 8.48706 16.6623 8.86352 15.1539 9.5277C13.5809 10.221 12.226 11.2313 11.2018 12.4569C10.2867 13.5559 9.63768 14.8285 9.33094 16.205C9.20292 16.7855 9.13574 17.3863 9.13574 17.9998Z" fill="#663F2E"/>
<path fill-rule="evenodd" clip-rule="evenodd" d="M20.1848 25.0398C20.0263 25.0398 19.8653 25.036 19.7056 25.0271C17.4406 24.9181 15.0956 24.0321 13.5024 22.4134C13.387 22.2956 13.2755 22.1739 13.1677 22.0484C13.0638 21.9254 12.9624 21.8 12.8661 21.6707C12.5314 21.2194 12.2488 20.7251 12.032 20.1864C11.7519 19.4867 11.6074 18.7516 11.6074 17.9974C11.6074 17.2432 11.7532 16.5055 12.032 15.8071C12.2475 15.2722 12.5276 14.7817 12.8597 14.333C12.9573 14.1999 13.06 14.0719 13.1665 13.9477C13.2742 13.8222 13.3858 13.7005 13.5011 13.5826C15.0931 11.964 17.4368 11.0818 19.693 10.969C19.8577 10.9601 20.0212 10.9563 20.1835 10.9563C20.3457 10.9563 20.4991 10.9601 20.6588 10.9677C22.9239 11.0767 25.2701 11.9614 26.8633 13.5826C26.9787 13.7005 27.0902 13.8222 27.198 13.9477C27.3019 14.0706 27.4033 14.1961 27.4996 14.3254C27.5022 14.3279 27.5034 14.3317 27.506 14.3342C27.8393 14.783 28.1195 15.2748 28.3337 15.8084C28.6151 16.5068 28.7596 17.2445 28.7596 17.9987C28.7596 18.7528 28.6151 19.488 28.3337 20.1877C28.1182 20.7251 27.8368 21.2182 27.5022 21.6681C27.4058 21.7987 27.3044 21.9267 27.198 22.0497C27.0902 22.1752 26.9787 22.2968 26.8633 22.4147C25.2701 24.0346 22.9264 24.9168 20.6702 25.0283C20.508 25.036 20.3457 25.0398 20.1835 25.0398H20.1848Z" fill="#A0705C"/>
<path fill-rule="evenodd" clip-rule="evenodd" d="M17.5537 19.5181L18.8681 20.2761L20.1838 21.0354L21.4982 20.2761L22.8127 19.5181V17.9996V16.4811L21.4982 15.7219L20.1838 14.9626H20.18L18.8681 15.7219L17.5537 16.4811V17.9996V19.5181Z" fill="#B57A61"/>
<path fill-rule="evenodd" clip-rule="evenodd" d="M9.13574 18C9.13574 18.6794 9.21813 19.3436 9.37657 19.9824C9.69726 21.2879 10.3298 22.4946 11.2018 23.5403C12.226 24.7686 13.5809 25.7788 15.1539 26.4721C16.6623 27.1363 18.3722 27.5127 20.1847 27.5127C21.996 27.5127 23.7059 27.1363 25.2143 26.4721C26.7873 25.7762 28.1423 24.7686 29.1664 23.5403C29.8395 22.7329 30.3693 21.8317 30.7229 20.8621C31.0538 19.9583 31.2325 18.9963 31.2325 18V17.8808C31.1501 18.2636 31.0411 18.6401 30.908 19.0051C30.5518 19.9748 30.022 20.876 29.3489 21.6834C28.3273 22.9116 26.9723 23.9219 25.3981 24.6152C23.8885 25.2794 22.1786 25.6558 20.3673 25.6558C18.5547 25.6558 16.8461 25.2794 15.3365 24.6152C13.7635 23.9219 12.4085 22.9116 11.3869 21.6834C10.5123 20.6377 9.88105 19.431 9.5591 18.1255C9.41079 17.5234 9.32967 16.901 9.31953 16.2622C9.19912 16.825 9.13574 17.4068 9.13574 18Z" fill="#3D1C0B"/>
<path fill-rule="evenodd" clip-rule="evenodd" d="M13.1677 22.0495C14.8586 24.0205 17.613 25.0396 20.1848 25.0396C21.3585 25.0396 22.5702 24.8279 23.7047 24.4084C24.8328 23.9901 25.8823 23.3677 26.7328 22.5464C26.895 22.3879 27.0522 22.2232 27.2005 22.0495C27.6695 21.5019 28.0561 20.8809 28.3362 20.1875C28.5859 19.5652 28.7291 18.9099 28.7558 18.2393C28.7545 18.2469 28.752 18.252 28.7507 18.2571C27.4679 21.4474 23.8847 23.1092 20.598 23.1092C17.3138 23.1092 13.7293 21.4487 12.4478 18.2571C12.1664 17.5574 12.0219 16.821 12.0219 16.0681C12.0219 15.9857 12.0232 15.9058 12.027 15.8247C11.7494 16.518 11.6074 17.2481 11.6074 17.9972C11.6074 18.7463 11.7532 19.4866 12.0333 20.1863C12.3122 20.8796 12.7 21.5007 13.169 22.0483L13.1677 22.0495Z" fill="#844F34"/>
<path d="M19.706 25.0283C19.8669 25.0372 20.0266 25.041 20.1851 25.041C20.3435 25.041 20.5096 25.0372 20.6718 25.0296L20.6693 21.3145L22.8139 20.0761L26.8649 22.4147C26.9803 22.2968 27.0918 22.1752 27.1996 22.0497C27.3048 21.9267 27.4074 21.7987 27.5038 21.6681C27.481 21.6542 27.4607 21.6415 27.4417 21.6314L23.2969 19.2396V16.759L27.4417 14.3672C27.4569 14.3583 27.481 14.3469 27.5076 14.3342C27.505 14.3317 27.5038 14.3279 27.5012 14.3254C27.4049 14.1961 27.3048 14.0706 27.1996 13.9477C27.0918 13.8222 26.9803 13.7005 26.8649 13.5826L22.8139 15.9212L20.6642 14.679L20.6604 10.9677C20.502 10.9601 20.3435 10.9563 20.1851 10.9563C20.0266 10.9563 19.8581 10.9601 19.6946 10.969L19.6984 14.6828L17.555 15.9199L13.5027 13.5813C13.3874 13.6992 13.2758 13.8209 13.1681 13.9464C13.0616 14.0719 12.9589 14.1999 12.8613 14.3317C12.8854 14.3431 12.9082 14.3533 12.9272 14.3647L17.072 16.7565V19.2358L12.9272 21.6276C12.9057 21.6403 12.8867 21.6529 12.8677 21.6681L13.504 22.4096L17.5562 20.0711L19.7034 21.3094L19.706 25.0233V25.0283ZM18.0379 19.2396V16.7603L20.1851 15.5207L22.331 16.7603V19.2396L20.1851 20.4779L18.0379 19.2396Z" fill="#B78C79"/>
<path d="M5.23438 17.693V16.7195C5.23438 16.3317 5.54872 16.0173 5.93658 16.0173C6.32445 16.0173 6.63879 16.3317 6.63879 16.7195V17.693C6.63879 18.0809 6.32445 18.3952 5.93658 18.3952C5.54872 18.3952 5.23438 18.0809 5.23438 17.693Z" fill="#222222"/>
</g>
<defs>
<filter id="filter0_d_1812_10698" x="-1.5" y="0" width="40" height="40" filterUnits="userSpaceOnUse" color-interpolation-filters="sRGB">
<feFlood flood-opacity="0" result="BackgroundImageFix"/>
<feColorMatrix in="SourceAlpha" type="matrix" values="0 0 0 0 0 0 0 0 0 0 0 0 0 0 0 0 0 0 127 0" result="hardAlpha"/>
<feOffset dy="2"/>
<feGaussianBlur stdDeviation="1"/>
<feColorMatrix type="matrix" values="0 0 0 0 0 0 0 0 0 0 0 0 0 0 0 0 0 0 0.2 0"/>
<feBlend mode="normal" in2="BackgroundImageFix" result="effect1_dropShadow_1812_10698"/>
<feBlend mode="normal" in="SourceGraphic" in2="effect1_dropShadow_1812_10698" result="shape"/>
</filter>
</defs>
</svg>
