<svg width="25" height="24" viewBox="0 0 25 24" fill="none" xmlns="http://www.w3.org/2000/svg">
<path fill-rule="evenodd" clip-rule="evenodd" d="M3.5 4L17.5 4C19.7091 4 21.5 5.79086 21.5 8V10.8762C20.397 10.0139 19.0085 9.5 17.5 9.5C15.484 9.5 13.6823 10.4178 12.4901 11.8584C12.4213 11.3732 12.0042 11 11.5 11C10.9477 11 10.5 11.4477 10.5 12C10.5 12.5523 10.9477 13 11.5 13C11.5858 13 11.6691 12.9892 11.7485 12.9689C11.2706 13.8739 11 14.9053 11 16C11 16.6978 11.11 17.3699 11.3135 18H7.5C5.29086 18 3.5 16.2091 3.5 14L3.5 4ZM7.5 11C6.94772 11 6.5 11.4477 6.5 12C6.5 12.5523 6.94772 13 7.5 13C8.05228 13 8.5 12.5523 8.5 12C8.5 11.4477 8.05228 11 7.5 11ZM14.5 8C14.5 7.44772 14.9477 7 15.5 7C16.0523 7 16.5 7.44772 16.5 8C16.5 8.55228 16.0523 9 15.5 9C14.9477 9 14.5 8.55228 14.5 8ZM7.5 7C6.94772 7 6.5 7.44772 6.5 8C6.5 8.55228 6.94772 9 7.5 9H11.5C12.0523 9 12.5 8.55228 12.5 8C12.5 7.44772 12.0523 7 11.5 7L7.5 7Z" fill="white"/>
<path fill-rule="evenodd" clip-rule="evenodd" d="M17.5 21C20.2614 21 22.5 18.7614 22.5 16C22.5 13.2386 20.2614 11 17.5 11C14.7386 11 12.5 13.2386 12.5 16C12.5 18.7614 14.7386 21 17.5 21ZM19.3693 13.9697L16.8996 16.4393L15.6299 15.1697L14.5693 16.2303L16.3693 18.0303L16.8996 18.5607L17.4299 18.0303L20.4299 15.0303L19.3693 13.9697Z" fill="white"/>
</svg>
