<svg width="16" height="16" viewBox="0 0 16 16" fill="none" xmlns="http://www.w3.org/2000/svg">
<g id="ic">
<path id="Union" fill-rule="evenodd" clip-rule="evenodd" d="M3.40527 2.69445L6.93527 6.22445C7.52527 5.64445 7.52527 4.69445 6.93527 4.10445L5.52527 2.69445C4.94527 2.10445 3.99527 2.10445 3.40527 2.69445ZM12.5954 13.3044L12.5954 13.3045C12.0054 13.8945 11.0554 13.8945 10.4754 13.3045L2.69543 5.52448C2.10543 4.93448 2.10543 3.98448 2.69543 3.40448L9.05986 9.76891L9.76044 9.06833L13.296 12.6039L12.5954 13.3044ZM13.2946 12.5844L9.76465 9.05444C10.3546 8.46444 11.3046 8.46444 11.8846 9.05444L13.2946 10.4644C13.8846 11.0544 13.8846 12.0044 13.2946 12.5844ZM2.69396 3.39983L6.22949 6.93536L6.9366 6.22826L3.40107 2.69272L2.69396 3.39983Z" fill="#B1BBC0"/>
</g>
</svg>
