<svg width="24" height="24" viewBox="0 0 24 24" fill="none" xmlns="http://www.w3.org/2000/svg">
<path d="M20 5L4 12L20 19" stroke="white" stroke-width="2" stroke-linecap="square"/>
<path d="M4.16667 17C1.86583 17 0 15.1342 0 12.8333V7H6.66667C7.5875 7 8.33333 7.74583 8.33333 8.66667V12.8333C8.33333 15.1342 6.4675 17 4.16667 17Z" fill="white"/>
<path d="M19.8332 10C17.5323 10 15.6665 8.13417 15.6665 5.83333V0H22.3332C23.254 0 23.9998 0.745833 23.9998 1.66667V5.83333C23.9998 8.13417 22.134 10 19.8332 10Z" fill="white"/>
<path d="M19.8332 24C17.5323 24 15.6665 22.1342 15.6665 19.8333V14H22.3332C23.254 14 23.9998 14.7458 23.9998 15.6667V19.8333C23.9998 22.1342 22.134 24 19.8332 24Z" fill="white"/>
</svg>
