<svg width="24" height="24" viewBox="0 0 24 24" fill="none" xmlns="http://www.w3.org/2000/svg">
<path d="M10.9464 12.0042V6.71875L2.5 6.71875L2.5 14.1115C2.5 17.0306 4.86636 19.3883 7.77682 19.3883C10.0482 19.3883 11.9741 17.9547 12.7255 15.951C11.6373 14.9837 10.9464 13.576 10.9464 11.9956V12.0042Z" fill="#00C29D"/>
<path d="M13.0536 4.61133C12.2763 4.61133 11.6027 5.02587 11.2399 5.64769C11.0499 5.9586 10.9463 6.32996 10.9463 6.7186C12.1122 6.7186 13.0536 7.65996 13.0536 8.82587L13.0536 14.1027C13.0536 14.7504 12.9327 15.3722 12.7254 15.9422C13.6581 16.7627 14.8845 17.2722 16.2231 17.2722C19.1422 17.2722 21.4999 14.9059 21.4999 11.9954V4.61133L13.0536 4.61133Z" fill="#00C29D"/>
</svg>
