<svg width="48" height="37" viewBox="0 0 48 37" fill="none" xmlns="http://www.w3.org/2000/svg">
<path d="M21.333 18.4994V5.28564H0V23.7862C0 31.0842 5.96902 37 13.3326 37C19.06 37 23.9442 33.4196 25.8306 28.394C23.0723 25.9737 21.3308 22.439 21.3308 18.4994H21.333Z" fill="#E7E8F0"/>
<path d="M26.6669 0C23.7219 0 21.3325 2.3659 21.3325 5.28681C24.2775 5.28681 26.6669 7.65271 26.6669 10.5736V23.7874C26.6669 25.4089 26.3704 26.9608 25.8323 28.3951C28.1844 30.4607 31.2765 31.7165 34.6673 31.7165C42.0308 31.7165 47.9999 25.8007 47.9999 18.5028V0H26.6669Z" fill="#E7E8F0"/>
<path d="M26.6669 10.5723C26.6669 7.6536 24.2797 5.28552 21.3325 5.28552V18.4993C21.3325 22.4388 23.074 25.9713 25.8323 28.3938C26.3704 26.9595 26.6669 25.4076 26.6669 23.7861V10.5723Z" fill="#B1BBC0"/>
</svg>
