<svg width="174" height="28" viewBox="0 0 174 28" fill="none" xmlns="http://www.w3.org/2000/svg">
<path d="M142.163 9.83781V21.3405C142.163 21.6735 141.89 21.9459 141.557 21.9459H139.741C139.408 21.9459 139.136 21.6735 139.136 21.3405V12.8648C139.136 11.1939 140.492 9.83781 142.163 9.83781Z" fill="#33DDBC"/>
<path d="M151.241 9.83781C152.912 9.83781 154.268 11.1939 154.268 12.8648V21.3405C154.268 21.6735 153.996 21.9459 153.663 21.9459H151.847C151.514 21.9459 151.241 21.6735 151.241 21.3405V9.83781Z" fill="#33DDBC"/>
<path d="M151.242 9.83781H142.161C142.161 8.16689 143.517 6.81078 145.188 6.81078H148.215C149.886 6.81078 151.242 8.16689 151.242 9.83781Z" fill="#33DDBC"/>
<path d="M135.502 0.756733H133.686C133.352 0.756733 133.081 1.02778 133.081 1.36214V3.17835C133.081 3.51271 133.352 3.78376 133.686 3.78376H135.502C135.837 3.78376 136.108 3.51271 136.108 3.17835V1.36214C136.108 1.02778 135.837 0.756733 135.502 0.756733Z" fill="#33DDBC"/>
<path d="M135.502 6.81078H133.686C133.352 6.81078 133.081 7.08183 133.081 7.41619V21.3405C133.081 21.6749 133.352 21.9459 133.686 21.9459H135.502C135.837 21.9459 136.108 21.6749 136.108 21.3405V7.41619C136.108 7.08183 135.837 6.81078 135.502 6.81078Z" fill="#33DDBC"/>
<path d="M160.323 9.83781V18.9189C158.652 18.9189 157.296 17.5628 157.296 15.8919V12.8648C157.296 11.1939 158.652 9.83781 160.323 9.83781Z" fill="#33DDBC"/>
<path d="M169.407 18.9189C169.407 20.5898 168.051 21.9459 166.38 21.9459H163.353C161.682 21.9459 160.326 20.5898 160.326 18.9189H169.407Z" fill="#33DDBC"/>
<path d="M169.407 9.83781H160.326C160.326 8.16689 161.682 6.81078 163.353 6.81078H166.38C168.051 6.81078 169.407 8.16689 169.407 9.83781Z" fill="#33DDBC"/>
<path d="M169.407 24.973C169.407 26.6439 168.051 28 166.38 28H160.931C160.598 28 160.326 27.7276 160.326 27.3946V25.5784C160.326 25.2454 160.598 24.973 160.931 24.973H169.407Z" fill="#33DDBC"/>
<path d="M169.406 9.83781C171.077 9.83781 172.433 11.1939 172.433 12.8648V21.9459C172.433 23.6168 171.077 24.9729 169.406 24.9729V9.83781Z" fill="#33DDBC"/>
<path d="M99.7829 9.83781V18.9189C98.112 18.9189 96.7559 17.5628 96.7559 15.8919V12.8648C96.7559 11.1939 98.112 9.83781 99.7829 9.83781Z" fill="#33DDBC"/>
<path d="M108.862 18.9189C108.862 20.5898 107.506 21.9459 105.835 21.9459H102.808C101.137 21.9459 99.7812 20.5898 99.7812 18.9189H108.862Z" fill="#33DDBC"/>
<path d="M109.471 0.756733H111.287C111.62 0.756733 111.893 1.02917 111.893 1.36214V15.8919C111.893 17.5628 110.537 18.9189 108.866 18.9189V1.36214C108.866 1.02917 109.138 0.756733 109.471 0.756733Z" fill="#33DDBC"/>
<path d="M108.862 9.83781H99.7812C99.7812 8.16689 101.137 6.81078 102.808 6.81078H105.835C107.506 6.81078 108.862 8.16689 108.862 9.83781Z" fill="#33DDBC"/>
<path d="M117.944 9.83781V18.9189C116.273 18.9189 114.917 17.5628 114.917 15.8919V12.8648C114.917 11.1939 116.273 9.83781 117.944 9.83781Z" fill="#33DDBC"/>
<path d="M127.027 18.9189C127.027 20.5898 125.671 21.9459 124 21.9459H120.973C119.302 21.9459 117.946 20.5898 117.946 18.9189H127.027Z" fill="#33DDBC"/>
<path d="M127.631 0.756733H129.447C129.78 0.756733 130.053 1.02917 130.053 1.36214V15.8919C130.053 17.5628 128.697 18.9189 127.026 18.9189V1.36214C127.026 1.02917 127.298 0.756733 127.631 0.756733Z" fill="#33DDBC"/>
<path d="M127.027 9.83781H117.946C117.946 8.16689 119.302 6.81078 120.973 6.81078H124C125.671 6.81078 127.027 8.16689 127.027 9.83781Z" fill="#33DDBC"/>
<path d="M45.9013 0.756733H47.7175C48.0505 0.756733 48.3229 1.02917 48.3229 1.36214V18.9189C46.652 18.9189 45.2959 17.5628 45.2959 15.8919V1.36214C45.2959 1.02917 45.5683 0.756733 45.9013 0.756733Z" fill="#33DDBC"/>
<path d="M64.0659 0.756733H65.8821C66.215 0.756733 66.4875 1.02917 66.4875 1.36214V15.8919C66.4875 17.5628 65.1314 18.9189 63.4604 18.9189V1.36214C63.4604 1.02917 63.7329 0.756733 64.0659 0.756733Z" fill="#33DDBC"/>
<path d="M54.3749 18.9189C54.3749 20.5898 53.0187 21.9459 51.3478 21.9459C49.6769 21.9459 48.3208 20.5898 48.3208 18.9189H54.3749Z" fill="#33DDBC"/>
<path d="M54.9814 6.81078H56.7976C57.1306 6.81078 57.403 7.08322 57.403 7.41619V18.9189H54.376V7.41619C54.376 7.08322 54.6484 6.81078 54.9814 6.81078Z" fill="#33DDBC"/>
<path d="M63.4598 18.9189C63.4598 20.5898 62.1037 21.9459 60.4328 21.9459C58.7619 21.9459 57.4058 20.5898 57.4058 18.9189H63.4598Z" fill="#33DDBC"/>
<path d="M81.6221 9.83781H72.541C72.541 8.16689 73.8971 6.81078 75.568 6.81078H78.5951C80.266 6.81078 81.6221 8.16689 81.6221 9.83781Z" fill="#33DDBC"/>
<path d="M72.541 12.8648C72.541 14.5358 73.8971 15.8919 75.568 15.8919H78.5951C80.266 15.8919 81.6221 14.5358 81.6221 12.8648H72.541Z" fill="#33DDBC"/>
<path d="M81.6221 19.5243V21.3405C81.6221 21.6735 81.3497 21.9459 81.0167 21.9459H75.568C73.8971 21.9459 72.541 20.5898 72.541 18.9189H81.0167C81.3497 18.9189 81.6221 19.1913 81.6221 19.5243Z" fill="#33DDBC"/>
<path d="M72.5383 9.83781V18.9189C70.8673 18.9189 69.5112 17.5628 69.5112 15.8919V12.8648C69.5112 11.1939 70.8673 9.83781 72.5383 9.83781Z" fill="#33DDBC"/>
<path d="M83.1341 9.83781H81.6206V12.8648H83.1341C83.9696 12.8648 84.6476 12.1868 84.6476 11.3513C84.6476 10.5159 83.9696 9.83781 83.1341 9.83781Z" fill="#33DDBC"/>
<path d="M93.7298 15.8919H87.6758C87.6758 15.0564 88.3538 14.3784 89.1893 14.3784H92.2163C93.0518 14.3784 93.7298 15.0564 93.7298 15.8919Z" fill="#33DDBC"/>
<path d="M93.7298 12.8648C93.7298 13.7003 93.0518 14.3784 92.2163 14.3784H89.1893C88.3538 14.3784 87.6758 13.7003 87.6758 12.8648H93.7298Z" fill="#33DDBC"/>
<path d="M14.7023 12.8648V3.67479H0V16.5397C0 21.616 4.11373 25.7297 9.19005 25.7297C13.1373 25.7297 16.5033 23.2385 17.805 19.7453C15.904 18.0622 14.7053 15.6043 14.7053 12.8648H14.7023Z" fill="#FFDD33"/>
<path d="M18.3755 0C16.3444 0 14.7007 1.6467 14.7007 3.67481C16.7318 3.67481 18.3755 5.32151 18.3755 7.34962V16.5397C18.3755 17.6657 18.1727 18.7464 17.8004 19.7453C19.4228 21.1801 21.5539 22.0549 23.8877 22.0549C28.964 22.0549 33.0778 17.9412 33.0778 12.8649V0H18.3755Z" fill="#1C88F4"/>
<path d="M18.3755 7.35262C18.3755 5.32149 16.7288 3.67781 14.7007 3.67781V12.8679C14.7007 15.6073 15.8994 18.0653 17.8004 19.7483C18.1727 18.7494 18.3755 17.6718 18.3755 16.5427V7.35262Z" fill="#33DDBC"/>
</svg>
