<svg width="140" height="31" viewBox="0 0 140 31" fill="none" xmlns="http://www.w3.org/2000/svg">
<g clip-path="url(#clip0_3100_35359)">
<path d="M106.669 10.5V23.1666C106.669 23.5333 106.369 23.8333 106.002 23.8333H104.002C103.635 23.8333 103.335 23.5333 103.335 23.1666V13.8333C103.335 11.9933 104.829 10.5 106.669 10.5Z" fill="#00C29D"/>
<path d="M116.666 10.5C118.506 10.5 119.999 11.9933 119.999 13.8333V23.1666C119.999 23.5333 119.699 23.8333 119.333 23.8333H117.333C116.966 23.8333 116.666 23.5333 116.666 23.1666V10.5Z" fill="#00C29D"/>
<path d="M116.666 10.5H106.666C106.666 8.66002 108.159 7.16669 109.999 7.16669H113.333C115.173 7.16669 116.666 8.66002 116.666 10.5Z" fill="#00C29D"/>
<path d="M99.3341 0.5H97.3341C96.966 0.5 96.6675 0.798476 96.6675 1.16667V3.16666C96.6675 3.53485 96.966 3.83333 97.3341 3.83333H99.3341C99.7023 3.83333 100.001 3.53485 100.001 3.16666V1.16667C100.001 0.798476 99.7023 0.5 99.3341 0.5Z" fill="#00C29D"/>
<path d="M99.3341 7.16669H97.3341C96.966 7.16669 96.6675 7.46516 96.6675 7.83335V23.1667C96.6675 23.5349 96.966 23.8333 97.3341 23.8333H99.3341C99.7023 23.8333 100.001 23.5349 100.001 23.1667V7.83335C100.001 7.46516 99.7023 7.16669 99.3341 7.16669Z" fill="#00C29D"/>
<path d="M126.666 10.5V20.5C124.826 20.5 123.333 19.0067 123.333 17.1667V13.8333C123.333 11.9933 124.826 10.5 126.666 10.5Z" fill="#00C29D"/>
<path d="M136.669 20.5C136.669 22.34 135.176 23.8333 133.336 23.8333H130.003C128.163 23.8333 126.669 22.34 126.669 20.5H136.669Z" fill="#00C29D"/>
<path d="M136.669 10.5H126.669C126.669 8.66002 128.163 7.16669 130.003 7.16669H133.336C135.176 7.16669 136.669 8.66002 136.669 10.5Z" fill="#00C29D"/>
<path d="M136.669 27.1666C136.669 29.0066 135.176 30.5 133.336 30.5H127.336C126.969 30.5 126.669 30.2 126.669 29.8333V27.8333C126.669 27.4666 126.969 27.1666 127.336 27.1666H136.669Z" fill="#00C29D"/>
<path d="M136.668 10.5C138.508 10.5 140.002 11.9933 140.002 13.8333V23.8333C140.002 25.6733 138.508 27.1666 136.668 27.1666V10.5Z" fill="#00C29D"/>
<path d="M60.0013 10.5V20.5C58.1613 20.5 56.668 19.0067 56.668 17.1667V13.8333C56.668 11.9933 58.1613 10.5 60.0013 10.5Z" fill="#00C29D"/>
<path d="M69.9985 20.5C69.9985 22.34 68.5052 23.8333 66.6652 23.8333H63.3319C61.4919 23.8333 59.9985 22.34 59.9985 20.5H69.9985Z" fill="#00C29D"/>
<path d="M70.6691 0.5H72.6691C73.0358 0.5 73.3358 0.8 73.3358 1.16667V17.1666C73.3358 19.0066 71.8424 20.5 70.0024 20.5V1.16667C70.0024 0.8 70.3024 0.5 70.6691 0.5Z" fill="#00C29D"/>
<path d="M69.9985 10.5H59.9985C59.9985 8.66002 61.4919 7.16669 63.3319 7.16669H66.6652C68.5052 7.16669 69.9985 8.66002 69.9985 10.5Z" fill="#00C29D"/>
<path d="M79.9984 10.5V20.5C78.1584 20.5 76.665 19.0067 76.665 17.1667V13.8333C76.665 11.9933 78.1584 10.5 79.9984 10.5Z" fill="#00C29D"/>
<path d="M90.001 20.5C90.001 22.34 88.5076 23.8333 86.6676 23.8333H83.3343C81.4943 23.8333 80.001 22.34 80.001 20.5H90.001Z" fill="#00C29D"/>
<path d="M90.6672 0.5H92.6672C93.0338 0.5 93.3338 0.8 93.3338 1.16667V17.1666C93.3338 19.0066 91.8405 20.5 90.0005 20.5V1.16667C90.0005 0.8 90.3005 0.5 90.6672 0.5Z" fill="#00C29D"/>
<path d="M90.001 10.5H80.001C80.001 8.66002 81.4943 7.16669 83.3343 7.16669H86.6676C88.5076 7.16669 90.001 8.66002 90.001 10.5Z" fill="#00C29D"/>
<path d="M0.666666 0.5H2.66666C3.03333 0.5 3.33333 0.8 3.33333 1.16667V20.5C1.49333 20.5 0 19.0066 0 17.1666V1.16667C0 0.8 0.3 0.5 0.666666 0.5Z" fill="#00C29D"/>
<path d="M20.6686 0.5H22.6686C23.0353 0.5 23.3353 0.8 23.3353 1.16667V17.1666C23.3353 19.0066 21.842 20.5 20.002 20.5V1.16667C20.002 0.8 20.302 0.5 20.6686 0.5Z" fill="#00C29D"/>
<path d="M9.9982 20.5C9.9982 22.34 8.50487 23.8333 6.66487 23.8333C4.82487 23.8333 3.33154 22.34 3.33154 20.5H9.9982Z" fill="#00C29D"/>
<path d="M10.6652 7.16669H12.6652C13.0319 7.16669 13.3319 7.46669 13.3319 7.83335V20.5H9.99854V7.83335C9.99854 7.46669 10.2985 7.16669 10.6652 7.16669Z" fill="#00C29D"/>
<path d="M20.0026 20.5C20.0026 22.34 18.5093 23.8333 16.6693 23.8333C14.8293 23.8333 13.3359 22.34 13.3359 20.5H20.0026Z" fill="#00C29D"/>
<path d="M40.0019 10.5H30.002C30.002 8.66002 31.4953 7.16669 33.3353 7.16669H36.6686C38.5086 7.16669 40.0019 8.66002 40.0019 10.5Z" fill="#00C29D"/>
<path d="M30.002 13.8333C30.002 15.6732 31.4953 17.1666 33.3353 17.1666H36.6686C38.5086 17.1666 40.0019 15.6732 40.0019 13.8333H30.002Z" fill="#00C29D"/>
<path d="M40.0019 21.1667V23.1667C40.0019 23.5333 39.7019 23.8333 39.3353 23.8333H33.3353C31.4953 23.8333 30.002 22.34 30.002 20.5H39.3353C39.7019 20.5 40.0019 20.8 40.0019 21.1667Z" fill="#00C29D"/>
<path d="M29.9993 10.5V20.5C28.1593 20.5 26.666 19.0067 26.666 17.1667V13.8333C26.666 11.9933 28.1593 10.5 29.9993 10.5Z" fill="#00C29D"/>
<path d="M41.6672 10.5H40.0005V13.8333H41.6672C42.5872 13.8333 43.3338 13.0867 43.3338 12.1667C43.3338 11.2467 42.5872 10.5 41.6672 10.5Z" fill="#00C29D"/>
<path d="M53.3346 17.1667H46.668C46.668 16.2467 47.4146 15.5 48.3346 15.5H51.668C52.588 15.5 53.3346 16.2467 53.3346 17.1667Z" fill="#00C29D"/>
<path d="M53.3346 13.8333C53.3346 14.7533 52.588 15.4999 51.668 15.4999H48.3346C47.4146 15.4999 46.668 14.7533 46.668 13.8333H53.3346Z" fill="#00C29D"/>
</g>
<defs>
<clipPath id="clip0_3100_35359">
<rect width="140" height="30" fill="white" transform="translate(0 0.5)"/>
</clipPath>
</defs>
</svg>
